<?xml version="1.0" standalone="no"?>
<!DOCTYPE svg PUBLIC "-//W3C//DTD SVG 20010904//EN"
 "http://www.w3.org/TR/2001/REC-SVG-20010904/DTD/svg10.dtd">
<svg version="1.0" xmlns="http://www.w3.org/2000/svg"
 width="1338.000000pt" height="1394.000000pt" viewBox="0 0 1338.000000 1394.000000"
 preserveAspectRatio="xMidYMid meet">
<metadata>
Created by potrace 1.16, written by Peter Selinger 2001-2019
</metadata>
<g transform="translate(0.000000,1394.000000) scale(0.100000,-0.100000)"
fill="#000000" stroke="none">
<path d="M705 13736 c-12 -9 -32 -12 -52 -9 -41 7 -158 -48 -221 -102 -39 -34
-102 -114 -102 -131 0 -3 18 -4 40 -1 39 5 76 30 66 45 -8 13 27 27 69 27 30
0 42 -5 50 -21 9 -18 12 -19 24 -7 20 22 36 10 34 -25 -1 -26 3 -33 23 -38 13
-3 24 -10 24 -15 0 -6 -9 -5 -20 1 -23 12 -22 13 -25 -17 -1 -12 2 -20 7 -17
17 11 58 -6 58 -24 0 -11 -3 -13 -8 -6 -4 6 -18 10 -32 9 -14 -1 -33 5 -43 13
-16 15 -17 14 -11 -2 6 -16 4 -17 -13 -7 -16 8 -22 8 -26 -3 -3 -7 -27 -16
-53 -19 -27 -3 -53 -12 -59 -21 -7 -9 -17 -16 -24 -16 -6 0 -11 -6 -11 -12 -1
-7 -6 -2 -13 12 -7 14 -16 26 -22 25 -17 -1 -53 -37 -49 -49 3 -7 -5 -22 -16
-34 -11 -12 -17 -22 -13 -22 4 0 0 -6 -9 -14 -26 -19 -7 -131 37 -224 146
-308 554 -376 795 -133 106 107 158 242 146 379 -4 40 -12 85 -18 100 -6 15
-12 37 -14 50 -8 62 -106 184 -189 237 -50 32 -135 69 -135 60 0 -3 11 -23 25
-45 14 -22 23 -40 20 -40 -3 0 17 -22 45 -50 28 -27 53 -50 56 -50 7 0 31 -20
56 -47 12 -13 28 -23 36 -23 8 0 12 -6 8 -15 -6 -17 30 -41 54 -36 8 2 12 0 8
-5 -4 -4 0 -13 10 -20 11 -9 13 -13 4 -14 -7 0 -10 -5 -7 -10 4 -6 3 -10 -2
-9 -20 3 -34 -2 -28 -11 3 -5 1 -10 -4 -10 -6 0 -11 -6 -11 -13 0 -9 -10 -12
-31 -9 -22 3 -30 1 -25 -7 4 -6 0 -18 -8 -27 -9 -9 -14 -20 -11 -24 3 -5 -5
-16 -18 -25 -22 -14 -27 -14 -53 0 -16 8 -28 17 -26 20 10 21 -2 22 -23 1 -14
-14 -25 -31 -25 -37 0 -7 -6 -4 -14 6 -13 18 -11 21 16 34 16 8 25 17 20 20
-5 4 -5 20 0 40 7 25 12 31 21 22 16 -16 27 -14 20 5 -4 11 -15 15 -33 12 -22
-3 -27 -1 -22 11 3 8 1 12 -4 8 -16 -10 -62 39 -69 75 -4 18 -15 38 -25 45 -9
7 -23 26 -30 43 -11 25 -10 34 5 56 16 25 16 27 -4 41 -21 14 -29 43 -11 43 5
0 16 13 24 29 15 28 15 29 -16 35 -51 10 -103 7 -123 -8z m-135 -382 c0 -8
-19 -13 -24 -6 -3 5 1 9 9 9 8 0 15 -2 15 -3z m-185 -34 c3 -5 1 -10 -4 -10
-6 0 -11 5 -11 10 0 6 2 10 4 10 3 0 8 -4 11 -10z m10 -30 c-13 -14 -14 -20
-5 -20 7 0 11 -2 8 -5 -3 -3 -12 -3 -21 1 -15 5 -14 8 6 25 29 24 35 24 12 -1z
m281 -66 c19 -15 19 -15 -1 -6 -11 5 -27 12 -35 15 -13 5 -13 6 1 6 8 1 24 -6
35 -15z"/>
<path d="M2855 13635 c-68 -24 -103 -91 -83 -161 35 -130 221 -129 256 0 30
107 -68 197 -173 161z m23 -77 c-4 -20 11 -68 21 -68 12 0 25 56 16 70 -4 6 6
10 24 10 17 0 31 -4 31 -10 0 -5 -4 -10 -9 -10 -4 0 -18 -27 -30 -60 -12 -33
-26 -60 -31 -60 -8 0 -70 122 -70 136 0 2 11 4 25 4 15 0 25 -5 23 -12z"/>
<path d="M1585 13630 c-3 -5 -26 -10 -51 -10 -62 0 -55 -20 9 -22 l52 -2 -47
-3 c-58 -5 -64 -23 -8 -23 22 0 40 -4 40 -10 0 -5 -22 -10 -50 -10 -27 0 -50
-4 -50 -10 0 -6 47 -10 120 -10 73 0 120 4 120 10 0 6 -22 10 -50 10 -27 0
-50 5 -50 10 0 6 18 10 40 10 56 0 50 18 -7 23 l-48 3 53 2 c63 2 70 22 8 22
-25 0 -48 5 -51 10 -3 6 -10 10 -15 10 -5 0 -12 -4 -15 -10z"/>
<path d="M1780 13615 c0 -12 18 -15 100 -15 82 0 100 3 100 15 0 12 -18 15
-100 15 -82 0 -100 -3 -100 -15z"/>
<path d="M2040 13510 c0 -82 3 -100 15 -100 10 0 15 10 15 30 0 17 4 30 10 30
5 0 19 -13 32 -30 12 -16 30 -30 41 -30 17 0 17 2 -5 31 -13 17 -27 37 -32 44
-7 9 -1 21 20 39 25 22 26 25 10 26 -11 0 -33 -12 -48 -27 l-28 -27 0 57 c0
44 -3 57 -15 57 -12 0 -15 -18 -15 -100z"/>
<path d="M2196 13601 c-7 -11 18 -33 27 -24 4 3 7 12 7 20 0 15 -26 18 -34 4z"/>
<path d="M2321 13551 c-7 -5 -22 -6 -32 -4 -17 5 -19 -1 -19 -66 0 -56 3 -71
15 -71 11 0 15 12 15 44 0 59 8 76 35 76 27 0 35 -17 35 -76 0 -32 4 -44 15
-44 25 0 21 104 -5 130 -22 22 -37 25 -59 11z"/>
<path d="M2470 13553 c-25 -9 -40 -35 -40 -69 0 -47 25 -67 73 -61 31 4 37 3
33 -10 -3 -8 -6 -19 -6 -24 0 -13 -54 -11 -68 3 -14 14 -27 4 -19 -16 8 -21
54 -31 83 -17 32 14 44 48 44 126 0 64 0 64 -27 63 -16 -1 -35 1 -43 5 -8 3
-22 3 -30 0z m59 -45 c12 -33 -2 -63 -29 -63 -29 0 -45 25 -36 58 8 35 53 38
65 5z"/>
<path d="M1750 13535 c0 -11 12 -15 45 -15 25 0 45 -2 45 -5 0 -9 -32 -58 -54
-83 -32 -36 -12 -44 85 -34 71 8 86 7 96 -6 25 -30 26 15 2 58 -29 50 -54 50
-34 -1 5 -14 -4 -18 -50 -24 -31 -3 -59 -5 -61 -2 -3 2 8 25 23 50 l28 46 68
1 c53 0 67 3 67 15 0 13 -21 15 -130 15 -109 0 -130 -2 -130 -15z"/>
<path d="M2200 13480 c0 -56 3 -70 15 -70 12 0 15 14 15 70 0 56 -3 70 -15 70
-12 0 -15 -14 -15 -70z"/>
<path d="M1510 13450 c0 -66 15 -98 22 -47 3 20 10 22 62 25 32 2 64 -2 69 -7
8 -8 4 -11 -11 -11 -12 0 -22 -4 -22 -9 0 -16 19 -23 40 -16 17 5 20 15 20 71
l0 64 -90 0 -90 0 0 -70z m155 40 c4 -6 -20 -10 -65 -10 -45 0 -69 4 -65 10 3
6 33 10 65 10 32 0 62 -4 65 -10z m-27 -37 c-21 -2 -55 -2 -75 0 -21 2 -4 4
37 4 41 0 58 -2 38 -4z"/>
<path d="M985 13310 c3 -5 10 -10 16 -10 5 0 9 5 9 10 0 6 -7 10 -16 10 -8 0
-12 -4 -9 -10z"/>
<path d="M5170 12504 c0 -68 -22 -126 -62 -166 -21 -21 -38 -40 -38 -43 0 -14
21 -1 57 35 l39 40 23 -40 c12 -22 27 -38 32 -35 8 6 -10 42 -39 77 -10 13
-11 24 -3 55 14 48 14 113 1 113 -5 0 -10 -16 -10 -36z"/>
<path d="M5300 12510 c0 -23 -4 -30 -20 -30 -11 0 -20 -4 -20 -10 0 -5 10 -10
21 -10 20 0 21 -4 16 -51 -4 -28 -15 -66 -26 -85 -11 -18 -16 -36 -11 -39 12
-8 49 74 56 128 5 37 11 47 25 47 17 0 19 -8 19 -63 0 -63 -11 -89 -40 -101
-8 -3 -2 -4 15 -3 26 2 31 7 37 42 4 22 7 64 7 93 1 51 1 52 -29 52 -27 0 -30
3 -30 30 0 17 -4 30 -10 30 -5 0 -10 -13 -10 -30z"/>
<path d="M5624 12509 c-16 -17 -44 -39 -62 -51 -17 -11 -30 -24 -26 -29 7 -11
85 41 107 73 l17 23 17 -23 c26 -36 103 -87 103 -67 0 8 -4 15 -9 15 -5 0 -31
20 -59 45 -27 25 -52 45 -54 45 -2 0 -17 -14 -34 -31z"/>
<path d="M2601 12508 c-1 -27 -3 -28 -51 -28 l-50 0 1 -62 c0 -35 3 -57 6 -50
3 7 23 12 48 12 l44 0 4 -52 3 -53 2 53 2 52 44 0 c26 0 46 -5 49 -12 3 -7 6
15 6 50 l1 62 -49 0 c-46 0 -50 2 -54 28 l-4 27 -2 -27z m-1 -78 l0 -40 -45 0
-45 0 0 40 0 40 45 0 45 0 0 -40z m100 0 l0 -40 -45 0 -45 0 0 40 0 40 45 0
45 0 0 -40z"/>
<path d="M2882 12498 l-2 -38 -57 -2 -58 -2 53 -3 c38 -3 52 -8 52 -19 0 -27
-39 -92 -72 -119 -18 -15 -24 -22 -13 -17 27 14 59 50 80 92 26 51 37 59 96
63 l54 3 -62 2 -62 2 -4 38 -4 37 -1 -37z"/>
<path d="M3151 12508 c-1 -25 -5 -27 -48 -31 l-48 -3 48 -2 c41 -2 48 -5 43
-19 -2 -10 -8 -33 -11 -51 -4 -19 -21 -50 -38 -70 l-31 -37 32 29 c30 28 42
53 56 119 6 25 10 27 55 27 30 0 51 -5 54 -12 3 -8 6 -6 6 5 1 14 -8 17 -53
17 -52 0 -55 1 -59 28 l-4 27 -2 -27z"/>
<path d="M3481 12514 c0 -11 3 -14 6 -6 3 7 2 16 -1 19 -3 4 -6 -2 -5 -13z"/>
<path d="M4998 12428 c-2 -57 -2 -105 -1 -107 5 -8 83 32 83 42 0 5 -6 7 -12
4 -51 -21 -48 -26 -48 72 0 50 -4 91 -9 91 -5 0 -11 -46 -13 -102z"/>
<path d="M4700 12510 c0 -6 38 -10 95 -10 l96 0 -3 -97 -3 -98 -30 -6 c-30 -7
-29 -7 6 -8 46 -1 49 6 49 120 0 72 3 89 15 89 8 0 15 5 15 10 0 6 -47 10
-120 10 -73 0 -120 -4 -120 -10z"/>
<path d="M1496 12488 c-10 -14 -16 -44 -16 -78 0 -68 19 -100 60 -100 41 0 70
40 70 97 0 44 -13 82 -34 95 -23 16 -65 8 -80 -14z m84 -17 c5 -11 10 -38 10
-61 0 -53 -15 -80 -43 -80 -36 0 -47 19 -47 80 0 31 5 61 12 68 18 18 56 14
68 -7z"/>
<path d="M1663 12484 c-22 -35 -23 -112 0 -147 22 -34 65 -36 93 -6 14 16 19
36 19 79 0 43 -5 63 -19 79 -27 30 -71 28 -93 -5z m85 -19 c26 -56 6 -135 -33
-135 -33 0 -49 26 -49 80 0 27 6 55 13 64 21 25 56 20 69 -9z"/>
<path d="M1837 12492 c-18 -20 -23 -52 -8 -52 5 0 12 12 15 26 6 21 11 25 39
22 26 -2 33 -8 35 -29 2 -21 -7 -35 -46 -68 -27 -22 -52 -50 -55 -61 -5 -18 0
-20 59 -20 36 0 64 4 64 10 0 6 -24 10 -52 10 l-53 1 53 47 c42 38 52 53 52
79 0 51 -68 74 -103 35z"/>
<path d="M2002 12498 c-15 -15 -16 -60 -2 -74 8 -8 6 -15 -5 -24 -19 -16 -19
-54 1 -74 8 -9 32 -16 53 -16 62 0 91 51 54 93 -13 15 -15 21 -5 24 20 7 15
61 -7 73 -26 14 -74 13 -89 -2z m69 -8 c42 -23 9 -76 -39 -63 -27 7 -30 47 -4
62 21 13 20 13 43 1z m13 -96 c22 -22 20 -41 -8 -59 -33 -22 -76 -5 -76 29 0
41 54 61 84 30z"/>
<path d="M2166 12491 c-26 -29 -18 -82 17 -101 25 -14 30 -13 56 1 l29 17 -9
-32 c-15 -54 -56 -66 -86 -27 -18 25 -25 8 -7 -18 22 -30 70 -25 96 10 24 32
26 110 4 144 -21 31 -75 34 -100 6z m92 -40 c4 -28 -14 -51 -42 -51 -47 0 -63
57 -24 84 19 13 25 14 43 2 11 -7 21 -23 23 -35z"/>
<path d="M2341 12484 c-15 -19 -21 -41 -21 -78 0 -66 20 -96 64 -96 41 0 66
26 66 68 0 51 -60 81 -94 46 -15 -14 -16 -13 -16 6 0 54 56 83 86 43 7 -10 16
-15 20 -11 13 14 -28 48 -57 48 -18 0 -35 -9 -48 -26z m79 -78 c16 -21 9 -56
-15 -72 -41 -27 -88 39 -53 74 16 16 53 15 68 -2z"/>
<path d="M3880 12500 c0 -5 23 -10 50 -10 28 0 50 -4 50 -9 0 -5 -16 -46 -35
-90 -21 -51 -30 -81 -22 -81 10 0 40 66 83 183 5 15 -1 17 -60 17 -37 0 -66
-4 -66 -10z"/>
<path d="M4047 12458 c-2 -29 -3 -55 -1 -57 2 -2 15 1 28 8 51 28 86 2 72 -55
-5 -20 -13 -24 -41 -24 -22 0 -37 6 -44 17 -5 10 -13 15 -17 10 -14 -14 29
-47 61 -47 40 0 65 26 65 68 0 44 -25 65 -70 59 -35 -4 -36 -4 -32 24 4 27 7
29 53 29 27 0 49 5 49 10 0 6 -26 10 -59 10 l-58 0 -6 -52z"/>
<path d="M4370 12500 c0 -5 23 -10 50 -10 28 0 50 -4 50 -9 0 -5 -16 -46 -35
-90 -21 -51 -30 -81 -22 -81 10 0 40 66 83 183 5 15 -1 17 -60 17 -37 0 -66
-4 -66 -10z"/>
<path d="M4554 12489 c-28 -31 -27 -144 0 -165 28 -20 70 -17 91 6 51 57 -20
145 -77 93 -17 -15 -18 -15 -18 6 0 39 18 61 51 61 17 0 32 -6 35 -15 7 -16
24 -21 24 -6 0 19 -32 41 -59 41 -16 0 -36 -9 -47 -21z m75 -83 c7 -8 11 -27
9 -43 -2 -23 -8 -29 -35 -31 -27 -3 -35 1 -44 21 -22 49 37 93 70 53z"/>
<path d="M5057 12503 c-6 -11 50 -86 57 -75 3 6 -4 23 -16 38 -33 44 -35 46
-41 37z"/>
<path d="M5407 12493 c-8 -7 -10 -203 -2 -203 3 0 14 6 25 12 16 10 24 10 40
0 20 -12 20 -10 20 93 l0 105 -38 0 c-21 0 -42 -3 -45 -7z m71 -90 c-3 -77 -3
-78 -30 -81 l-28 -3 0 80 0 81 30 0 31 0 -3 -77z"/>
<path d="M3448 12482 c-24 -3 -28 -7 -27 -35 2 -30 2 -31 6 -4 2 15 10 27 18
27 8 0 16 -12 18 -27 l4 -28 2 28 c0 16 7 27 15 27 8 0 17 -12 19 -27 l4 -28
2 27 c1 19 7 28 24 30 30 5 -49 14 -85 10z"/>
<path d="M4730 12393 c1 -59 2 -66 14 -50 9 11 27 17 55 17 l41 0 0 50 0 50
-55 0 -55 0 0 -67z m88 15 c-3 -29 -7 -33 -35 -36 -32 -3 -33 -2 -33 32 0 35
1 36 36 36 34 0 35 -1 32 -32z"/>
<path d="M3252 12389 c-2 -59 -15 -85 -47 -92 -15 -3 -13 -5 8 -6 35 -1 49 32
44 103 l-3 51 -2 -56z"/>
<path d="M3349 12414 c-16 -17 -18 -23 -7 -19 14 6 17 -2 20 -52 3 -57 3 -57
8 20 3 42 5 77 4 77 0 0 -11 -11 -25 -26z"/>
<path d="M5592 12368 l3 -73 78 -3 c73 -3 78 -1 86 20 5 13 6 27 3 33 -3 5 -8
2 -10 -5 -7 -25 -34 -40 -73 -40 -63 0 -69 6 -69 66 l0 54 51 0 c49 0 50 -1
47 -27 -2 -19 -10 -29 -28 -34 -23 -7 -23 -7 6 -8 35 -1 44 12 44 60 l0 29
-70 0 -71 0 3 -72z"/>
<path d="M3448 12383 c23 -2 59 -2 80 0 20 2 1 4 -43 4 -44 0 -61 -2 -37 -4z"/>
<path d="M4210 12380 c0 -6 28 -10 65 -10 37 0 65 4 65 10 0 6 -28 10 -65 10
-37 0 -65 -4 -65 -10z"/>
<path d="M2957 12330 c18 -19 34 -32 36 -29 2 2 -12 17 -32 33 l-36 30 32 -34z"/>
<path d="M3406 12335 c-9 -26 -7 -32 5 -12 6 10 9 21 6 23 -2 3 -7 -2 -11 -11z"/>
<path d="M3451 12323 c-1 -32 0 -33 39 -33 22 0 40 4 40 8 0 4 -15 6 -34 4
-31 -4 -35 -1 -39 24 -4 28 -4 28 -6 -3z"/>
<path d="M3627 12333 c-4 -3 -2 -12 4 -20 9 -10 8 -17 -1 -28 -8 -10 -9 -15
-2 -15 16 0 35 39 28 56 -6 15 -18 18 -29 7z"/>
<path d="M1737 11764 c-21 -14 -43 -36 -49 -49 -6 -14 -15 -25 -20 -25 -4 0
-8 -211 -8 -469 0 -463 0 -470 21 -506 12 -20 39 -47 60 -61 l39 -24 564 0
565 0 3 63 3 62 95 0 95 0 3 -62 c3 -58 5 -63 26 -63 l23 0 -5 123 c-4 102 -2
125 11 135 10 9 45 12 113 10 l97 -3 -1 -134 c-1 -74 1 -131 4 -128 4 3 6 102
7 219 0 125 4 218 10 226 6 8 6 12 -2 12 -15 0 -14 37 2 44 10 5 10 7 0 12 -7
3 -13 14 -13 24 0 10 6 21 13 23 9 4 8 8 -3 16 -13 10 -13 12 0 22 11 8 12 12
3 16 -15 6 -17 43 -3 43 14 0 12 37 -2 43 -10 4 -9 8 2 16 13 10 13 12 0 20
-12 8 -11 13 8 29 27 24 28 32 2 32 -11 0 -20 5 -20 10 0 6 5 10 10 10 6 0 10
27 10 60 0 33 4 60 10 60 6 0 10 5 10 10 0 6 -9 10 -20 10 -11 0 -20 5 -20 10
0 6 5 10 10 10 6 0 10 26 10 59 0 38 5 61 13 65 10 5 10 7 0 12 -7 3 -13 14
-13 25 0 19 -18 19 -812 18 l-813 0 -38 -25z m811 -200 c21 -14 26 -33 23 -79
-1 -11 -27 -44 -59 -72 l-57 -53 63 0 c55 0 62 -2 62 -20 0 -19 -7 -20 -95
-20 -89 0 -95 1 -95 20 0 20 83 110 101 110 5 0 15 13 23 28 18 35 5 62 -30
62 -19 0 -29 -8 -37 -30 -8 -22 -18 -30 -35 -30 -21 0 -23 3 -17 28 18 72 87
97 153 56z m-498 -2 c0 -10 -20 -67 -44 -127 -39 -97 -47 -110 -70 -113 -14
-2 -26 -1 -26 3 0 3 18 48 40 100 22 52 40 96 40 99 0 4 -27 6 -60 6 -57 0
-60 1 -60 25 0 25 1 25 90 25 80 0 90 -2 90 -18z m190 -67 c0 -69 3 -85 15
-85 8 0 15 -9 15 -20 0 -11 -7 -20 -15 -20 -9 0 -15 -9 -15 -25 0 -20 -5 -25
-25 -25 -20 0 -25 5 -25 25 0 24 -2 25 -65 25 -61 0 -65 1 -65 23 0 12 29 59
65 105 51 63 71 82 90 82 25 0 25 -1 25 -85z m540 67 c0 -10 -20 -67 -44 -127
-39 -99 -47 -110 -71 -113 -32 -4 -31 -2 21 121 19 43 34 81 34 83 0 2 -27 4
-60 4 -57 0 -60 1 -60 25 0 25 1 25 90 25 80 0 90 -2 90 -18z m-432 -194 c16
-16 15 -23 -4 -42 -12 -12 -20 -13 -35 -6 -10 6 -19 16 -19 23 0 16 20 37 35
37 6 0 16 -5 23 -12z m-172 -256 c6 -4 17 -18 23 -30 19 -35 -2 -76 -58 -115
l-46 -32 58 -3 c42 -2 57 -7 57 -17 0 -12 -16 -15 -75 -15 -95 0 -97 13 -19
85 43 40 55 58 52 76 -5 36 -54 39 -70 5 -12 -27 -38 -36 -38 -12 0 7 9 25 21
40 20 26 69 36 95 18z m254 -2 c38 -20 52 -117 25 -170 -60 -116 -182 0 -135
127 19 49 65 67 110 43z m190 -65 c0 -68 2 -75 20 -75 11 0 20 -7 20 -15 0 -8
-9 -15 -20 -15 -13 0 -20 -7 -20 -20 0 -11 -7 -20 -15 -20 -8 0 -15 9 -15 20
0 17 -7 20 -50 20 -35 0 -52 5 -56 14 -7 18 103 166 122 166 11 0 14 -18 14
-75z m142 58 c27 -25 24 -79 -7 -99 -23 -15 -27 -15 -50 0 -19 12 -25 25 -25
51 0 57 44 83 82 48z m59 -95 c-34 -64 -67 -114 -77 -116 -20 -5 -22 -11 49
121 35 63 64 107 73 107 11 0 -2 -32 -45 -112z m97 0 c16 -16 16 -80 0 -96
-19 -19 -66 -15 -78 7 -24 47 -4 101 38 101 16 0 33 -5 40 -12z m-888 -33 c0
-12 -16 -15 -80 -15 -64 0 -80 3 -80 15 0 12 16 15 80 15 64 0 80 -3 80 -15z
m248 -58 c2 -12 -3 -17 -17 -17 -12 0 -21 6 -21 13 0 31 32 34 38 4z"/>
<path d="M2148 11463 l-37 -48 35 -3 c20 -2 38 -1 41 1 2 3 3 26 1 51 l-3 47
-37 -48z"/>
<path d="M2363 11078 c-17 -22 -23 -74 -12 -111 17 -61 62 -59 79 4 16 60 -4
119 -40 119 -10 0 -22 -6 -27 -12z"/>
<path d="M2552 11020 l-33 -45 31 -3 c18 -2 34 -1 37 1 2 3 3 24 1 48 l-3 44
-33 -45z"/>
<path d="M2714 11076 c-9 -23 0 -51 16 -51 10 0 15 10 15 29 0 32 -21 47 -31
22z"/>
<path d="M2871 10986 c-16 -20 -10 -61 9 -61 9 0 16 11 18 29 4 35 -10 52 -27
32z"/>
<path d="M4090 11555 c0 -23 -3 -25 -50 -25 l-50 0 0 -65 c0 -37 4 -65 10 -65
6 0 10 5 10 10 0 6 18 10 40 10 l40 0 0 -50 c0 -27 5 -50 10 -50 6 0 10 23 10
50 l0 50 40 0 c22 0 40 -4 40 -10 0 -5 5 -10 10 -10 6 0 10 28 10 65 l0 65
-50 0 c-47 0 -50 2 -50 25 0 14 -4 25 -10 25 -5 0 -10 -11 -10 -25z m0 -85 l0
-40 -40 0 -40 0 0 40 0 40 40 0 40 0 0 -40z m100 0 l0 -40 -40 0 -40 0 0 40 0
40 40 0 40 0 0 -40z"/>
<path d="M4368 11543 l-3 -38 -55 -6 -55 -6 53 -1 c28 -1 52 -7 52 -12 0 -27
-31 -78 -64 -108 -21 -18 -36 -38 -34 -44 6 -17 96 76 104 106 8 34 19 33 33
-3 15 -34 88 -108 98 -98 4 4 -3 15 -16 23 -31 22 -81 93 -81 115 0 15 10 19
53 22 l52 3 -57 2 -58 2 0 40 c0 51 -18 53 -22 3z"/>
<path d="M4640 11551 c0 -30 -1 -31 -46 -31 -27 0 -43 -4 -39 -10 3 -5 22 -10
41 -10 28 0 34 -4 34 -20 0 -37 -30 -94 -63 -122 -21 -18 -27 -28 -16 -28 34
0 99 97 99 150 0 17 6 20 45 20 l45 0 0 -52 c0 -78 -8 -97 -44 -107 l-31 -9
37 -1 c35 -1 38 2 47 37 6 20 11 63 11 95 l0 57 -50 0 c-46 0 -50 2 -50 24 0
14 -4 28 -10 31 -6 4 -10 -7 -10 -24z"/>
<path d="M4842 11540 c-18 -22 -29 -40 -24 -40 14 0 62 51 62 66 0 19 -1 19
-38 -26z"/>
<path d="M4970 11572 c0 -7 -14 -12 -35 -12 -19 0 -35 -4 -35 -10 0 -5 14 -10
30 -10 17 0 30 -4 30 -10 0 -5 -11 -10 -25 -10 -22 0 -25 -4 -25 -35 l0 -35
70 0 70 0 0 35 c0 33 -2 35 -35 35 -19 0 -35 5 -35 10 0 6 18 10 40 10 22 0
40 5 40 10 0 6 -15 10 -33 10 -18 0 -38 5 -45 12 -9 9 -12 9 -12 0z m-20 -87
c0 -8 -7 -15 -15 -15 -8 0 -15 7 -15 15 0 8 7 15 15 15 8 0 15 -7 15 -15z m40
0 c0 -8 -7 -15 -15 -15 -8 0 -15 7 -15 15 0 8 7 15 15 15 8 0 15 -7 15 -15z
m50 0 c0 -8 -7 -15 -15 -15 -8 0 -15 7 -15 15 0 8 7 15 15 15 8 0 15 -7 15
-15z"/>
<path d="M4848 11466 c-31 -38 -37 -56 -13 -36 13 11 15 5 15 -49 0 -34 4 -61
10 -61 6 0 10 30 10 71 0 39 5 79 10 90 17 31 -3 22 -32 -15z"/>
<path d="M4938 11423 c23 -2 61 -2 85 0 23 2 4 4 -43 4 -47 0 -66 -2 -42 -4z"/>
<path d="M4892 11370 c-6 -16 -7 -32 -2 -35 4 -3 13 8 18 25 6 16 7 32 2 35
-4 3 -13 -8 -18 -25z"/>
<path d="M4941 11368 c-1 -38 -1 -38 38 -38 38 0 61 14 46 28 -3 3 -10 1 -14
-7 -5 -7 -19 -11 -32 -9 -17 2 -26 11 -30 33 -6 29 -7 29 -8 -7z"/>
<path d="M4980 11385 c7 -8 17 -15 22 -15 6 0 5 7 -2 15 -7 8 -17 15 -22 15
-6 0 -5 -7 2 -15z"/>
<path d="M5041 11370 c6 -16 15 -28 20 -25 9 6 -10 55 -22 55 -4 0 -3 -13 2
-30z"/>
<path d="M3035 9908 c-2 -7 -9 -30 -15 -50 -10 -33 -15 -38 -43 -38 -54 0 -58
-9 -55 -96 l3 -79 111 -3 c132 -3 135 -1 154 87 17 81 12 91 -48 91 l-48 0 4
35 c2 19 -1 42 -8 50 -15 18 -49 20 -55 3z m45 -17 c5 -11 7 -33 4 -50 -6 -31
-6 -31 37 -31 69 0 73 -6 54 -81 -9 -35 -22 -67 -28 -71 -7 -4 -45 -8 -84 -8
l-73 0 0 75 c0 66 3 77 25 99 14 14 25 36 25 49 0 40 22 50 40 18z m-110 -167
c0 -66 -2 -75 -17 -72 -14 3 -19 15 -21 62 -4 68 1 86 23 86 12 0 15 -14 15
-76z"/>
<path d="M6703 9880 c-83 -50 -82 -171 2 -226 40 -26 119 -15 157 23 80 80 21
223 -92 223 -19 0 -49 -9 -67 -20z m154 -34 c71 -77 18 -196 -87 -196 -92 0
-145 89 -104 175 35 73 133 84 191 21z"/>
<path d="M6743 9814 c9 -12 17 -23 17 -27 0 -3 -8 -8 -17 -10 -17 -4 -17 -5 0
-6 9 0 17 -5 17 -10 0 -5 -8 -12 -17 -14 -17 -4 -17 -5 0 -6 10 -1 17 -9 17
-21 0 -11 5 -20 10 -20 6 0 10 9 10 19 0 12 8 21 23 24 l22 4 -22 2 c-27 1
-30 18 -5 24 16 4 16 5 0 6 -10 0 -18 4 -18 8 0 3 8 16 18 27 17 21 17 21 -4
4 -19 -16 -22 -17 -45 -1 -24 16 -24 16 -6 -3z"/>
<path d="M1444 9867 c-3 -8 -3 -56 -2 -108 l3 -94 105 0 105 0 1 50 1 50 -4
-47 -4 -48 -100 0 -99 0 0 99 0 100 53 4 52 3 -53 2 c-36 1 -54 -2 -58 -11z"/>
<path d="M1620 9871 c14 -4 27 -17 31 -31 6 -23 7 -22 8 8 1 30 -1 32 -31 31
-30 -1 -31 -2 -8 -8z"/>
<path d="M1903 9856 c-4 -7 -15 -16 -23 -19 -12 -4 -12 -6 2 -6 15 -1 16 -5 8
-27 -14 -36 -13 -44 10 -44 30 0 25 -34 -7 -48 l-28 -12 28 5 c24 5 27 2 28
-22 2 -27 2 -27 6 -3 3 13 12 30 21 37 16 12 16 13 0 7 -13 -5 -18 -1 -18 14
0 11 8 23 18 25 15 4 15 5 0 6 -9 0 -19 11 -21 24 l-4 22 -2 -22 c0 -13 -8
-23 -16 -23 -18 0 -18 1 -6 34 7 16 20 26 38 29 l28 4 -29 2 c-21 1 -27 5 -22
16 7 19 0 20 -11 1z"/>
<path d="M2013 9856 c-4 -8 -17 -16 -28 -19 -18 -4 -18 -5 3 -6 12 0 22 -6 22
-11 0 -6 -10 -15 -22 -20 -18 -7 -19 -9 -5 -9 13 -1 16 -7 11 -26 -6 -23 -4
-25 30 -25 20 0 36 -4 36 -9 0 -17 -29 -33 -50 -26 -30 10 -24 -1 15 -24 19
-11 35 -16 35 -11 0 4 -5 10 -12 12 -8 3 -5 14 11 34 l23 29 -41 3 c-23 2 -41
6 -41 10 1 19 19 31 55 35 l40 4 -42 1 c-32 2 -41 5 -37 16 3 8 20 17 37 19
l32 4 -34 1 c-25 2 -32 6 -27 17 7 19 0 20 -11 1z"/>
<path d="M2200 9845 c0 -20 -5 -25 -26 -25 -21 0 -25 4 -21 20 3 11 2 18 -3
15 -4 -3 -10 -14 -13 -25 -4 -16 0 -20 17 -20 13 0 25 -3 29 -6 10 -10 -21
-76 -51 -108 -15 -16 -20 -27 -12 -24 8 2 26 21 39 41 l24 37 24 -22 c26 -24
27 -21 -24 -55 -10 -7 -1 -5 20 4 35 16 39 16 73 -1 20 -9 39 -15 41 -12 3 3
-11 13 -30 22 l-36 17 20 25 c28 36 24 42 -27 42 -38 0 -45 3 -42 18 2 13 17
18 63 23 l60 6 -59 1 c-57 2 -58 3 -54 27 3 14 1 25 -3 25 -5 0 -9 -11 -9 -25z
m68 -107 c-9 -13 -21 -23 -28 -23 -7 0 -19 10 -27 23 -15 22 -15 22 27 22 42
0 42 0 28 -22z"/>
<path d="M2275 9850 c10 -11 20 -20 23 -20 3 0 -3 9 -13 20 -10 11 -20 20 -23
20 -3 0 3 -9 13 -20z"/>
<path d="M3510 9838 c0 -35 -2 -38 -30 -38 -28 0 -30 -3 -30 -35 l0 -35 75 0
75 0 0 35 c0 34 -1 35 -40 35 -33 0 -40 3 -40 20 0 17 7 20 48 22 l47 1 -45 4
c-24 3 -48 10 -52 16 -4 7 -8 -5 -8 -25z m80 -73 c0 -24 -2 -25 -65 -25 -63 0
-65 1 -65 25 0 24 2 25 65 25 63 0 65 -1 65 -25z"/>
<path d="M3670 9855 c-8 -9 -8 -15 -2 -15 12 0 26 19 19 26 -2 2 -10 -2 -17
-11z"/>
<path d="M3709 9863 c-1 -5 -2 -14 -3 -21 0 -7 -5 -16 -11 -20 -17 -12 -36
-52 -25 -52 6 0 15 11 20 25 6 15 15 23 23 19 10 -4 13 3 9 26 -4 28 -11 39
-13 23z"/>
<path d="M3809 9864 c-1 -5 -1 -13 0 -17 1 -5 -8 -22 -19 -38 -12 -16 -17 -29
-12 -29 5 0 14 10 19 23 l11 22 10 -25 c10 -22 11 -20 8 18 -3 38 -14 69 -17
46z"/>
<path d="M7131 9853 c-1 -14 -9 -23 -23 -26 l-23 -4 23 -2 c18 -1 22 -7 22
-31 0 -22 -6 -33 -22 -41 l-23 -10 23 5 c20 4 22 0 22 -34 0 -28 -5 -40 -17
-43 -14 -4 -12 -5 5 -6 20 -1 22 4 22 43 0 34 5 47 23 59 l22 16 -22 -6 c-19
-4 -23 -1 -23 20 0 16 7 27 18 30 15 4 15 5 0 6 -9 0 -19 11 -21 24 -4 22 -4
22 -6 0z"/>
<path d="M7376 9855 c4 -8 10 -15 15 -15 4 0 6 7 3 15 -4 8 -10 15 -15 15 -4
0 -6 -7 -3 -15z"/>
<path d="M7430 9855 c0 -8 4 -15 10 -15 5 0 7 7 4 15 -4 8 -8 15 -10 15 -2 0
-4 -7 -4 -15z"/>
<path d="M7480 9855 c-10 -12 -10 -15 2 -15 8 0 15 7 15 15 0 8 -1 15 -2 15
-2 0 -8 -7 -15 -15z"/>
<path d="M8844 9843 c-9 -15 -27 -35 -38 -45 -12 -10 -16 -17 -10 -18 14 0 74
66 74 80 0 16 -7 12 -26 -17z"/>
<path d="M8921 9863 c-1 -15 57 -83 71 -83 6 0 -3 13 -18 28 -16 15 -34 36
-41 47 -6 11 -12 15 -12 8z"/>
<path d="M9120 9862 c0 -6 -21 -13 -47 -15 -27 -2 2 -3 62 -3 61 0 88 1 60 3
-27 3 -55 9 -62 15 -9 7 -13 7 -13 0z"/>
<path d="M1570 9800 c-36 -33 -60 -59 -55 -60 6 0 37 27 70 60 33 33 57 60 55
60 -3 -1 -34 -27 -70 -60z"/>
<path d="M3765 9850 c-3 -5 -2 -10 4 -10 5 0 13 5 16 10 3 6 2 10 -4 10 -5 0
-13 -4 -16 -10z"/>
<path d="M8478 9830 c-3 -16 -1 -30 3 -30 4 0 9 12 11 26 l3 26 43 -38 43 -39
-45 -45 c-46 -44 -46 -44 -46 -17 0 25 -3 27 -38 27 -21 0 -48 -7 -60 -16 -31
-22 -35 -14 -12 24 12 19 32 35 52 41 25 7 28 9 11 10 -32 1 -82 -48 -90 -89
l-6 -35 32 28 c22 18 44 27 67 27 30 0 34 -3 34 -25 0 -14 4 -25 8 -25 4 0 29
22 55 48 l47 48 -43 42 c-23 23 -48 42 -54 42 -6 0 -13 -13 -15 -30z"/>
<path d="M3986 9834 c-9 -8 -16 -20 -16 -27 0 -6 9 -1 21 12 12 12 28 20 36
17 8 -3 17 -6 19 -6 2 0 4 -11 4 -24 0 -13 -17 -43 -40 -69 -22 -25 -40 -48
-40 -51 0 -3 23 -6 50 -6 57 0 68 17 14 22 l-37 3 37 43 c20 24 36 50 36 57 0
20 -28 45 -50 45 -10 0 -26 -7 -34 -16z"/>
<path d="M4110 9840 c0 -5 21 -10 46 -10 l46 0 -41 -75 c-23 -41 -38 -75 -34
-75 9 0 83 141 83 158 0 8 -18 12 -50 12 -27 0 -50 -4 -50 -10z"/>
<path d="M4265 9834 c-9 -9 -14 -19 -11 -21 3 -3 12 2 21 11 20 20 29 20 49 1
20 -20 11 -41 -22 -54 -23 -8 -24 -10 -6 -10 24 -1 54 28 54 52 0 17 -29 37
-54 37 -8 0 -22 -7 -31 -16z"/>
<path d="M7218 9843 l32 -4 0 -84 c0 -79 -1 -84 -22 -88 -20 -5 -20 -5 2 -4
24 2 25 4 28 89 3 80 4 87 25 91 12 2 -5 4 -38 4 -33 0 -45 -2 -27 -4z"/>
<path d="M7666 9831 c-25 -28 -24 -108 2 -134 31 -31 69 -16 82 31 23 86 -35
157 -84 103z m58 -7 c30 -30 14 -134 -21 -134 -4 0 -15 7 -25 17 -23 21 -24
89 -1 115 20 22 27 22 47 2z"/>
<path d="M9367 9835 c-40 -39 -27 -140 19 -151 41 -10 64 19 64 81 0 73 -44
110 -83 70z m57 -17 c30 -42 10 -128 -29 -128 -34 0 -49 104 -19 134 21 21 30
20 48 -6z"/>
<path d="M7340 9820 c0 -11 2 -20 4 -20 2 0 6 9 9 20 3 11 1 20 -4 20 -5 0 -9
-9 -9 -20z"/>
<path d="M7522 9820 c0 -14 2 -19 5 -12 2 6 2 18 0 25 -3 6 -5 1 -5 -13z"/>
<path d="M9070 9800 c0 -18 7 -20 65 -20 58 0 65 2 65 20 0 18 -7 20 -65 20
-58 0 -65 -2 -65 -20z m120 0 c0 -5 -25 -10 -55 -10 -30 0 -55 5 -55 10 0 6
25 10 55 10 30 0 55 -4 55 -10z"/>
<path d="M7381 9794 c0 -11 3 -14 6 -6 3 7 2 16 -1 19 -3 4 -6 -2 -5 -13z"/>
<path d="M7481 9794 c0 -11 3 -14 6 -6 3 7 2 16 -1 19 -3 4 -6 -2 -5 -13z"/>
<path d="M3718 9783 c7 -3 16 -2 19 1 4 3 -2 6 -13 5 -11 0 -14 -3 -6 -6z"/>
<path d="M8843 9773 c15 -2 27 -9 27 -14 0 -21 -31 -69 -51 -80 -11 -6 -18
-13 -15 -17 10 -9 57 40 72 76 12 26 20 32 44 32 27 0 30 -3 30 -33 0 -41 -17
-64 -50 -70 -21 -4 -19 -5 8 -6 26 -1 34 4 42 25 6 14 10 41 10 60 l0 34 -72
-1 c-40 -1 -61 -4 -45 -6z"/>
<path d="M3691 9728 c2 -31 2 -31 6 -5 4 26 7 27 63 27 56 0 59 -1 63 -27 4
-26 4 -26 6 5 l1 32 -70 0 -70 0 1 -32z"/>
<path d="M4337 9738 c3 -15 -2 -30 -12 -38 -15 -12 -21 -12 -46 2 -16 10 -29
13 -29 8 0 -16 41 -32 66 -26 33 9 51 44 31 63 -13 13 -14 12 -10 -9z"/>
<path d="M9115 9753 c48 -3 65 -7 55 -13 -8 -5 -10 -10 -4 -10 5 0 19 7 30 15
17 13 11 14 -66 13 l-85 -2 70 -3z"/>
<path d="M7372 9720 c0 -19 2 -27 5 -17 2 9 2 25 0 35 -3 9 -5 1 -5 -18z"/>
<path d="M7498 9725 c2 -14 6 -25 8 -25 2 0 4 11 4 25 0 14 -4 25 -9 25 -4 0
-6 -11 -3 -25z"/>
<path d="M3740 9706 c-12 -14 -37 -28 -54 -32 -17 -4 -26 -9 -19 -11 19 -7 81
24 93 46 14 28 9 26 -20 -3z"/>
<path d="M7431 9718 c-1 -22 -39 -48 -70 -48 -13 0 -22 -3 -18 -6 3 -4 22 -3
41 0 36 7 62 36 52 59 -2 7 -5 5 -5 -5z"/>
<path d="M9134 9721 c-5 -6 -31 -12 -59 -14 l-50 -3 53 -2 c38 -2 52 -6 52
-16 0 -8 -10 -17 -22 -19 -20 -4 -19 -4 5 -6 21 -1 27 4 27 19 0 17 7 20 53
22 l52 1 -45 4 c-24 3 -47 9 -50 14 -4 5 -10 5 -16 0z"/>
<path d="M3430 9689 c-7 -11 -10 -23 -7 -25 2 -2 9 7 15 21 14 30 7 33 -8 4z"/>
<path d="M3481 9705 c1 -19 18 -51 18 -35 0 8 -4 22 -9 30 -5 8 -9 11 -9 5z"/>
<path d="M3537 9690 c3 -11 9 -22 13 -25 5 -3 6 4 3 15 -3 11 -9 22 -13 25 -5
3 -6 -4 -3 -15z"/>
<path d="M3591 9705 c0 -5 6 -19 14 -29 8 -11 15 -15 15 -10 0 6 -7 19 -15 30
-8 10 -14 15 -14 9z"/>
<path d="M3810 9675 c46 -18 64 -17 25 0 -16 8 -37 14 -45 14 -8 0 1 -7 20
-14z"/>
<path d="M7480 9675 c46 -18 64 -17 25 0 -16 8 -37 14 -45 14 -8 0 1 -7 20
-14z"/>
<path d="M705 9036 c-12 -9 -32 -12 -52 -9 -41 7 -158 -48 -221 -102 -39 -34
-102 -114 -102 -131 0 -3 18 -4 40 -1 39 5 76 30 66 45 -8 13 27 27 69 27 30
0 42 -5 50 -21 9 -18 12 -19 24 -7 20 22 36 10 34 -25 -1 -26 3 -33 23 -38 13
-3 24 -10 24 -15 0 -6 -9 -5 -20 1 -23 12 -22 13 -25 -17 -1 -12 2 -20 7 -17
17 11 58 -6 58 -24 0 -11 -3 -13 -8 -6 -4 6 -18 10 -32 9 -14 -1 -33 5 -43 13
-16 15 -17 14 -11 -2 6 -16 4 -17 -13 -7 -16 8 -22 8 -26 -3 -3 -7 -27 -16
-53 -19 -27 -3 -53 -12 -59 -21 -7 -9 -17 -16 -24 -16 -6 0 -11 -6 -11 -12 -1
-7 -6 -2 -13 12 -7 14 -16 26 -22 25 -17 -1 -53 -37 -49 -49 3 -7 -5 -22 -16
-34 -11 -12 -17 -22 -13 -22 4 0 0 -6 -9 -14 -26 -19 -7 -131 37 -224 146
-308 554 -376 795 -133 106 107 158 242 146 379 -4 40 -12 85 -18 100 -6 15
-12 37 -14 50 -8 62 -106 184 -189 237 -50 32 -135 69 -135 60 0 -3 11 -23 25
-45 14 -22 23 -40 20 -40 -3 0 17 -22 45 -50 28 -27 53 -50 56 -50 7 0 31 -20
56 -47 12 -13 28 -23 36 -23 8 0 12 -6 8 -15 -6 -17 30 -41 54 -36 8 2 12 0 8
-5 -4 -4 0 -13 10 -20 11 -9 13 -13 4 -14 -7 0 -10 -5 -7 -10 4 -6 3 -10 -2
-9 -20 3 -34 -2 -28 -11 3 -5 1 -10 -4 -10 -6 0 -11 -6 -11 -13 0 -9 -10 -12
-31 -9 -22 3 -30 1 -25 -7 4 -6 0 -18 -8 -27 -9 -9 -14 -20 -11 -24 3 -5 -5
-16 -18 -25 -22 -14 -27 -14 -53 0 -16 8 -28 17 -26 20 10 21 -2 22 -23 1 -14
-14 -25 -31 -25 -37 0 -7 -6 -4 -14 6 -13 18 -11 21 16 34 16 8 25 17 20 20
-5 4 -5 20 0 40 7 25 12 31 21 22 16 -16 27 -14 20 5 -4 11 -15 15 -33 12 -22
-3 -27 -1 -22 11 3 8 1 12 -4 8 -16 -10 -62 39 -69 75 -4 18 -15 38 -25 45 -9
7 -23 26 -30 43 -11 25 -10 34 5 56 16 25 16 27 -4 41 -21 14 -29 43 -11 43 5
0 16 13 24 29 15 28 15 29 -16 35 -51 10 -103 7 -123 -8z m-135 -382 c0 -8
-19 -13 -24 -6 -3 5 1 9 9 9 8 0 15 -2 15 -3z m-185 -34 c3 -5 1 -10 -4 -10
-6 0 -11 5 -11 10 0 6 2 10 4 10 3 0 8 -4 11 -10z m10 -30 c-13 -14 -14 -20
-5 -20 7 0 11 -2 8 -5 -3 -3 -12 -3 -21 1 -15 5 -14 8 6 25 29 24 35 24 12 -1z
m281 -66 c19 -15 19 -15 -1 -6 -11 5 -27 12 -35 15 -13 5 -13 6 1 6 8 1 24 -6
35 -15z"/>
<path d="M2855 8935 c-68 -24 -103 -91 -83 -161 35 -130 221 -129 256 0 30
107 -68 197 -173 161z m23 -77 c-4 -20 11 -68 21 -68 12 0 25 56 16 70 -4 6 6
10 24 10 17 0 31 -4 31 -10 0 -5 -4 -10 -9 -10 -4 0 -18 -27 -30 -60 -12 -33
-26 -60 -31 -60 -8 0 -70 122 -70 136 0 2 11 4 25 4 15 0 25 -5 23 -12z"/>
<path d="M1585 8930 c-3 -5 -26 -10 -51 -10 -62 0 -55 -20 9 -22 l52 -2 -47
-3 c-58 -5 -64 -23 -8 -23 22 0 40 -4 40 -10 0 -5 -22 -10 -50 -10 -27 0 -50
-4 -50 -10 0 -6 47 -10 120 -10 73 0 120 4 120 10 0 6 -22 10 -50 10 -27 0
-50 5 -50 10 0 6 18 10 40 10 56 0 50 18 -7 23 l-48 3 53 2 c63 2 70 22 8 22
-25 0 -48 5 -51 10 -3 6 -10 10 -15 10 -5 0 -12 -4 -15 -10z"/>
<path d="M1780 8915 c0 -12 18 -15 100 -15 82 0 100 3 100 15 0 12 -18 15
-100 15 -82 0 -100 -3 -100 -15z"/>
<path d="M2040 8810 c0 -82 3 -100 15 -100 10 0 15 10 15 30 0 17 4 30 10 30
5 0 19 -13 32 -30 12 -16 30 -30 41 -30 17 0 17 2 -5 31 -13 17 -27 37 -32 44
-7 9 -1 21 20 39 25 22 26 25 10 26 -11 0 -33 -12 -48 -27 l-28 -27 0 57 c0
44 -3 57 -15 57 -12 0 -15 -18 -15 -100z"/>
<path d="M2196 8901 c-7 -11 18 -33 27 -24 4 3 7 12 7 20 0 15 -26 18 -34 4z"/>
<path d="M2321 8851 c-7 -5 -22 -6 -32 -4 -17 5 -19 -1 -19 -66 0 -56 3 -71
15 -71 11 0 15 12 15 44 0 59 8 76 35 76 27 0 35 -17 35 -76 0 -32 4 -44 15
-44 25 0 21 104 -5 130 -22 22 -37 25 -59 11z"/>
<path d="M2470 8853 c-25 -9 -40 -35 -40 -69 0 -47 25 -67 73 -61 31 4 37 3
33 -10 -3 -8 -6 -19 -6 -24 0 -13 -54 -11 -68 3 -14 14 -27 4 -19 -16 8 -21
54 -31 83 -17 32 14 44 48 44 126 0 64 0 64 -27 63 -16 -1 -35 1 -43 5 -8 3
-22 3 -30 0z m59 -45 c12 -33 -2 -63 -29 -63 -29 0 -45 25 -36 58 8 35 53 38
65 5z"/>
<path d="M1750 8835 c0 -11 12 -15 45 -15 25 0 45 -2 45 -5 0 -9 -32 -58 -54
-83 -32 -36 -12 -44 85 -34 71 8 86 7 96 -6 25 -30 26 15 2 58 -29 50 -54 50
-34 -1 5 -14 -4 -18 -50 -24 -31 -3 -59 -5 -61 -2 -3 2 8 25 23 50 l28 46 68
1 c53 0 67 3 67 15 0 13 -21 15 -130 15 -109 0 -130 -2 -130 -15z"/>
<path d="M2200 8780 c0 -56 3 -70 15 -70 12 0 15 14 15 70 0 56 -3 70 -15 70
-12 0 -15 -14 -15 -70z"/>
<path d="M1510 8750 c0 -66 15 -98 22 -47 3 20 10 22 62 25 32 2 64 -2 69 -7
8 -8 4 -11 -11 -11 -12 0 -22 -4 -22 -9 0 -16 19 -23 40 -16 17 5 20 15 20 71
l0 64 -90 0 -90 0 0 -70z m155 40 c4 -6 -20 -10 -65 -10 -45 0 -69 4 -65 10 3
6 33 10 65 10 32 0 62 -4 65 -10z m-27 -37 c-21 -2 -55 -2 -75 0 -21 2 -4 4
37 4 41 0 58 -2 38 -4z"/>
<path d="M985 8610 c3 -5 10 -10 16 -10 5 0 9 5 9 10 0 6 -7 10 -16 10 -8 0
-12 -4 -9 -10z"/>
<path d="M5073 7781 c-27 -69 -28 -78 -8 -61 13 11 15 2 17 -66 1 -77 2 -76 8
31 4 61 11 120 15 133 4 12 3 22 -1 22 -5 0 -19 -27 -31 -59z"/>
<path d="M5182 7813 c-2 -31 -5 -33 -37 -33 -19 0 -35 -4 -35 -10 0 -5 16 -10
35 -10 l35 0 0 -76 c0 -67 -2 -76 -20 -81 -20 -5 -28 -23 -11 -23 36 0 41 12
41 96 0 68 3 84 15 84 8 0 15 5 15 10 0 6 -6 10 -14 10 -9 0 -16 13 -19 33
l-4 32 -1 -32z"/>
<path d="M6288 7834 c-5 -4 -8 -23 -8 -43 0 -64 -20 -114 -61 -153 -21 -21
-39 -40 -39 -43 0 -15 24 -1 60 35 l39 39 24 -40 c14 -23 27 -37 30 -32 3 5
-7 29 -22 52 -25 37 -28 48 -19 77 10 39 7 120 -4 108z"/>
<path d="M6400 7811 c0 -20 -6 -31 -17 -34 -17 -4 -17 -5 0 -6 22 -1 24 -66 2
-75 -8 -3 -15 -10 -15 -15 0 -6 7 -8 15 -5 12 5 15 -2 15 -34 0 -30 -4 -42
-17 -45 -11 -3 -7 -5 10 -6 26 -1 27 1 27 46 0 30 6 53 18 66 16 19 16 20 0
14 -15 -5 -18 -1 -18 23 0 17 5 30 12 30 9 0 9 3 0 12 -7 7 -12 22 -12 35 0
13 -4 23 -10 23 -5 0 -10 -13 -10 -29z"/>
<path d="M6520 7826 c0 -8 -12 -17 -27 -19 -16 -2 -5 -5 24 -6 47 -1 51 -3 46
-22 -9 -32 -33 -35 -55 -8 -20 24 -20 24 -15 2 4 -18 1 -23 -14 -23 -10 0 -19
-4 -19 -10 0 -6 32 -10 75 -10 43 0 75 4 75 10 0 6 -8 10 -19 10 -14 0 -17 6
-14 24 3 14 13 27 22 29 9 3 1 5 -17 6 -19 1 -35 7 -38 16 -8 19 -24 20 -24 1z"/>
<path d="M7236 7811 c-13 -24 -18 -60 -19 -133 -2 -90 1 -97 17 -45 9 28 26
20 26 -13 0 -27 3 -30 30 -30 l30 0 0 90 c0 74 -3 90 -15 90 -12 0 -13 4 -5
19 14 28 13 31 -14 31 -13 0 -26 6 -29 13 -2 6 -12 -3 -21 -22z m42 -23 c-3
-7 -15 -15 -28 -16 -21 -3 -22 -2 -11 12 16 19 44 21 39 4z m-18 -48 c0 -11
-4 -20 -10 -20 -5 0 -10 9 -10 20 0 11 5 20 10 20 6 0 10 -9 10 -20z m48 -3
c2 -10 -3 -17 -12 -17 -10 0 -16 9 -16 21 0 24 23 21 28 -4z m-48 -52 c0 -8
-4 -15 -10 -15 -5 0 -10 7 -10 15 0 8 5 15 10 15 6 0 10 -7 10 -15z m50 0 c0
-8 -7 -15 -15 -15 -8 0 -15 7 -15 15 0 8 7 15 15 15 8 0 15 -7 15 -15z m-2
-57 c-5 -32 -28 -35 -28 -4 0 17 5 26 16 26 10 0 14 -7 12 -22z"/>
<path d="M7534 7823 c3 -19 0 -23 -20 -23 -13 0 -24 -4 -24 -10 0 -5 7 -10 15
-10 10 0 15 -10 15 -33 0 -18 -7 -59 -15 -90 -18 -71 -18 -77 0 -53 8 11 18
41 21 68 5 38 10 48 25 48 16 0 19 -8 19 -55 0 -48 -3 -57 -22 -65 l-23 -9 22
0 c29 -1 43 27 43 88 0 47 -2 50 -27 53 -20 2 -28 9 -28 23 0 15 8 21 33 23
34 3 45 22 13 22 -10 0 -26 10 -35 23 l-17 22 5 -22z"/>
<path d="M7628 7798 c-8 -24 -19 -52 -23 -62 -7 -15 -5 -18 7 -14 11 5 20 -4
31 -33 16 -39 16 -39 -14 -61 -28 -21 -38 -38 -20 -38 4 0 19 11 33 25 l25 25
23 -25 c13 -14 30 -25 39 -25 10 0 5 11 -17 33 -31 32 -31 33 -17 72 8 22 14
50 15 63 0 12 5 22 10 22 6 0 10 5 10 10 0 6 -18 10 -41 10 -36 0 -40 2 -34
20 13 40 -13 19 -27 -22z m62 -42 c0 -14 -5 -37 -11 -53 l-11 -28 -13 25 c-8
14 -14 37 -15 53 0 22 4 27 25 27 20 0 25 -5 25 -24z"/>
<path d="M8143 7820 c-4 -16 -14 -20 -49 -20 -53 0 -59 -18 -8 -22 l37 -3 -37
-48 c-41 -54 -44 -62 -16 -47 19 10 20 8 20 -45 0 -30 5 -55 10 -55 6 0 10 30
10 71 0 49 5 80 17 100 17 28 20 29 95 29 45 0 78 4 78 10 0 6 -30 10 -71 10
-66 0 -71 1 -66 20 3 11 1 20 -5 20 -5 0 -12 -9 -15 -20z"/>
<path d="M8370 7815 c0 -18 -5 -25 -20 -25 -11 0 -20 -4 -20 -10 0 -5 9 -10
20 -10 16 0 20 -7 20 -34 0 -25 -5 -35 -20 -39 -11 -3 -20 -10 -20 -15 0 -6 9
-8 20 -5 18 5 20 0 20 -35 0 -30 -4 -42 -17 -45 -11 -3 -7 -5 10 -6 26 -1 27
1 27 48 0 39 5 52 23 65 l22 17 -22 -5 c-20 -3 -23 0 -23 24 0 22 5 30 23 33
l22 4 -22 8 c-15 5 -23 15 -23 31 0 13 -4 24 -10 24 -5 0 -10 -11 -10 -25z"/>
<path d="M8696 7815 c5 -21 3 -25 -17 -25 -20 0 -21 -1 -6 -12 14 -11 15 -22
7 -81 -6 -38 -15 -78 -21 -89 -9 -16 -8 -19 3 -16 7 3 20 31 29 63 21 78 39
84 39 11 0 -42 -4 -57 -17 -65 -16 -9 -16 -10 3 -11 25 0 34 23 34 92 0 41 -3
47 -22 50 -32 4 -30 40 2 49 14 4 18 7 9 8 -9 1 -20 12 -23 26 -4 14 -11 25
-16 25 -6 0 -8 -11 -4 -25z"/>
<path d="M8773 7810 c-3 -17 -10 -33 -14 -36 -5 -3 -9 -13 -9 -22 1 -14 4 -13
19 6 14 15 30 22 55 22 20 0 36 5 36 10 0 6 -16 10 -36 10 -31 0 -35 3 -29 20
4 12 2 20 -5 20 -6 0 -13 -14 -17 -30z"/>
<path d="M9005 7823 c-6 -19 -15 -23 -51 -23 -24 0 -44 -4 -44 -10 0 -5 20
-10 45 -10 41 0 45 -2 45 -25 0 -24 -3 -25 -55 -25 -30 0 -55 -4 -55 -10 0 -5
25 -10 55 -10 l55 0 0 -50 c0 -49 -1 -50 -30 -50 -28 0 -30 3 -30 34 0 19 -4
38 -10 41 -6 4 -10 -12 -10 -39 l0 -46 79 0 c44 0 83 -4 86 -10 15 -24 25 -6
25 45 0 30 -4 55 -10 55 -5 0 -10 -18 -10 -40 0 -39 -1 -40 -35 -40 l-35 0 0
50 0 50 54 0 c30 0 58 5 61 10 4 6 -17 10 -54 10 -58 0 -61 1 -61 25 0 23 4
25 45 25 25 0 45 5 45 10 0 6 -20 10 -44 10 -38 0 -45 3 -49 23 l-4 22 -8 -22z"/>
<path d="M9218 7834 c-5 -4 -8 -31 -8 -61 0 -40 -4 -53 -15 -53 -12 0 -15 -14
-14 -67 0 -38 3 -62 6 -55 6 15 75 16 89 2 7 -7 19 -4 39 12 l28 22 15 -22 c8
-12 21 -22 29 -22 15 0 34 40 25 54 -3 5 -9 -1 -14 -13 -7 -19 -11 -21 -23
-11 -20 17 -19 26 6 61 11 16 19 35 17 41 -3 7 -13 -2 -23 -20 -21 -35 -35
-27 -35 21 0 21 5 27 23 27 12 0 29 5 37 11 11 8 6 9 -22 5 -40 -5 -37 -9 -51
59 -3 11 -5 2 -6 -21 -1 -32 -6 -43 -23 -52 l-23 -11 22 0 c17 -1 24 -10 31
-43 8 -40 7 -45 -17 -65 -14 -13 -29 -23 -33 -23 -5 0 -8 25 -8 55 0 48 -2 55
-20 55 -15 0 -20 7 -20 25 0 21 5 25 30 25 17 0 30 5 30 10 0 6 -13 10 -29 10
-24 0 -30 5 -33 26 -2 14 -6 22 -10 18z m42 -169 c0 -33 -2 -35 -35 -35 -33 0
-35 2 -35 35 0 33 2 35 35 35 33 0 35 -2 35 -35z"/>
<path d="M2601 7808 c-1 -27 -3 -28 -51 -28 l-50 0 1 -62 c0 -35 3 -57 6 -50
3 7 23 12 48 12 l44 0 4 -52 3 -53 2 53 2 52 44 0 c26 0 46 -5 49 -12 3 -7 6
15 6 50 l1 62 -49 0 c-46 0 -50 2 -54 28 l-4 27 -2 -27z m-1 -78 l0 -40 -45 0
-45 0 0 40 0 40 45 0 45 0 0 -40z m100 0 l0 -40 -45 0 -45 0 0 40 0 40 45 0
45 0 0 -40z"/>
<path d="M2870 7790 c11 -22 23 -40 25 -40 3 0 -4 18 -15 40 -11 22 -23 40
-25 40 -3 0 4 -18 15 -40z"/>
<path d="M2952 7778 c-12 -28 -20 -53 -18 -55 2 -2 13 19 25 48 12 28 21 53
19 55 -3 2 -14 -20 -26 -48z"/>
<path d="M4982 7703 l2 -128 3 118 c3 111 5 117 24 117 18 0 20 -4 13 -27 -8
-32 -8 -54 2 -100 5 -27 3 -33 -10 -33 -9 0 -16 -4 -16 -10 0 -12 20 -13 39
-1 10 6 12 17 6 37 -10 39 -10 82 0 122 7 32 7 32 -29 32 l-36 0 2 -127z"/>
<path d="M5260 7822 c0 -14 39 -46 47 -39 3 4 -2 16 -12 27 -19 21 -35 26 -35
12z"/>
<path d="M5383 7823 c-33 -4 -33 -5 -33 -57 0 -29 -5 -67 -11 -85 -6 -18 -9
-35 -6 -38 7 -6 23 29 31 70 5 22 12 27 36 27 29 0 29 -1 33 -62 l3 -63 2 63
c2 59 3 62 27 62 14 0 25 5 25 10 0 6 -27 10 -60 10 -57 0 -60 1 -60 25 0 22
4 25 38 25 20 0 44 5 52 10 16 10 -10 11 -77 3z"/>
<path d="M6108 7729 c-2 -56 0 -103 4 -105 4 -3 27 5 50 17 24 12 38 24 31 26
-7 2 -21 0 -32 -6 -11 -6 -22 -11 -25 -11 -3 0 -6 41 -6 90 0 50 -4 90 -9 90
-5 0 -11 -45 -13 -101z"/>
<path d="M7780 7805 c0 -14 5 -25 10 -25 6 0 10 7 10 15 0 12 17 15 94 15 82
0 95 -2 99 -17 3 -11 5 -7 6 10 l1 27 -110 0 -110 0 0 -25z"/>
<path d="M8610 7822 c0 -4 9 -13 20 -20 22 -13 27 -3 8 16 -14 14 -28 16 -28
4z"/>
<path d="M9360 7823 c0 -13 29 -38 35 -31 3 3 -4 13 -15 23 -11 10 -20 13 -20
8z"/>
<path d="M3070 7816 c0 -2 8 -10 18 -17 15 -13 16 -12 3 4 -13 16 -21 21 -21
13z"/>
<path d="M3360 7816 c0 -2 8 -10 18 -17 15 -13 16 -12 3 4 -13 16 -21 21 -21
13z"/>
<path d="M3428 7813 c19 -4 22 -11 22 -48 0 -37 -3 -44 -22 -48 l-23 -4 22 -2
c20 -1 22 -7 26 -63 l3 -63 2 62 c2 55 4 62 25 66 l22 4 -22 2 c-20 1 -23 6
-23 46 0 43 1 45 30 45 l29 0 4 -72 3 -73 2 78 2 77 -62 -1 c-35 -1 -53 -4
-40 -6z"/>
<path d="M5810 7810 c0 -6 38 -10 95 -10 l96 0 -3 -97 c-3 -94 -4 -97 -28
-104 -21 -7 -19 -8 10 -6 l35 2 3 103 c2 80 6 102 17 102 7 0 17 5 20 10 4 6
-38 10 -119 10 -77 0 -126 -4 -126 -10z"/>
<path d="M6660 7708 l0 -113 110 0 110 0 0 113 0 112 -110 0 -110 0 0 -112z
m208 5 l3 -93 -96 0 -95 0 0 95 0 96 93 -3 92 -3 3 -92z"/>
<path d="M6720 7710 l0 -50 55 0 55 0 0 50 0 50 -55 0 -55 0 0 -50z m90 0 c0
-28 -3 -30 -35 -30 -32 0 -35 2 -35 30 0 28 3 30 35 30 32 0 35 -2 35 -30z"/>
<path d="M7349 7809 c22 -9 22 -10 7 -34 -9 -13 -16 -27 -16 -31 0 -13 39 28
45 47 10 29 45 24 45 -6 0 -19 -5 -25 -21 -25 -11 0 -17 -4 -14 -10 15 -25 55
8 55 46 0 23 -3 24 -62 23 -50 0 -58 -2 -39 -10z"/>
<path d="M8440 7810 c0 -5 16 -10 35 -10 l35 0 0 -99 0 -100 -27 -4 c-23 -3
-21 -4 10 -6 l37 -1 0 105 0 105 26 0 c14 0 23 4 19 10 -3 6 -35 10 -71 10
-36 0 -64 -4 -64 -10z"/>
<path d="M1496 7788 c-10 -14 -16 -44 -16 -78 0 -68 19 -100 60 -100 41 0 70
40 70 97 0 44 -13 82 -34 95 -23 16 -65 8 -80 -14z m84 -17 c5 -11 10 -38 10
-61 0 -53 -15 -80 -43 -80 -36 0 -47 19 -47 80 0 31 5 61 12 68 18 18 56 14
68 -7z"/>
<path d="M1663 7784 c-22 -35 -23 -112 0 -147 22 -34 65 -36 93 -6 14 16 19
36 19 79 0 43 -5 63 -19 79 -27 30 -71 28 -93 -5z m85 -19 c26 -56 6 -135 -33
-135 -33 0 -49 26 -49 80 0 27 6 55 13 64 21 25 56 20 69 -9z"/>
<path d="M1834 7789 c-14 -16 -19 -36 -19 -79 0 -68 21 -100 66 -100 38 0 64
40 64 100 0 87 -63 132 -111 79z m77 -16 c8 -9 14 -37 14 -63 0 -53 -17 -80
-50 -80 -25 0 -45 35 -45 80 0 68 47 105 81 63z"/>
<path d="M2004 7789 c-14 -16 -19 -36 -19 -79 0 -68 21 -100 66 -100 38 0 64
40 64 100 0 87 -63 132 -111 79z m77 -16 c8 -9 14 -37 14 -63 0 -53 -17 -80
-50 -80 -25 0 -45 35 -45 80 0 68 47 105 81 63z"/>
<path d="M2174 7789 c-28 -31 -27 -144 0 -165 28 -20 70 -17 91 6 51 57 -20
145 -77 93 -17 -15 -18 -15 -18 6 0 39 18 61 51 61 17 0 32 -6 35 -15 7 -16
24 -21 24 -6 0 19 -32 41 -59 41 -16 0 -36 -9 -47 -21z m75 -83 c7 -8 11 -27
9 -43 -2 -23 -8 -29 -35 -31 -27 -3 -35 1 -44 21 -22 49 37 93 70 53z"/>
<path d="M2334 7785 c-21 -32 -9 -47 12 -17 21 30 70 30 80 0 7 -23 -16 -48
-45 -48 -9 -1 -1 -7 17 -15 32 -14 38 -28 26 -59 -9 -25 -71 -21 -79 4 -7 23
-25 27 -25 7 0 -23 35 -47 67 -47 52 0 81 54 48 90 -14 15 -14 18 0 30 35 29
2 80 -53 80 -23 0 -36 -7 -48 -25z"/>
<path d="M2790 7806 c0 -11 30 -66 36 -66 2 0 -3 15 -12 33 -19 36 -24 44 -24
33z"/>
<path d="M3907 7792 c-19 -20 -22 -42 -8 -42 5 0 13 9 16 20 9 27 60 27 75 1
11 -22 -9 -50 -38 -52 -10 0 -3 -7 16 -15 52 -23 38 -74 -21 -74 -20 0 -30 6
-34 20 -3 11 -12 20 -20 20 -11 0 -12 -4 -2 -22 16 -31 28 -38 65 -38 52 0 85
60 49 90 -12 10 -12 15 2 36 14 22 14 26 -1 49 -20 31 -74 34 -99 7z"/>
<path d="M4067 7803 c-11 -10 -8 -103 2 -103 6 0 13 5 16 10 12 19 64 11 76
-11 27 -52 -38 -93 -83 -52 -24 22 -32 13 -12 -15 15 -22 66 -30 90 -14 21 13
34 52 28 77 -8 32 -38 49 -75 41 -27 -5 -29 -3 -29 24 0 29 1 30 50 30 28 0
50 5 50 10 0 11 -103 14 -113 3z"/>
<path d="M4306 7788 c-15 -56 -1 -111 19 -78 9 14 58 13 73 -2 7 -7 12 -21 12
-33 0 -12 -5 -26 -12 -33 -18 -18 -66 -15 -77 5 -5 10 -13 15 -16 11 -13 -13
4 -37 31 -44 65 -16 114 39 83 94 -16 30 -61 41 -85 21 -12 -10 -14 -6 -14 25
l0 36 50 0 c28 0 50 5 50 10 0 6 -24 10 -54 10 -47 0 -54 -3 -60 -22z"/>
<path d="M4656 7794 c-9 -8 -16 -23 -16 -32 0 -14 4 -12 18 6 26 33 77 28 77
-8 0 -16 -8 -29 -24 -36 -22 -12 -22 -12 -3 -18 33 -11 45 -32 32 -55 -15 -29
-63 -28 -83 2 -18 27 -33 17 -18 -12 23 -42 103 -39 123 4 9 19 7 29 -5 49
-10 15 -13 27 -7 31 18 11 11 64 -9 75 -29 15 -67 12 -85 -6z"/>
<path d="M4824 7789 c-28 -31 -27 -144 0 -165 28 -20 70 -17 91 6 51 57 -20
145 -77 93 -17 -15 -18 -15 -18 6 0 39 18 61 51 61 17 0 32 -6 35 -15 7 -16
24 -21 24 -6 0 19 -32 41 -59 41 -16 0 -36 -9 -47 -21z m75 -83 c7 -8 11 -27
9 -43 -2 -23 -8 -29 -35 -31 -27 -3 -35 1 -44 21 -22 49 37 93 70 53z"/>
<path d="M6170 7793 c0 -5 14 -24 30 -43 34 -40 41 -24 8 20 -21 29 -38 39
-38 23z"/>
<path d="M7856 7785 c-3 -9 -18 -15 -36 -15 -16 0 -30 -4 -30 -10 0 -5 9 -10
20 -10 24 0 26 -13 5 -30 -29 -24 -18 -40 30 -40 33 0 45 -4 45 -15 0 -12 -13
-15 -60 -15 -33 0 -60 -4 -60 -10 0 -6 27 -10 60 -10 57 0 60 -1 60 -25 0 -14
5 -25 10 -25 6 0 10 11 10 25 0 23 3 25 50 25 28 0 50 5 50 10 0 6 -22 10 -50
10 -38 0 -50 4 -50 15 0 11 11 15 40 15 22 0 40 5 40 10 0 6 -18 10 -40 10
-29 0 -40 4 -40 15 0 8 -4 15 -10 15 -5 0 -10 -7 -10 -15 0 -10 -10 -15 -30
-15 -33 0 -36 6 -16 33 10 13 28 17 80 17 37 0 66 4 66 10 0 6 -27 10 -61 10
-50 0 -60 3 -55 15 3 8 1 15 -3 15 -5 0 -11 -7 -15 -15z"/>
<path d="M3194 7782 c4 -6 -7 -12 -26 -15 l-33 -4 33 -1 c43 -3 45 -32 2 -32
-16 0 -30 -4 -30 -8 0 -5 13 -7 29 -4 29 4 30 3 34 -44 l3 -49 2 48 c2 45 3
47 31 47 27 0 30 -4 34 -37 2 -26 4 -17 5 25 2 60 1 62 -24 62 -14 0 -35 5
-46 11 -13 7 -18 7 -14 1z m76 -37 c0 -10 -10 -15 -30 -15 -20 0 -30 5 -30 15
0 10 10 15 30 15 20 0 30 -5 30 -15z"/>
<path d="M5840 7695 c0 -37 4 -65 10 -65 6 0 10 7 10 15 0 11 12 15 45 15 l45
0 0 50 0 50 -55 0 -55 0 0 -65z m90 10 c0 -33 -2 -35 -35 -35 -33 0 -35 2 -35
35 0 33 2 35 35 35 33 0 35 -2 35 -35z"/>
<path d="M8200 7735 c0 -21 -5 -25 -29 -25 -17 0 -33 -4 -36 -10 -4 -6 8 -10
29 -10 35 0 36 -1 36 -40 l0 -40 -40 0 c-22 0 -40 -4 -40 -10 0 -6 35 -10 84
-10 47 0 88 5 91 10 4 6 -10 10 -34 10 l-41 0 0 40 c0 38 2 40 30 40 17 0 30
5 30 10 0 6 -13 10 -30 10 -25 0 -30 4 -30 25 0 14 -4 25 -10 25 -5 0 -10 -11
-10 -25z"/>
<path d="M8610 7752 c0 -13 23 -32 39 -32 11 0 10 4 -4 20 -19 21 -35 26 -35
12z"/>
<path d="M3337 7743 c20 -4 22 -11 25 -75 l3 -70 19 21 c17 18 17 21 3 15 -15
-5 -17 2 -17 55 0 60 0 61 -27 60 -23 -1 -24 -2 -6 -6z"/>
<path d="M8780 7740 c0 -5 9 -10 20 -10 11 0 20 -3 20 -7 -1 -16 -28 -43 -44
-43 -9 0 -16 -4 -16 -10 0 -5 9 -10 20 -10 15 0 20 -7 20 -29 0 -16 -6 -32
-12 -34 -7 -3 -3 -6 10 -6 19 -1 22 4 22 34 0 28 4 35 20 35 11 0 20 5 20 10
0 6 -9 10 -20 10 -24 0 -25 8 -5 34 22 29 19 36 -20 36 -19 0 -35 -4 -35 -10z"/>
<path d="M3068 7733 c22 -4 23 -9 20 -58 -2 -41 1 -55 12 -60 8 -3 22 -8 30
-11 8 -3 5 1 -7 11 -19 13 -23 26 -23 71 0 53 -1 54 -27 53 -25 -2 -26 -2 -5
-6z"/>
<path d="M5250 7730 c0 -5 9 -10 20 -10 17 0 20 -7 20 -40 0 -27 -7 -48 -20
-62 -25 -27 -17 -38 9 -14 18 17 22 17 43 2 16 -11 45 -16 100 -16 43 0 78 3
78 8 0 4 -36 7 -79 7 -99 1 -111 10 -111 81 0 53 0 54 -30 54 -16 0 -30 -4
-30 -10z"/>
<path d="M5121 7720 c0 -24 25 -75 31 -65 3 6 -2 26 -13 45 -10 19 -18 28 -18
20z"/>
<path d="M7343 7700 c-10 -28 -2 -42 12 -20 11 17 35 11 35 -9 0 -15 -8 -21
-32 -24 l-33 -4 33 -1 c29 -2 32 -5 32 -32 0 -16 5 -30 10 -30 6 0 10 13 10
29 0 25 5 30 28 34 l27 4 -27 2 c-21 1 -28 6 -28 21 0 13 7 20 20 20 11 0 20
5 20 10 0 6 -9 10 -19 10 -11 0 -22 6 -24 13 -4 9 -8 8 -17 -3 -9 -11 -13 -12
-17 -2 -8 20 -18 14 -30 -18z"/>
<path d="M6510 7710 c0 -5 -11 -10 -25 -10 -14 0 -25 -4 -25 -10 0 -5 6 -10
14 -10 9 0 12 -7 9 -19 -3 -13 2 -21 17 -26 26 -8 20 -16 -23 -31 -50 -17 -17
-23 35 -6 43 13 50 13 73 -2 14 -9 25 -12 25 -7 0 5 -10 15 -22 23 -20 13 -21
18 -10 42 6 14 18 26 27 26 8 0 15 5 15 10 0 6 -23 10 -51 10 -31 0 -48 4 -44
10 3 6 1 10 -4 10 -6 0 -11 -4 -11 -10z m50 -50 c-11 -21 -27 -25 -49 -11 -21
13 -4 31 30 31 27 0 29 -2 19 -20z"/>
<path d="M2828 7703 c34 -2 90 -2 125 0 34 2 6 3 -63 3 -69 0 -97 -1 -62 -3z"/>
<path d="M4460 7680 c0 -6 30 -10 70 -10 40 0 70 4 70 10 0 6 -30 10 -70 10
-40 0 -70 -4 -70 -10z"/>
<path d="M8626 7647 c-10 -22 -15 -44 -13 -50 3 -7 12 5 21 26 10 22 15 44 13
50 -3 7 -12 -5 -21 -26z"/>
<path d="M2829 7653 c-13 -16 -12 -17 4 -4 16 13 21 21 13 21 -2 0 -10 -8 -17
-17z"/>
<path d="M2950 7645 c40 -48 43 -51 32 -30 -6 11 -21 29 -34 40 -22 19 -22 19
2 -10z"/>
<path d="M3531 7647 c-1 -10 4 -27 9 -38 11 -20 30 -26 30 -8 0 5 -4 8 -10 4
-5 -3 -14 9 -19 27 -5 18 -10 25 -10 15z"/>
<path d="M3248 7633 c7 -3 16 -2 19 1 4 3 -2 6 -13 5 -11 0 -14 -3 -6 -6z"/>
<path d="M3627 7633 c-4 -3 -2 -12 4 -20 9 -10 8 -17 -1 -28 -8 -10 -9 -15 -2
-15 16 0 35 39 28 56 -6 15 -18 18 -29 7z"/>
<path d="M4230 7625 c0 -9 5 -15 10 -13 12 4 11 16 -1 24 -5 3 -9 -2 -9 -11z"/>
<path d="M5550 7626 c0 -8 6 -16 13 -19 9 -3 8 -8 -3 -23 -14 -18 -14 -18 3
-5 21 17 23 61 2 61 -8 0 -15 -6 -15 -14z"/>
<path d="M6950 7626 c0 -8 6 -16 13 -19 9 -3 8 -8 -3 -23 -14 -18 -14 -18 3
-5 21 17 23 61 2 61 -8 0 -15 -6 -15 -14z"/>
<path d="M9470 7626 c0 -8 6 -16 13 -19 9 -3 8 -8 -3 -23 -14 -18 -14 -18 3
-5 21 17 23 61 2 61 -8 0 -15 -6 -15 -14z"/>
<path d="M2794 7608 l-19 -23 23 19 c12 11 22 21 22 23 0 8 -8 2 -26 -19z"/>
<path d="M3183 7593 c20 -2 54 -2 75 0 20 2 3 4 -38 4 -41 0 -58 -2 -37 -4z"/>
<path d="M1737 7064 c-21 -14 -43 -36 -49 -49 -6 -14 -15 -25 -20 -25 -4 0 -8
-211 -8 -469 0 -463 0 -470 21 -506 12 -20 39 -47 60 -61 l39 -24 564 0 565 0
3 63 3 62 95 0 95 0 3 -62 c3 -58 5 -63 26 -63 l23 0 -5 123 c-4 102 -2 125
11 135 10 9 45 12 113 10 l97 -3 -1 -134 c-1 -74 1 -131 4 -128 4 3 6 102 7
219 0 125 4 218 10 226 6 8 6 12 -2 12 -15 0 -14 37 2 44 10 5 10 7 0 12 -7 3
-13 14 -13 24 0 10 6 21 13 23 9 4 8 8 -3 16 -13 10 -13 12 0 22 11 8 12 12 3
16 -15 6 -17 43 -3 43 14 0 12 37 -2 43 -10 4 -9 8 2 16 13 10 13 12 0 20 -12
8 -11 13 8 29 27 24 28 32 2 32 -11 0 -20 5 -20 10 0 6 5 10 10 10 6 0 10 27
10 60 0 33 4 60 10 60 6 0 10 5 10 10 0 6 -9 10 -20 10 -11 0 -20 5 -20 10 0
6 5 10 10 10 6 0 10 26 10 59 0 38 5 61 13 65 10 5 10 7 0 12 -7 3 -13 14 -13
25 0 19 -18 19 -812 18 l-813 0 -38 -25z m269 -184 c43 0 72 -83 39 -110 -14
-11 -14 -15 -1 -29 45 -50 -1 -131 -74 -131 -48 0 -100 47 -100 91 0 19 45 9
55 -13 13 -30 64 -37 82 -12 17 23 -1 54 -32 54 -37 0 -33 33 6 47 24 9 30 17
27 35 -2 18 -10 24 -36 26 -27 3 -35 -1 -39 -17 -7 -27 -53 -30 -53 -3 0 34
63 76 98 66 8 -2 20 -4 28 -4z m703 -25 c19 -19 26 -37 29 -83 5 -77 -11 -128
-48 -147 -78 -41 -140 15 -140 127 0 117 87 174 159 103z m-439 5 c0 -16 -8
-19 -62 -22 -60 -3 -63 -4 -66 -30 -3 -25 -1 -26 25 -20 42 11 70 4 93 -25 73
-93 -66 -207 -150 -123 -26 26 -26 60 0 60 10 0 24 -9 30 -20 7 -13 21 -20 38
-20 33 0 52 16 52 45 0 12 -5 26 -12 33 -15 15 -64 16 -73 2 -3 -5 -18 -10
-32 -10 -25 0 -26 2 -19 46 3 26 6 60 6 75 l0 29 85 0 c78 0 85 -2 85 -20z
m240 -110 l0 -130 -25 0 c-25 0 -25 0 -25 96 0 81 -2 95 -15 90 -8 -3 -22 -9
-30 -12 -11 -5 -15 1 -15 20 0 19 7 29 24 36 13 5 27 14 31 19 3 6 17 11 31
11 l24 0 0 -130z m-142 -101 c4 -30 -22 -46 -44 -28 -17 14 -18 31 -2 47 19
19 43 9 46 -19z m-180 -307 c2 -55 6 -72 17 -72 8 0 15 -7 15 -15 0 -8 -7 -15
-15 -15 -8 0 -15 -9 -15 -20 0 -13 -7 -20 -20 -20 -13 0 -20 7 -20 20 0 17 -7
20 -50 20 -44 0 -50 3 -50 21 0 28 101 159 120 156 11 -2 16 -20 18 -75z m252
3 c0 -68 2 -75 20 -75 11 0 20 -5 20 -11 0 -6 -9 -13 -20 -16 -11 -3 -20 -14
-20 -24 0 -11 -7 -19 -15 -19 -8 0 -15 9 -15 20 0 17 -7 20 -50 20 -35 0 -52
5 -56 14 -7 18 103 166 122 166 11 0 14 -18 14 -75z m130 -35 c0 -91 -3 -110
-15 -110 -12 0 -15 16 -15 85 0 82 -1 85 -19 75 -27 -14 -31 -13 -31 10 0 11
6 20 14 20 7 0 19 7 26 15 7 8 19 15 26 15 11 0 14 -23 14 -110z m132 93 c27
-25 24 -79 -7 -99 -23 -15 -27 -15 -50 0 -19 12 -25 25 -25 51 0 57 44 83 82
48z m62 -90 c-63 -120 -68 -127 -83 -122 -15 6 107 229 125 229 11 0 0 -29
-42 -107z m94 -5 c16 -16 16 -80 0 -96 -19 -19 -66 -15 -78 7 -24 47 -4 101
38 101 16 0 33 -5 40 -12z m-828 -33 c0 -12 -16 -15 -80 -15 -64 0 -80 3 -80
15 0 12 16 15 80 15 64 0 80 -3 80 -15z m248 -58 c2 -12 -3 -17 -17 -17 -12 0
-21 6 -21 13 0 31 32 34 38 4z"/>
<path d="M2610 6814 c-13 -33 -13 -110 0 -135 6 -11 21 -19 35 -19 32 0 45 26
45 90 0 64 -13 90 -46 90 -17 0 -27 -8 -34 -26z"/>
<path d="M2111 6315 l-32 -45 35 0 c36 0 36 0 36 45 0 25 -1 45 -3 45 -2 0
-18 -20 -36 -45z"/>
<path d="M2372 6320 l-33 -45 31 -3 c18 -2 34 -1 37 1 2 3 3 24 1 48 l-3 44
-33 -45z"/>
<path d="M2654 6376 c-9 -23 0 -51 16 -51 10 0 15 10 15 29 0 32 -21 47 -31
22z"/>
<path d="M2811 6286 c-16 -20 -10 -61 9 -61 9 0 16 11 18 29 4 35 -10 52 -27
32z"/>
<path d="M4090 6855 c0 -23 -3 -25 -50 -25 l-50 0 0 -65 c0 -37 4 -65 10 -65
6 0 10 5 10 10 0 6 18 10 40 10 l40 0 0 -50 c0 -27 5 -50 10 -50 6 0 10 23 10
50 l0 50 40 0 c22 0 40 -4 40 -10 0 -5 5 -10 10 -10 6 0 10 28 10 65 l0 65
-50 0 c-47 0 -50 2 -50 25 0 14 -4 25 -10 25 -5 0 -10 -11 -10 -25z m0 -85 l0
-40 -40 0 -40 0 0 40 0 40 40 0 40 0 0 -40z m100 0 l0 -40 -40 0 -40 0 0 40 0
40 40 0 40 0 0 -40z"/>
<path d="M4358 6830 c16 -38 32 -52 32 -30 0 18 -30 70 -40 70 -4 0 -1 -18 8
-40z"/>
<path d="M4453 6853 c-3 -10 -14 -37 -24 -60 l-18 -43 -81 0 c-52 0 -79 -4
-75 -10 4 -6 57 -10 125 -10 68 0 121 4 125 10 4 6 -10 10 -35 10 -38 0 -40 1
-30 21 22 40 39 99 29 99 -5 0 -12 -8 -16 -17z"/>
<path d="M4550 6862 c0 -14 39 -46 47 -39 3 4 -2 16 -12 27 -19 21 -35 26 -35
12z"/>
<path d="M4620 6860 c0 -5 25 -10 56 -10 36 0 53 -4 49 -11 -4 -6 -20 -7 -38
-4 -31 7 -31 6 -12 -9 19 -15 18 -15 -17 -16 l-38 0 0 -70 c0 -40 4 -70 10
-70 6 0 10 9 10 20 0 15 7 20 25 20 18 0 25 -5 25 -20 0 -11 5 -20 10 -20 6 0
10 9 10 20 0 15 7 20 25 20 29 0 33 -15 8 -29 -16 -9 -16 -10 5 -11 21 0 22 4
22 70 0 68 -1 70 -25 70 -14 0 -25 4 -25 8 0 5 11 15 25 22 42 22 29 30 -50
30 -43 0 -75 -4 -75 -10z m70 -75 c0 -9 -9 -15 -25 -15 -16 0 -25 6 -25 15 0
9 9 15 25 15 16 0 25 -6 25 -15z m68 -2 c2 -8 -6 -13 -22 -13 -17 0 -26 5 -26
16 0 19 41 16 48 -3z m-68 -38 c0 -9 -9 -15 -25 -15 -24 0 -32 10 -18 23 12
13 43 7 43 -8z m68 -2 c2 -8 -6 -13 -22 -13 -17 0 -26 5 -26 16 0 19 41 16 48
-3z"/>
<path d="M4850 6845 c12 -13 27 -22 32 -19 12 8 -21 44 -40 44 -12 0 -10 -6 8
-25z"/>
<path d="M4280 6851 c0 -21 32 -81 40 -76 6 4 2 22 -10 46 -20 38 -30 48 -30
30z"/>
<path d="M4918 6853 c18 -4 22 -11 22 -44 0 -32 -3 -39 -20 -39 -11 0 -20 -4
-20 -10 0 -5 9 -10 20 -10 18 0 20 -7 20 -66 0 -41 4 -63 10 -59 6 3 10 33 10
66 0 46 3 59 15 59 8 0 15 5 15 10 0 6 -7 10 -15 10 -11 0 -15 11 -15 40 0 36
3 40 25 40 24 0 25 -2 25 -75 0 -80 21 -150 42 -143 7 3 14 18 15 34 l3 29
-11 -25 c-11 -24 -11 -24 -19 -5 -5 11 -9 59 -9 108 l-1 87 -67 -1 c-38 -1
-58 -4 -45 -6z"/>
<path d="M4815 6780 c3 -5 13 -10 21 -10 11 0 14 -15 14 -65 0 -68 6 -77 33
-47 21 23 22 39 2 22 -13 -11 -15 -5 -15 49 l0 61 -31 0 c-17 0 -28 -4 -24
-10z"/>
<path d="M4540 6770 c0 -5 9 -10 20 -10 29 0 28 -65 -2 -97 -12 -13 -18 -26
-14 -30 4 -5 14 1 21 11 13 18 16 18 39 2 18 -11 48 -16 101 -16 41 0 75 3 75
8 0 4 -31 7 -68 7 -41 0 -80 6 -95 14 -24 13 -27 20 -27 68 0 50 -1 53 -25 53
-14 0 -25 -4 -25 -10z"/>
<path d="M4296 6674 c-16 -19 -25 -38 -21 -42 7 -7 65 55 65 70 0 16 -16 6
-44 -28z"/>
<path d="M4429 6693 c15 -25 48 -63 55 -63 13 0 5 20 -20 49 -28 34 -51 43
-35 14z"/>
<path d="M3035 5208 c-2 -7 -9 -30 -15 -50 -10 -33 -15 -38 -43 -38 -54 0 -58
-9 -55 -96 l3 -79 111 -3 c132 -3 135 -1 154 87 17 81 12 91 -48 91 l-48 0 4
35 c2 19 -1 42 -8 50 -15 18 -49 20 -55 3z m45 -17 c5 -11 7 -33 4 -50 -6 -31
-6 -31 37 -31 69 0 73 -6 54 -81 -9 -35 -22 -67 -28 -71 -7 -4 -45 -8 -84 -8
l-73 0 0 75 c0 66 3 77 25 99 14 14 25 36 25 49 0 40 22 50 40 18z m-110 -167
c0 -66 -2 -75 -17 -72 -14 3 -19 15 -21 62 -4 68 1 86 23 86 12 0 15 -14 15
-76z"/>
<path d="M6703 5180 c-83 -50 -82 -171 2 -226 40 -26 119 -15 157 23 80 80 21
223 -92 223 -19 0 -49 -9 -67 -20z m154 -34 c71 -77 18 -196 -87 -196 -92 0
-145 89 -104 175 35 73 133 84 191 21z"/>
<path d="M6743 5114 c9 -12 17 -23 17 -27 0 -3 -8 -8 -17 -10 -17 -4 -17 -5 0
-6 9 0 17 -5 17 -10 0 -5 -8 -12 -17 -14 -17 -4 -17 -5 0 -6 10 -1 17 -9 17
-21 0 -11 5 -20 10 -20 6 0 10 9 10 19 0 12 8 21 23 24 l22 4 -22 2 c-27 1
-30 18 -5 24 16 4 16 5 0 6 -10 0 -18 4 -18 8 0 3 8 16 18 27 17 21 17 21 -4
4 -19 -16 -22 -17 -45 -1 -24 16 -24 16 -6 -3z"/>
<path d="M1444 5167 c-3 -8 -3 -56 -2 -108 l3 -94 105 0 105 0 1 50 1 50 -4
-47 -4 -48 -100 0 -99 0 0 99 0 100 53 4 52 3 -53 2 c-36 1 -54 -2 -58 -11z"/>
<path d="M1620 5171 c14 -4 27 -17 31 -31 6 -23 7 -22 8 8 1 30 -1 32 -31 31
-30 -1 -31 -2 -8 -8z"/>
<path d="M1903 5156 c-4 -7 -15 -16 -23 -19 -12 -4 -12 -6 2 -6 15 -1 16 -5 8
-27 -14 -36 -13 -44 10 -44 30 0 25 -34 -7 -48 l-28 -12 28 5 c24 5 27 2 28
-22 2 -27 2 -27 6 -3 3 13 12 30 21 37 16 12 16 13 0 7 -13 -5 -18 -1 -18 14
0 11 8 23 18 25 15 4 15 5 0 6 -9 0 -19 11 -21 24 l-4 22 -2 -22 c0 -13 -8
-23 -16 -23 -18 0 -18 1 -6 34 7 16 20 26 38 29 l28 4 -29 2 c-21 1 -27 5 -22
16 7 19 0 20 -11 1z"/>
<path d="M2013 5156 c-4 -8 -17 -16 -28 -19 -18 -4 -18 -5 3 -6 12 0 22 -6 22
-11 0 -6 -10 -15 -22 -20 -18 -7 -19 -9 -5 -9 13 -1 16 -7 11 -26 -6 -23 -4
-25 30 -25 20 0 36 -4 36 -9 0 -17 -29 -33 -50 -26 -30 10 -24 -1 15 -24 19
-11 35 -16 35 -11 0 4 -5 10 -12 12 -8 3 -5 14 11 34 l23 29 -41 3 c-23 2 -41
6 -41 10 1 19 19 31 55 35 l40 4 -42 1 c-32 2 -41 5 -37 16 3 8 20 17 37 19
l32 4 -34 1 c-25 2 -32 6 -27 17 7 19 0 20 -11 1z"/>
<path d="M2200 5145 c0 -20 -5 -25 -26 -25 -21 0 -25 4 -21 20 3 11 2 18 -3
15 -4 -3 -10 -14 -13 -25 -4 -16 0 -20 17 -20 13 0 25 -3 29 -6 10 -10 -21
-76 -51 -108 -15 -16 -20 -27 -12 -24 8 2 26 21 39 41 l24 37 24 -22 c26 -24
27 -21 -24 -55 -10 -7 -1 -5 20 4 35 16 39 16 73 -1 20 -9 39 -15 41 -12 3 3
-11 13 -30 22 l-36 17 20 25 c28 36 24 42 -27 42 -38 0 -45 3 -42 18 2 13 17
18 63 23 l60 6 -59 1 c-57 2 -58 3 -54 27 3 14 1 25 -3 25 -5 0 -9 -11 -9 -25z
m68 -107 c-9 -13 -21 -23 -28 -23 -7 0 -19 10 -27 23 -15 22 -15 22 27 22 42
0 42 0 28 -22z"/>
<path d="M2275 5150 c10 -11 20 -20 23 -20 3 0 -3 9 -13 20 -10 11 -20 20 -23
20 -3 0 3 -9 13 -20z"/>
<path d="M3510 5138 c0 -35 -2 -38 -30 -38 -28 0 -30 -3 -30 -35 l0 -35 75 0
75 0 0 35 c0 34 -1 35 -40 35 -33 0 -40 3 -40 20 0 17 7 20 48 22 l47 1 -45 4
c-24 3 -48 10 -52 16 -4 7 -8 -5 -8 -25z m80 -73 c0 -24 -2 -25 -65 -25 -63 0
-65 1 -65 25 0 24 2 25 65 25 63 0 65 -1 65 -25z"/>
<path d="M3670 5155 c-8 -9 -8 -15 -2 -15 12 0 26 19 19 26 -2 2 -10 -2 -17
-11z"/>
<path d="M3709 5163 c-1 -5 -2 -14 -3 -21 0 -7 -5 -16 -11 -20 -17 -12 -36
-52 -25 -52 6 0 15 11 20 25 6 15 15 23 23 19 10 -4 13 3 9 26 -4 28 -11 39
-13 23z"/>
<path d="M3809 5164 c-1 -5 -1 -13 0 -17 1 -5 -8 -22 -19 -38 -12 -16 -17 -29
-12 -29 5 0 14 10 19 23 l11 22 10 -25 c10 -22 11 -20 8 18 -3 38 -14 69 -17
46z"/>
<path d="M7131 5153 c0 -12 -9 -24 -18 -26 -17 -4 -17 -5 0 -6 27 -2 23 -59
-5 -72 l-23 -10 23 5 c20 4 22 0 22 -34 0 -28 -5 -40 -17 -43 -14 -4 -12 -5 5
-6 20 -1 22 4 22 44 0 38 4 47 23 55 l22 9 -22 0 c-16 1 -23 7 -23 21 0 12 10
24 23 30 l22 9 -22 0 c-14 1 -23 9 -26 24 -4 22 -4 22 -6 0z"/>
<path d="M7380 5155 c0 -8 4 -15 10 -15 5 0 7 7 4 15 -4 8 -8 15 -10 15 -2 0
-4 -7 -4 -15z"/>
<path d="M7430 5155 c0 -8 5 -15 10 -15 6 0 10 7 10 15 0 8 -4 15 -10 15 -5 0
-10 -7 -10 -15z"/>
<path d="M7486 5161 c-4 -7 -5 -15 -2 -18 9 -9 19 4 14 18 -4 11 -6 11 -12 0z"/>
<path d="M8861 5163 c-1 -7 -17 -28 -36 -48 -20 -19 -32 -35 -27 -35 16 0 74
68 69 82 -4 9 -6 9 -6 1z"/>
<path d="M8933 5145 c15 -31 54 -71 61 -64 2 2 -14 24 -36 49 -34 37 -38 40
-25 15z"/>
<path d="M9125 5161 c3 -6 -16 -12 -42 -14 -27 -2 -1 -3 57 -3 58 0 81 1 53 3
-29 2 -53 8 -53 14 0 5 -5 9 -11 9 -5 0 -8 -4 -4 -9z"/>
<path d="M1570 5100 c-36 -33 -60 -59 -55 -60 6 0 37 27 70 60 33 33 57 60 55
60 -3 -1 -34 -27 -70 -60z"/>
<path d="M3765 5150 c-3 -5 -2 -10 4 -10 5 0 13 5 16 10 3 6 2 10 -4 10 -5 0
-13 -4 -16 -10z"/>
<path d="M8478 5130 c-3 -16 -1 -30 3 -30 4 0 9 12 11 26 l3 26 43 -38 43 -39
-45 -45 c-46 -44 -46 -44 -46 -17 0 25 -3 27 -38 27 -21 0 -48 -7 -60 -16 -31
-22 -35 -14 -12 24 12 19 32 35 52 41 25 7 28 9 11 10 -32 1 -82 -48 -90 -89
l-6 -35 32 28 c22 18 44 27 67 27 30 0 34 -3 34 -25 0 -14 4 -25 8 -25 4 0 29
22 55 48 l47 48 -43 42 c-23 23 -48 42 -54 42 -6 0 -13 -13 -15 -30z"/>
<path d="M3986 5134 c-9 -8 -16 -20 -16 -27 0 -6 9 -1 21 12 12 12 28 20 36
17 8 -3 17 -6 19 -6 2 0 4 -11 4 -24 0 -13 -17 -43 -40 -69 -22 -25 -40 -48
-40 -51 0 -3 23 -6 50 -6 57 0 68 17 14 22 l-37 3 37 43 c20 24 36 50 36 57 0
20 -28 45 -50 45 -10 0 -26 -7 -34 -16z"/>
<path d="M4110 5140 c0 -5 21 -10 46 -10 l46 0 -41 -75 c-23 -41 -38 -75 -34
-75 9 0 83 141 83 158 0 8 -18 12 -50 12 -27 0 -50 -4 -50 -10z"/>
<path d="M4266 5134 c-19 -18 -20 -36 -5 -51 8 -8 6 -18 -6 -36 -16 -24 -15
-27 4 -46 25 -25 49 -27 79 -5 26 18 28 37 6 59 -13 12 -14 19 -5 28 17 17 13
45 -8 57 -27 14 -47 13 -65 -6z m55 -4 c23 -13 25 -36 3 -48 -38 -21 -77 14
-48 43 18 18 20 18 45 5z m17 -96 c4 -31 -23 -50 -53 -36 -26 12 -34 47 -12
56 27 11 62 1 65 -20z"/>
<path d="M7218 5143 l32 -4 0 -84 c0 -79 -1 -84 -22 -88 -20 -4 -19 -4 5 -6
l27 -1 0 89 c0 85 1 90 23 94 12 2 -5 4 -38 4 -33 0 -45 -2 -27 -4z"/>
<path d="M7666 5128 c-21 -29 -20 -97 0 -126 22 -32 64 -26 82 11 39 81 -35
183 -82 115z m58 -4 c30 -30 15 -134 -19 -134 -21 0 -45 40 -45 75 0 31 24 75
40 75 5 0 16 -7 24 -16z"/>
<path d="M9368 5132 c-16 -9 -28 -20 -28 -25 0 -4 11 0 25 9 l24 16 4 -79 3
-78 2 88 c1 48 1 87 0 87 -2 0 -15 -8 -30 -18z"/>
<path d="M7340 5120 c0 -11 2 -20 4 -20 2 0 6 9 9 20 3 11 1 20 -4 20 -5 0 -9
-9 -9 -20z"/>
<path d="M7527 5120 c3 -11 7 -20 9 -20 2 0 4 9 4 20 0 11 -4 20 -9 20 -5 0
-7 -9 -4 -20z"/>
<path d="M9070 5100 c0 -18 7 -20 70 -20 63 0 70 2 70 20 0 18 -7 20 -70 20
-63 0 -70 -2 -70 -20z m130 0 c0 -6 -27 -10 -60 -10 -33 0 -60 4 -60 10 0 6
27 10 60 10 33 0 60 -4 60 -10z"/>
<path d="M7380 5095 c0 -8 2 -15 4 -15 2 0 6 7 10 15 3 8 1 15 -4 15 -6 0 -10
-7 -10 -15z"/>
<path d="M7486 5095 c4 -8 8 -15 10 -15 2 0 4 7 4 15 0 8 -4 15 -10 15 -5 0
-7 -7 -4 -15z"/>
<path d="M3718 5083 c7 -3 16 -2 19 1 4 3 -2 6 -13 5 -11 0 -14 -3 -6 -6z"/>
<path d="M8848 5073 c31 -6 28 -38 -8 -75 -36 -36 -38 -44 -6 -23 13 9 31 34
40 56 14 33 20 39 46 39 28 0 30 -2 30 -39 0 -42 -11 -57 -50 -64 -21 -4 -20
-4 7 -6 39 -1 53 20 53 78 l0 41 -67 -1 c-38 -1 -58 -4 -45 -6z"/>
<path d="M3691 5028 c2 -31 2 -31 6 -5 4 26 7 27 63 27 56 0 59 -1 63 -27 4
-26 4 -26 6 5 l1 32 -70 0 -70 0 1 -32z"/>
<path d="M9113 5053 c44 -3 65 -8 61 -14 -5 -9 31 5 45 17 2 2 -36 3 -85 2
-83 -2 -84 -2 -21 -5z"/>
<path d="M7372 5020 c0 -19 2 -27 5 -17 2 9 2 25 0 35 -3 9 -5 1 -5 -18z"/>
<path d="M7502 5025 c0 -16 2 -22 5 -12 2 9 2 23 0 30 -3 6 -5 -1 -5 -18z"/>
<path d="M3740 5006 c-12 -14 -37 -28 -54 -32 -17 -4 -26 -9 -19 -11 19 -7 81
24 93 46 14 28 9 26 -20 -3z"/>
<path d="M7430 5016 c0 -19 -24 -37 -63 -46 -27 -7 -28 -8 -7 -9 35 -1 71 20
81 47 5 13 4 22 -1 22 -6 0 -10 -6 -10 -14z"/>
<path d="M9134 5021 c-5 -6 -31 -12 -59 -14 l-50 -3 58 -2 c59 -2 74 -16 35
-32 l-23 -9 23 0 c16 -1 26 6 29 19 4 16 15 20 52 22 l46 1 -45 4 c-24 3 -47
9 -50 14 -4 5 -10 5 -16 0z"/>
<path d="M3430 4989 c-7 -11 -10 -23 -7 -25 2 -2 9 7 15 21 14 30 7 33 -8 4z"/>
<path d="M3481 5005 c1 -19 18 -51 18 -35 0 8 -4 22 -9 30 -5 8 -9 11 -9 5z"/>
<path d="M3537 4990 c3 -11 9 -22 13 -25 5 -3 6 4 3 15 -3 11 -9 22 -13 25 -5
3 -6 -4 -3 -15z"/>
<path d="M3591 5005 c0 -5 6 -19 14 -29 8 -11 15 -15 15 -10 0 6 -7 19 -15 30
-8 10 -14 15 -14 9z"/>
<path d="M3810 4975 c46 -18 64 -17 25 0 -16 8 -37 14 -45 14 -8 0 1 -7 20
-14z"/>
<path d="M7480 4975 c46 -18 64 -17 25 0 -16 8 -37 14 -45 14 -8 0 1 -7 20
-14z"/>
<path d="M705 4336 c-12 -9 -32 -12 -52 -9 -41 7 -158 -48 -221 -102 -39 -34
-102 -114 -102 -131 0 -3 18 -4 40 -1 39 5 76 30 66 45 -8 13 27 27 69 27 30
0 42 -5 50 -21 9 -18 12 -19 24 -7 20 22 36 10 34 -25 -1 -26 3 -33 23 -38 13
-3 24 -10 24 -15 0 -6 -9 -5 -20 1 -23 12 -22 13 -25 -17 -1 -12 2 -20 7 -17
17 11 58 -6 58 -24 0 -11 -3 -13 -8 -6 -4 6 -18 10 -32 9 -14 -1 -33 5 -43 13
-16 15 -17 14 -11 -2 6 -16 4 -17 -13 -7 -16 8 -22 8 -26 -3 -3 -7 -27 -16
-53 -19 -27 -3 -53 -12 -59 -21 -7 -9 -17 -16 -24 -16 -6 0 -11 -6 -11 -12 -1
-7 -6 -2 -13 12 -7 14 -16 26 -22 25 -17 -1 -53 -37 -49 -49 3 -7 -5 -22 -16
-34 -11 -12 -17 -22 -13 -22 4 0 0 -6 -9 -14 -26 -19 -7 -131 37 -224 146
-308 554 -376 795 -133 106 107 158 242 146 379 -4 40 -12 85 -18 100 -6 15
-12 37 -14 50 -8 62 -106 184 -189 237 -50 32 -135 69 -135 60 0 -3 11 -23 25
-45 14 -22 23 -40 20 -40 -3 0 17 -22 45 -50 28 -27 53 -50 56 -50 7 0 31 -20
56 -47 12 -13 28 -23 36 -23 8 0 12 -6 8 -15 -6 -17 30 -41 54 -36 8 2 12 0 8
-5 -4 -4 0 -13 10 -20 11 -9 13 -13 4 -14 -7 0 -10 -5 -7 -10 4 -6 3 -10 -2
-9 -20 3 -34 -2 -28 -11 3 -5 1 -10 -4 -10 -6 0 -11 -6 -11 -13 0 -9 -10 -12
-31 -9 -22 3 -30 1 -25 -7 4 -6 0 -18 -8 -27 -9 -9 -14 -20 -11 -24 3 -5 -5
-16 -18 -25 -22 -14 -27 -14 -53 0 -16 8 -28 17 -26 20 10 21 -2 22 -23 1 -14
-14 -25 -31 -25 -37 0 -7 -6 -4 -14 6 -13 18 -11 21 16 34 16 8 25 17 20 20
-5 4 -5 20 0 40 7 25 12 31 21 22 16 -16 27 -14 20 5 -4 11 -15 15 -33 12 -22
-3 -27 -1 -22 11 3 8 1 12 -4 8 -16 -10 -62 39 -69 75 -4 18 -15 38 -25 45 -9
7 -23 26 -30 43 -11 25 -10 34 5 56 16 25 16 27 -4 41 -21 14 -29 43 -11 43 5
0 16 13 24 29 15 28 15 29 -16 35 -51 10 -103 7 -123 -8z m-135 -382 c0 -8
-19 -13 -24 -6 -3 5 1 9 9 9 8 0 15 -2 15 -3z m-185 -34 c3 -5 1 -10 -4 -10
-6 0 -11 5 -11 10 0 6 2 10 4 10 3 0 8 -4 11 -10z m10 -30 c-13 -14 -14 -20
-5 -20 7 0 11 -2 8 -5 -3 -3 -12 -3 -21 1 -15 5 -14 8 6 25 29 24 35 24 12 -1z
m281 -66 c19 -15 19 -15 -1 -6 -11 5 -27 12 -35 15 -13 5 -13 6 1 6 8 1 24 -6
35 -15z"/>
<path d="M2855 4235 c-68 -24 -103 -91 -83 -161 35 -130 221 -129 256 0 30
107 -68 197 -173 161z m23 -77 c-4 -20 11 -68 21 -68 12 0 25 56 16 70 -4 6 6
10 26 10 24 0 29 -3 21 -13 -6 -7 -20 -38 -32 -70 -12 -31 -26 -57 -31 -57 -7
0 -69 122 -69 136 0 2 11 4 25 4 15 0 25 -5 23 -12z"/>
<path d="M1585 4230 c-3 -5 -26 -10 -51 -10 -62 0 -55 -20 9 -22 l52 -2 -47
-3 c-58 -5 -64 -23 -8 -23 22 0 40 -4 40 -10 0 -5 -22 -10 -50 -10 -27 0 -50
-4 -50 -10 0 -6 47 -10 120 -10 73 0 120 4 120 10 0 6 -22 10 -50 10 -27 0
-50 5 -50 10 0 6 18 10 40 10 56 0 50 18 -7 23 l-48 3 53 2 c63 2 70 22 8 22
-25 0 -48 5 -51 10 -3 6 -10 10 -15 10 -5 0 -12 -4 -15 -10z"/>
<path d="M1780 4215 c0 -12 18 -15 100 -15 82 0 100 3 100 15 0 12 -18 15
-100 15 -82 0 -100 -3 -100 -15z"/>
<path d="M2040 4110 c0 -82 3 -100 15 -100 10 0 15 10 15 30 0 17 4 30 10 30
5 0 19 -13 32 -30 12 -16 30 -30 41 -30 17 0 17 2 -5 31 -13 17 -27 37 -32 44
-7 9 -1 21 20 39 25 22 26 25 10 26 -11 0 -33 -12 -48 -27 l-28 -27 0 57 c0
44 -3 57 -15 57 -12 0 -15 -18 -15 -100z"/>
<path d="M2196 4201 c-7 -11 18 -33 27 -24 4 3 7 12 7 20 0 15 -26 18 -34 4z"/>
<path d="M2321 4151 c-7 -5 -22 -6 -32 -4 -17 5 -19 -1 -19 -66 0 -56 3 -71
15 -71 11 0 15 12 15 44 0 59 8 76 35 76 27 0 35 -17 35 -76 0 -32 4 -44 15
-44 25 0 21 104 -5 130 -22 22 -37 25 -59 11z"/>
<path d="M2470 4153 c-25 -9 -40 -35 -40 -69 0 -47 25 -67 73 -61 31 4 37 3
33 -10 -3 -8 -6 -19 -6 -24 0 -13 -54 -11 -68 3 -14 14 -27 4 -19 -16 8 -21
54 -31 83 -17 32 14 44 48 44 126 0 64 0 64 -27 63 -16 -1 -35 1 -43 5 -8 3
-22 3 -30 0z m59 -45 c12 -33 -2 -63 -29 -63 -29 0 -45 25 -36 58 8 35 53 38
65 5z"/>
<path d="M1750 4135 c0 -11 12 -15 45 -15 25 0 45 -2 45 -5 0 -9 -32 -58 -54
-83 -32 -36 -12 -44 85 -34 71 8 86 7 96 -6 25 -30 26 15 2 58 -29 50 -54 50
-34 -1 5 -14 -4 -18 -50 -24 -31 -3 -59 -5 -61 -2 -3 2 8 25 23 50 l28 46 68
1 c53 0 67 3 67 15 0 13 -21 15 -130 15 -109 0 -130 -2 -130 -15z"/>
<path d="M2200 4080 c0 -56 3 -70 15 -70 12 0 15 14 15 70 0 56 -3 70 -15 70
-12 0 -15 -14 -15 -70z"/>
<path d="M1510 4050 c0 -66 15 -98 22 -47 3 20 10 22 62 25 32 2 64 -2 69 -7
8 -8 4 -11 -11 -11 -12 0 -22 -4 -22 -9 0 -16 19 -23 40 -16 17 5 20 15 20 71
l0 64 -90 0 -90 0 0 -70z m155 40 c4 -6 -20 -10 -65 -10 -45 0 -69 4 -65 10 3
6 33 10 65 10 32 0 62 -4 65 -10z m-27 -37 c-21 -2 -55 -2 -75 0 -21 2 -4 4
37 4 41 0 58 -2 38 -4z"/>
<path d="M985 3910 c3 -5 10 -10 16 -10 5 0 9 5 9 10 0 6 -7 10 -16 10 -8 0
-12 -4 -9 -10z"/>
<path d="M5791 3117 c-1 -19 -8 -30 -23 -36 l-22 -8 22 -5 c29 -8 30 -53 2
-68 -11 -6 -20 -15 -20 -19 0 -5 9 -7 20 -4 17 5 20 0 20 -31 0 -29 -5 -39
-22 -46 -22 -8 -22 -9 5 -9 26 -1 27 1 27 49 0 36 4 52 15 56 8 4 15 10 15 15
0 5 -7 9 -15 9 -20 0 -19 39 0 46 14 6 14 8 1 18 -8 6 -17 22 -19 36 -4 24 -4
24 -6 -3z"/>
<path d="M5906 3126 c4 -11 -4 -16 -28 -19 -23 -3 -18 -4 20 -5 55 -2 60 -7
38 -37 -15 -21 -46 -14 -46 10 0 8 -5 15 -11 15 -6 0 -8 -9 -4 -20 5 -16 2
-20 -14 -20 -12 0 -21 -4 -21 -10 0 -6 33 -10 80 -10 47 0 80 4 80 10 0 6 -11
10 -25 10 -23 0 -24 2 -15 20 6 11 7 20 3 21 -4 0 1 4 12 9 17 7 15 9 -13 9
-19 1 -35 7 -38 16 -4 8 -10 15 -15 15 -4 0 -6 -6 -3 -14z"/>
<path d="M6428 3122 c-5 -19 -14 -22 -60 -24 l-53 -1 55 -6 55 -6 0 -35 0 -35
-60 -6 c-59 -6 -59 -6 -12 -7 26 -1 47 -6 47 -11 0 -11 -62 -67 -82 -73 -7 -3
-10 -9 -5 -13 9 -10 64 29 92 64 l20 26 6 -60 6 -60 1 59 2 59 50 -47 c48 -45
70 -56 70 -36 0 6 -4 10 -10 10 -13 0 -80 60 -80 71 0 5 21 10 48 11 36 1 39
2 15 5 -35 5 -39 13 -23 43 6 10 6 21 2 24 -5 3 -16 -11 -26 -30 -20 -43 -41
-40 -41 7 0 34 0 34 55 40 l55 6 -53 1 c-44 2 -54 6 -61 24 l-8 22 -5 -22z"/>
<path d="M7305 3128 c-5 -13 -19 -18 -51 -18 -24 0 -44 -4 -44 -10 0 -5 16
-10 35 -10 19 0 35 -4 35 -8 0 -5 -16 -27 -36 -51 -40 -46 -39 -68 1 -31 l25
23 0 -71 c0 -41 4 -72 10 -72 6 0 10 14 10 30 0 30 1 30 55 30 48 0 55 -2 55
-20 0 -14 -7 -20 -22 -20 -16 0 -19 -3 -11 -11 6 -6 20 -8 32 -4 19 6 21 14
21 86 l0 79 -58 0 c-64 0 -78 6 -61 27 8 9 36 13 86 13 47 0 72 4 68 10 -3 6
-35 10 -70 10 -52 0 -64 3 -68 18 -4 16 -4 16 -12 0z m95 -103 c0 -12 -13 -15
-55 -15 -42 0 -55 3 -55 15 0 12 13 15 55 15 42 0 55 -3 55 -15z m0 -50 c0
-12 -13 -15 -55 -15 -42 0 -55 3 -55 15 0 12 13 15 55 15 42 0 55 -3 55 -15z"/>
<path d="M7600 3101 c0 -39 -1 -40 -37 -43 -37 -3 -38 -4 -41 -45 l-3 -43 96
0 96 0 -3 43 c-3 42 -3 42 -45 45 -29 2 -43 8 -43 18 0 10 13 14 49 14 28 0
53 5 56 10 4 6 -15 10 -49 10 -43 0 -56 3 -56 15 0 8 -4 15 -10 15 -5 0 -10
-18 -10 -39z m88 -88 c-3 -28 -4 -28 -73 -28 -69 0 -70 0 -73 28 l-3 27 76 0
76 0 -3 -27z"/>
<path d="M7800 3109 c-32 -43 -31 -119 1 -119 10 0 19 -5 19 -11 0 -16 -22
-53 -39 -66 -9 -6 -13 -15 -9 -19 11 -11 44 22 60 59 l13 32 5 -45 5 -45 76
-3 c64 -2 78 0 83 14 9 23 -3 33 -15 11 -8 -13 -23 -17 -69 -17 l-60 0 0 45
c0 33 4 45 15 45 10 0 15 11 15 35 0 25 -4 35 -16 35 -12 0 -15 6 -10 25 6 22
3 25 -18 25 -15 0 -26 7 -28 17 -2 12 -9 8 -28 -18z m50 -29 c-10 -19 -60 -29
-60 -12 0 16 24 32 47 32 21 0 22 -3 13 -20z m-20 -55 c0 -16 -6 -25 -15 -25
-9 0 -15 9 -15 25 0 16 6 25 15 25 9 0 15 -9 15 -25z m50 0 c0 -14 -6 -25 -13
-25 -20 0 -25 9 -20 31 8 28 33 24 33 -6z"/>
<path d="M2569 3077 c-13 -39 -14 -47 -3 -32 8 10 14 22 14 27 0 4 15 8 34 8
28 0 35 -4 39 -22 4 -20 4 -19 6 5 1 24 -2 27 -33 27 -26 0 -35 5 -38 19 -2
12 -9 0 -19 -32z"/>
<path d="M2752 3080 c-21 -42 -21 -43 -1 -17 19 25 26 27 94 27 49 0 75 -4 78
-12 3 -8 6 -6 6 5 1 15 -9 17 -73 17 -52 0 -75 4 -78 13 -2 7 -13 -8 -26 -33z"/>
<path d="M3320 3109 c-7 -11 -10 -23 -7 -25 2 -2 9 7 15 21 14 30 7 33 -8 4z"/>
<path d="M3367 3079 c-15 -27 -25 -49 -22 -49 6 0 58 90 54 95 -2 2 -16 -19
-32 -46z"/>
<path d="M3930 3065 l0 -65 31 0 c41 0 36 -32 -6 -41 l-30 -7 33 -1 c25 -1 32
-5 32 -21 0 -17 -7 -20 -40 -20 -22 0 -40 -4 -40 -10 0 -6 35 -10 85 -10 50 0
85 4 85 10 0 6 -16 10 -35 10 -28 0 -35 4 -35 19 0 15 8 21 33 24 l32 4 -32 1
c-26 2 -33 6 -33 22 0 15 7 20 25 20 24 0 25 2 25 65 l0 65 -65 0 -65 0 0 -65z
m60 25 c0 -13 -7 -20 -20 -20 -13 0 -20 7 -20 20 0 13 7 20 20 20 13 0 20 -7
20 -20z m60 0 c0 -13 -7 -20 -20 -20 -13 0 -20 7 -20 20 0 13 7 20 20 20 13 0
20 -7 20 -20z m-60 -55 c0 -8 -9 -15 -20 -15 -11 0 -20 7 -20 15 0 8 9 15 20
15 11 0 20 -7 20 -15z m60 0 c0 -8 -9 -15 -20 -15 -11 0 -20 7 -20 15 0 8 9
15 20 15 11 0 20 -7 20 -15z"/>
<path d="M4157 3117 c-3 -9 -16 -17 -29 -20 l-23 -4 23 -2 c27 -1 28 -11 2
-44 -11 -14 -20 -31 -20 -37 0 -7 10 0 23 16 l22 29 6 -35 6 -35 2 33 c1 31
14 42 26 22 3 -5 12 -10 18 -10 7 1 -1 12 -18 25 l-29 24 24 10 c17 7 19 10 8
10 -9 1 -21 8 -26 17 -8 14 -10 14 -15 1z"/>
<path d="M4230 3060 l0 -70 55 0 55 0 0 70 0 70 -55 0 -55 0 0 -70z m90 40 c0
-5 -16 -10 -35 -10 -19 0 -35 5 -35 10 0 6 16 10 35 10 19 0 35 -4 35 -10z m0
-40 c0 -5 -16 -10 -35 -10 -19 0 -35 5 -35 10 0 6 16 10 35 10 19 0 35 -4 35
-10z m0 -40 c0 -5 -16 -10 -35 -10 -19 0 -35 5 -35 10 0 6 16 10 35 10 19 0
35 -4 35 -10z"/>
<path d="M4430 3080 l0 -50 85 0 85 0 0 50 0 50 -85 0 -85 0 0 -50z m150 20
c0 -6 -28 -10 -65 -10 -37 0 -65 4 -65 10 0 6 28 10 65 10 37 0 65 -4 65 -10z
m0 -40 c0 -6 -28 -10 -65 -10 -37 0 -65 4 -65 10 0 6 28 10 65 10 37 0 65 -4
65 -10z"/>
<path d="M7930 3111 c0 -11 -6 -22 -12 -25 -10 -5 -10 -7 0 -12 18 -9 14 -60
-9 -105 -11 -23 -18 -43 -15 -46 10 -10 45 62 52 104 5 33 11 43 25 43 14 0
19 -7 19 -29 0 -55 -12 -93 -34 -101 -19 -8 -19 -9 5 -9 33 -1 39 13 39 95 0
62 -1 64 -25 64 -18 0 -25 5 -25 20 0 11 -4 20 -10 20 -5 0 -10 -9 -10 -19z"/>
<path d="M8055 3120 c-4 -6 7 -10 24 -10 26 0 31 -4 31 -25 0 -20 -5 -25 -24
-25 -19 0 -25 -6 -29 -32 -6 -41 -2 -48 29 -48 23 0 25 -3 22 -37 -2 -30 -8
-39 -28 -44 -23 -7 -23 -7 6 -8 36 -1 44 11 44 70 0 37 -2 39 -31 39 -26 0
-30 3 -27 23 2 16 11 23 31 25 24 3 27 7 27 43 0 38 -1 39 -34 39 -19 0 -38
-4 -41 -10z"/>
<path d="M8160 3095 c0 -31 3 -35 25 -35 16 0 25 -6 25 -15 0 -10 -10 -15 -30
-15 -28 0 -30 -3 -30 -35 0 -32 2 -35 30 -35 25 0 30 -4 30 -25 0 -21 -5 -25
-30 -25 -16 0 -30 -5 -30 -10 0 -7 21 -9 61 -4 47 5 63 4 70 -7 7 -12 9 -12 9
1 0 27 -12 60 -22 60 -6 0 -8 -7 -4 -15 4 -10 -1 -15 -14 -15 -13 0 -20 7 -20
20 0 16 7 20 30 20 28 0 30 3 30 35 0 32 -2 35 -30 35 -20 0 -30 5 -30 15 0 9
9 15 25 15 22 0 25 4 25 35 l0 35 -60 0 -60 0 0 -35z m100 -5 c0 -17 -7 -20
-40 -20 -33 0 -40 3 -40 20 0 17 7 20 40 20 33 0 40 -3 40 -20z m-50 -95 c0
-18 -5 -25 -20 -25 -15 0 -20 7 -20 25 0 18 5 25 20 25 15 0 20 -7 20 -25z
m60 0 c0 -18 -5 -25 -20 -25 -15 0 -20 7 -20 25 0 18 5 25 20 25 15 0 20 -7
20 -25z"/>
<path d="M2482 3113 l47 -4 3 -42 3 -42 5 48 5 47 -55 -2 -55 -2 47 -3z"/>
<path d="M3012 3040 c0 -47 2 -79 5 -72 2 6 16 12 29 12 21 0 24 -4 24 -39 0
-29 -5 -41 -17 -44 -14 -4 -12 -5 5 -6 22 -1 22 1 20 117 0 64 -3 102 -5 85
-4 -27 -9 -33 -28 -33 -19 0 -24 6 -28 33 -2 17 -4 -6 -5 -53z m58 -20 c0 -25
-4 -30 -25 -30 -21 0 -25 5 -25 30 0 25 4 30 25 30 21 0 25 -5 25 -30z"/>
<path d="M3118 3086 c-2 -19 0 -32 4 -30 4 3 8 16 8 30 0 20 5 24 30 24 25 0
30 -4 30 -23 0 -24 17 -47 35 -47 5 0 2 5 -7 11 -11 6 -18 22 -18 39 0 28 -2
30 -39 30 -37 0 -39 -2 -43 -34z"/>
<path d="M3830 3110 c0 -5 7 -10 15 -10 23 0 20 -67 -2 -73 -17 -4 -17 -5 0
-6 23 -1 25 -81 2 -81 -8 0 -15 -5 -15 -11 0 -6 7 -8 16 -5 9 3 27 9 40 12 13
3 24 11 24 16 0 6 -7 8 -15 4 -12 -4 -15 3 -15 29 0 24 5 35 18 38 16 4 16 5
0 6 -24 1 -26 71 -3 71 8 0 15 5 15 10 0 6 -18 10 -40 10 -22 0 -40 -4 -40
-10z"/>
<path d="M6040 3008 l0 -113 115 0 115 0 0 113 0 112 -115 0 -115 0 0 -112z
m208 5 l3 -93 -96 0 -95 0 0 88 c0 49 3 92 7 96 4 4 46 5 93 4 l85 -3 3 -92z"/>
<path d="M6100 3010 l0 -50 55 0 55 0 0 50 0 50 -55 0 -55 0 0 -50z m90 0 c0
-28 -3 -30 -35 -30 -32 0 -35 2 -35 30 0 28 3 30 35 30 32 0 35 -2 35 -30z"/>
<path d="M1496 3088 c-10 -14 -16 -44 -16 -78 0 -68 19 -100 60 -100 41 0 70
40 70 97 0 44 -13 82 -34 95 -23 16 -65 8 -80 -14z m84 -17 c5 -11 10 -38 10
-61 0 -53 -15 -80 -43 -80 -36 0 -47 19 -47 80 0 31 5 61 12 68 18 18 56 14
68 -7z"/>
<path d="M1668 3099 c-20 -11 -23 -41 -8 -69 7 -13 6 -21 -5 -30 -21 -17 -19
-53 3 -73 23 -21 86 -22 106 -1 20 20 20 58 1 74 -11 9 -13 16 -5 24 14 14 13
59 -2 74 -15 15 -66 15 -90 1z m72 -17 c25 -20 19 -47 -12 -56 -47 -12 -80 40
-40 63 23 14 27 14 52 -7z m1 -82 c11 -6 19 -21 19 -36 0 -34 -43 -51 -76 -29
-28 18 -30 37 -8 59 18 19 38 20 65 6z"/>
<path d="M1837 3092 c-18 -20 -23 -52 -8 -52 5 0 12 12 15 26 6 21 11 25 39
22 26 -2 33 -8 35 -29 2 -21 -7 -35 -46 -68 -27 -22 -52 -50 -55 -61 -5 -18 0
-20 59 -20 36 0 64 4 64 10 0 6 -24 10 -52 10 l-53 1 53 47 c42 38 52 53 52
79 0 51 -68 74 -103 35z"/>
<path d="M2007 3092 c-18 -20 -23 -52 -8 -52 5 0 12 12 15 26 6 21 11 25 39
22 26 -2 33 -8 35 -29 2 -21 -7 -35 -46 -68 -27 -22 -52 -50 -55 -61 -5 -18 0
-20 59 -20 36 0 64 4 64 10 0 6 -24 10 -52 10 l-53 1 53 47 c42 38 52 53 52
79 0 51 -68 74 -103 35z"/>
<path d="M2190 3044 c-27 -37 -50 -71 -50 -75 0 -5 23 -9 50 -9 47 0 50 -2 50
-25 0 -14 5 -25 10 -25 6 0 10 11 10 24 0 15 7 26 18 29 16 4 16 5 0 6 -15 1
-18 11 -18 71 0 39 -4 70 -10 70 -5 0 -32 -30 -60 -66z m47 -71 c-3 -2 -21 -3
-41 -1 l-37 3 38 51 38 52 3 -50 c2 -28 1 -52 -1 -55z"/>
<path d="M2346 3095 c-10 -8 -24 -16 -30 -18 -6 -2 -8 -7 -4 -11 3 -4 16 -3
27 4 21 10 21 9 21 -75 0 -50 4 -85 10 -85 6 0 10 40 10 100 0 55 -3 100 -7
100 -5 0 -17 -7 -27 -15z"/>
<path d="M4704 3102 c-11 -7 -34 -45 -34 -56 0 -17 22 -2 30 20 8 21 15 25 42
22 26 -2 34 -8 36 -26 3 -18 -10 -36 -52 -76 -31 -28 -56 -57 -56 -64 0 -8 21
-12 65 -12 78 0 88 18 13 22 l-53 3 29 25 c80 68 95 100 60 134 -16 17 -61 21
-80 8z"/>
<path d="M4846 3059 c-7 -55 -3 -70 16 -51 15 15 61 15 76 0 7 -7 12 -21 12
-33 0 -12 -5 -26 -12 -33 -17 -17 -67 -15 -74 3 -7 16 -24 21 -24 6 0 -39 84
-55 113 -23 22 25 21 75 -1 95 -22 20 -63 22 -80 5 -9 -9 -12 -7 -12 9 0 43
10 53 56 53 24 0 44 5 44 10 0 6 -24 10 -54 10 l-53 0 -7 -51z"/>
<path d="M5196 3088 c-17 -24 -21 -48 -8 -48 4 0 12 10 17 23 14 31 60 35 75
7 10 -19 6 -27 -44 -76 -75 -72 -74 -84 9 -84 37 0 65 4 65 10 0 6 -26 10 -57
10 l-58 1 54 47 c56 50 68 85 41 117 -19 23 -76 19 -94 -7z"/>
<path d="M5357 3103 c-11 -10 -8 -103 2 -103 6 0 13 5 16 10 12 19 64 11 76
-11 27 -52 -38 -93 -83 -52 -24 22 -32 13 -12 -15 15 -22 66 -30 90 -14 21 13
34 52 28 77 -8 32 -38 49 -75 41 -27 -5 -29 -3 -29 24 0 29 1 30 50 30 28 0
50 5 50 10 0 11 -103 14 -113 3z"/>
<path d="M5596 3088 c-15 -56 -1 -111 19 -78 9 14 58 13 73 -2 7 -7 12 -21 12
-33 0 -12 -5 -26 -12 -33 -18 -18 -66 -15 -77 5 -5 10 -13 15 -16 11 -13 -13
4 -37 31 -44 65 -16 114 39 83 94 -16 30 -61 41 -85 21 -12 -10 -14 -6 -14 25
l0 36 50 0 c28 0 50 5 50 10 0 6 -24 10 -54 10 -47 0 -54 -3 -60 -22z"/>
<path d="M6897 3092 c-18 -20 -23 -52 -8 -52 5 0 12 12 15 26 6 21 11 25 39
22 26 -2 33 -8 35 -29 2 -21 -7 -35 -46 -68 -27 -22 -52 -50 -55 -61 -5 -18 0
-20 59 -20 36 0 64 4 64 10 0 6 -24 10 -52 10 l-53 1 53 47 c42 38 52 53 52
79 0 51 -68 74 -103 35z"/>
<path d="M7064 3089 c-28 -31 -27 -144 0 -165 28 -20 70 -17 91 6 51 57 -20
145 -77 93 -17 -15 -18 -15 -18 6 0 39 18 61 51 61 17 0 32 -6 35 -15 7 -16
24 -21 24 -6 0 19 -32 41 -59 41 -16 0 -36 -9 -47 -21z m75 -83 c7 -8 11 -27
9 -43 -2 -23 -8 -29 -35 -31 -27 -3 -35 1 -44 21 -22 49 37 93 70 53z"/>
<path d="M3460 3095 c0 -4 11 -20 25 -37 14 -16 25 -26 25 -23 0 4 -11 20 -25
37 -14 16 -25 26 -25 23z"/>
<path d="M2442 3060 c0 -14 2 -19 5 -12 2 6 2 18 0 25 -3 6 -5 1 -5 -13z"/>
<path d="M2492 3060 c0 -14 2 -19 5 -12 2 6 2 18 0 25 -3 6 -5 1 -5 -13z"/>
<path d="M3293 3058 c-6 -7 -14 -20 -18 -28 -8 -13 -6 -13 8 -2 15 13 16 7 20
-65 l3 -78 2 93 c1 50 0 92 -2 92 -2 0 -8 -6 -13 -12z"/>
<path d="M6362 3045 c6 -13 15 -22 19 -19 11 6 -8 44 -21 44 -6 0 -5 -10 2
-25z"/>
<path d="M2832 2983 c-2 -76 -4 -82 -24 -86 l-23 -4 23 -2 c30 -1 34 12 29
100 l-3 74 -2 -82z"/>
<path d="M2601 3009 c-1 -32 -9 -58 -27 -85 -15 -21 -19 -32 -10 -24 10 7 24
27 32 43 l15 29 27 -41 c14 -22 28 -38 31 -36 2 3 -3 13 -11 22 -23 27 -41 64
-49 103 -7 34 -7 34 -8 -11z"/>
<path d="M3380 3013 c8 -3 18 -11 22 -17 5 -8 8 -7 8 2 0 7 13 12 30 12 29 0
30 -2 30 -42 0 -50 -7 -64 -35 -71 -18 -4 -18 -5 2 -6 29 -1 43 26 43 83 l0
46 -57 -1 c-32 0 -51 -3 -43 -6z"/>
<path d="M5890 3010 c0 -5 -11 -10 -25 -10 -14 0 -25 -4 -25 -10 0 -5 7 -10
16 -10 10 0 13 -6 10 -18 -5 -13 1 -22 16 -29 23 -11 22 -11 -9 -23 -18 -7
-33 -16 -33 -21 0 -12 -2 -12 53 7 34 11 51 13 66 5 11 -6 26 -11 33 -11 7 1
1 8 -14 16 -32 17 -31 15 -18 48 5 14 16 26 25 26 8 0 15 5 15 10 0 6 -20 10
-45 10 -25 0 -45 5 -45 10 0 6 -4 10 -10 10 -5 0 -10 -4 -10 -10z m60 -37 c0
-5 -4 -14 -9 -22 -12 -19 -62 -6 -55 14 6 15 64 22 64 8z"/>
<path d="M2478 3003 l52 -4 0 -49 c0 -38 -4 -50 -17 -53 -14 -3 -13 -4 2 -3
17 1 21 9 23 51 2 27 9 53 15 57 7 4 -19 7 -58 6 -63 -2 -64 -2 -17 -5z"/>
<path d="M2748 2964 c-15 -24 -25 -44 -23 -44 7 0 58 80 54 84 -2 2 -16 -16
-31 -40z"/>
<path d="M2890 3001 c0 -6 4 -13 10 -16 6 -3 7 1 4 9 -7 18 -14 21 -14 7z"/>
<path d="M3114 3003 c7 -7 98 -5 105 3 2 2 -22 4 -54 4 -32 0 -55 -3 -51 -7z"/>
<path d="M4390 3000 c0 -6 27 -10 60 -10 l60 0 0 -40 c0 -44 -5 -47 -39 -24
-15 11 -21 23 -18 35 6 24 -11 25 -20 2 -3 -10 -15 -28 -26 -40 -27 -30 -13
-43 16 -15 22 20 22 20 46 1 19 -15 37 -19 95 -17 l71 1 -55 6 c-41 5 -56 10
-58 24 -3 14 4 17 37 17 54 0 62 18 10 22 -66 5 -62 28 5 28 30 0 58 5 61 10
4 6 -38 10 -119 10 -77 0 -126 -4 -126 -10z"/>
<path d="M5005 2980 c3 -5 35 -10 71 -10 36 0 64 4 64 10 0 6 -30 10 -71 10
-44 0 -68 -4 -64 -10z"/>
<path d="M3390 2966 c0 -7 -9 -26 -21 -42 l-21 -29 26 28 c23 25 35 57 21 57
-3 0 -5 -6 -5 -14z"/>
<path d="M2442 2950 c0 -14 2 -19 5 -12 2 6 2 18 0 25 -3 6 -5 1 -5 -13z"/>
<path d="M2492 2950 c0 -14 2 -19 5 -12 2 6 2 18 0 25 -3 6 -5 1 -5 -13z"/>
<path d="M3183 2954 c-3 -8 -12 -13 -20 -10 -8 3 -11 1 -8 -4 3 -5 -9 -19 -27
-31 -34 -22 -23 -21 24 3 23 11 57 58 42 58 -2 0 -7 -7 -11 -16z"/>
<path d="M4126 2941 c-18 -35 -19 -41 -7 -41 11 0 36 59 28 66 -3 3 -13 -8
-21 -25z"/>
<path d="M4170 2943 c0 -46 12 -54 71 -51 49 3 54 5 57 28 2 22 1 23 -8 8 -8
-13 -24 -18 -55 -18 -43 0 -45 1 -45 30 0 17 -4 30 -10 30 -5 0 -10 -12 -10
-27z"/>
<path d="M4230 2950 c6 -11 15 -18 21 -14 6 4 6 11 -2 20 -17 21 -31 17 -19
-6z"/>
<path d="M4310 2962 c0 -13 31 -52 41 -52 6 0 2 14 -8 30 -16 28 -33 39 -33
22z"/>
<path d="M3001 2938 c0 -9 -4 -25 -7 -35 -5 -17 -5 -17 6 0 6 10 9 25 7 35 -4
15 -5 15 -6 0z"/>
<path d="M7505 2924 c-20 -30 -10 -48 11 -20 13 18 19 46 10 46 -2 0 -11 -12
-21 -26z"/>
<path d="M7631 2935 c1 -32 14 -61 23 -47 4 6 0 24 -8 39 -13 23 -15 24 -15 8z"/>
<path d="M7690 2944 c0 -15 37 -61 44 -54 3 3 -6 19 -19 35 -13 17 -24 25 -25
19z"/>
<path d="M3570 2926 c0 -8 6 -16 13 -19 9 -3 8 -8 -3 -23 -14 -18 -14 -18 3
-5 21 17 23 61 2 61 -8 0 -15 -6 -15 -14z"/>
<path d="M5517 2934 c-8 -8 1 -24 14 -24 5 0 9 7 9 15 0 15 -12 20 -23 9z"/>
<path d="M6610 2932 c0 -4 5 -13 12 -20 8 -8 8 -15 -2 -27 -8 -10 -9 -15 -2
-15 16 0 33 36 26 54 -6 16 -34 23 -34 8z"/>
<path d="M7570 2923 c0 -10 5 -25 10 -33 8 -12 10 -9 10 12 0 15 -4 30 -10 33
-5 3 -10 -2 -10 -12z"/>
<path d="M3190 2916 c0 -3 9 -10 20 -16 11 -6 20 -8 20 -6 0 3 -9 10 -20 16
-11 6 -20 8 -20 6z"/>
<path d="M1737 2364 c-21 -14 -43 -36 -49 -49 -6 -14 -15 -25 -20 -25 -4 0 -8
-211 -8 -469 0 -463 0 -470 21 -506 12 -20 39 -47 60 -61 l39 -24 564 0 565 0
3 63 3 62 95 0 95 0 3 -62 c3 -58 5 -63 26 -63 l23 0 -5 123 c-4 102 -2 125
11 135 10 9 45 12 113 10 l97 -3 -1 -134 c-1 -74 1 -131 4 -128 4 3 6 102 7
219 0 125 4 218 10 226 6 8 6 12 -2 12 -15 0 -14 37 2 44 10 5 10 7 0 12 -7 3
-13 14 -13 24 0 10 6 21 13 23 9 4 8 8 -3 16 -13 10 -13 12 0 22 11 8 12 12 3
16 -15 6 -17 43 -3 43 14 0 12 37 -2 43 -10 4 -9 8 2 16 13 10 13 12 0 20 -12
8 -11 13 8 29 27 24 28 32 2 32 -11 0 -20 5 -20 10 0 6 5 10 10 10 6 0 10 27
10 60 0 33 4 60 10 60 6 0 10 5 10 10 0 6 -9 10 -20 10 -11 0 -20 5 -20 10 0
6 5 10 10 10 6 0 10 26 10 59 0 38 5 61 13 65 10 5 10 7 0 12 -7 3 -13 14 -13
25 0 19 -18 19 -812 18 l-813 0 -38 -25z m301 -207 c47 -43 25 -97 -68 -169
l-35 -27 63 -1 c55 0 62 -2 62 -20 0 -19 -7 -20 -90 -20 -88 0 -90 0 -90 24 0
17 19 41 66 82 53 47 64 62 62 83 -5 46 -78 37 -78 -10 0 -14 -7 -19 -25 -19
-52 0 -20 83 38 98 40 11 66 5 95 -21z m210 7 c27 -18 30 -54 3 -54 -10 0 -24
7 -31 15 -18 21 -57 19 -70 -4 -17 -32 -12 -36 34 -33 38 3 49 0 70 -22 50
-49 22 -138 -47 -151 -75 -14 -117 34 -117 133 0 115 73 169 158 116z m500 15
c39 -14 62 -61 62 -131 0 -104 -56 -159 -131 -128 -81 34 -79 227 4 260 29 12
29 12 65 -1z m-168 -19 c0 -18 -7 -20 -60 -20 -60 0 -60 0 -60 -30 0 -28 2
-29 25 -20 41 16 92 -11 103 -52 11 -42 5 -71 -19 -97 -24 -25 -83 -37 -114
-23 -29 13 -59 57 -50 72 11 17 43 11 50 -11 5 -16 14 -20 43 -17 36 3 37 4
37 43 0 37 -2 40 -29 43 -16 2 -33 -1 -39 -7 -6 -6 -21 -11 -34 -11 -20 0 -23
5 -23 44 0 24 3 58 6 75 l7 31 78 0 c72 0 79 -2 79 -20z m-212 -211 c4 -30
-22 -46 -44 -28 -17 14 -18 31 -2 47 19 19 43 9 46 -19z m-238 -339 c0 -91 -3
-110 -15 -110 -12 0 -15 16 -15 85 0 82 -1 85 -19 75 -26 -13 -31 -13 -31 4 0
13 55 55 73 56 4 0 7 -49 7 -110z m252 93 c22 -20 24 -76 2 -97 -9 -9 -32 -29
-52 -44 l-36 -27 54 -5 c30 -3 55 -10 58 -17 3 -10 -16 -13 -72 -13 -69 0 -76
2 -76 19 0 12 24 40 55 68 44 37 55 53 53 73 -2 20 -8 25 -33 25 -22 0 -33 -6
-40 -22 -12 -28 -35 -30 -35 -3 0 50 82 80 122 43z m182 1 c17 -17 22 -69 7
-79 -6 -3 -3 -18 7 -34 13 -24 14 -34 4 -55 -12 -26 -47 -46 -82 -46 -23 0
-57 29 -65 58 -5 18 -2 22 14 22 12 0 21 -6 21 -14 0 -40 73 -45 83 -6 6 24
-16 50 -44 50 -30 0 -23 28 9 32 21 2 27 8 27 28 0 34 -48 41 -67 11 -16 -26
-38 -27 -38 -2 0 44 91 69 124 35z m138 -1 c27 -25 24 -79 -7 -99 -23 -15 -27
-15 -50 0 -19 12 -25 25 -25 51 0 57 44 83 82 48z m62 -90 c-63 -120 -68 -127
-83 -122 -15 6 107 229 125 229 11 0 0 -29 -42 -107z m94 -5 c16 -16 16 -80 0
-96 -19 -19 -66 -15 -78 7 -24 47 -4 101 38 101 16 0 33 -5 40 -12z m-828 -33
c0 -12 -16 -15 -80 -15 -64 0 -80 3 -80 15 0 12 16 15 80 15 64 0 80 -3 80
-15z m188 -58 c2 -12 -3 -17 -17 -17 -12 0 -21 6 -21 13 0 31 32 34 38 4z"/>
<path d="M2152 2038 c-13 -13 -16 -47 -4 -64 23 -33 82 -12 82 30 0 28 -18 46
-45 46 -12 0 -26 -5 -33 -12z"/>
<path d="M2680 2114 c-13 -33 -13 -110 0 -135 6 -11 21 -19 35 -19 32 0 45 26
45 90 0 64 -13 90 -46 90 -17 0 -27 -8 -34 -26z"/>
<path d="M2654 1676 c-9 -23 0 -51 16 -51 10 0 15 10 15 29 0 32 -21 47 -31
22z"/>
<path d="M2811 1586 c-16 -20 -10 -61 9 -61 9 0 16 11 18 29 4 35 -10 52 -27
32z"/>
<path d="M4128 2170 c-4 -8 -9 -27 -12 -42 -3 -14 -9 -33 -12 -42 -3 -9 -1
-16 5 -16 6 0 13 11 17 25 5 20 12 25 40 25 32 0 33 -1 27 -32 -4 -22 -2 -30
4 -23 6 6 13 25 16 43 6 32 6 32 -33 32 -32 0 -39 4 -43 23 -2 16 -5 18 -9 7z"/>
<path d="M4300 2133 c-14 -27 -26 -51 -28 -55 -2 -5 0 -8 5 -8 5 0 17 14 26
30 17 29 21 30 89 30 70 0 70 0 66 -25 -6 -28 6 -34 16 -9 15 40 9 44 -70 44
-71 0 -75 1 -69 20 12 38 -11 20 -35 -27z"/>
<path d="M3980 2160 c0 -5 20 -10 45 -10 l45 0 0 -40 c0 -22 5 -40 10 -40 6 0
10 15 10 34 0 19 3 41 6 50 5 14 -3 16 -55 16 -34 0 -61 -4 -61 -10z"/>
<path d="M4550 2076 c0 -52 -4 -106 -10 -120 -6 -17 -6 -26 0 -26 5 0 15 20
21 46 10 37 15 45 33 42 28 -4 35 -56 10 -75 -21 -15 -14 -26 10 -17 14 5 16
24 16 125 l0 119 -40 0 -40 0 0 -94z m70 49 c0 -20 -5 -25 -25 -25 -20 0 -25
5 -25 25 0 20 5 25 25 25 20 0 25 -5 25 -25z m-2 -67 c-2 -15 -11 -24 -25 -26
-19 -3 -23 1 -23 22 0 21 5 26 26 26 21 0 25 -4 22 -22z"/>
<path d="M4667 2143 c-3 -16 -9 -39 -13 -53 -6 -22 -5 -23 8 -12 9 7 18 26 22
42 4 24 11 30 30 30 21 0 25 -5 28 -32 2 -22 9 -34 21 -36 9 -2 17 1 17 7 0 6
-7 11 -15 11 -10 0 -15 11 -15 35 0 34 -1 35 -39 35 -34 0 -39 -3 -44 -27z"/>
<path d="M4845 2117 c-37 -64 -41 -76 -24 -59 24 23 29 12 29 -65 0 -113 18
-79 22 42 2 55 7 108 12 118 4 9 4 17 0 17 -5 0 -22 -24 -39 -53z"/>
<path d="M4921 2143 c-6 -16 -18 -39 -28 -52 -13 -18 -14 -23 -3 -19 17 5 46
45 55 76 9 32 -11 27 -24 -5z"/>
<path d="M4990 2165 c0 -4 6 -18 14 -33 16 -31 56 -70 56 -55 0 6 -6 16 -14
22 -8 6 -19 25 -26 41 -11 26 -30 41 -30 25z"/>
<path d="M3990 2105 c0 -21 5 -25 30 -25 25 0 30 4 30 25 0 21 -5 25 -30 25
-25 0 -30 -4 -30 -25z m48 -2 c2 -8 -5 -13 -17 -13 -12 0 -21 6 -21 16 0 18
31 15 38 -3z"/>
<path d="M4370 2020 c0 -73 -2 -80 -20 -80 -11 0 -20 -4 -20 -10 0 -11 20 -13
44 -4 13 5 16 23 16 90 0 49 -4 84 -10 84 -6 0 -10 -33 -10 -80z"/>
<path d="M4146 2040 c-4 -31 -16 -60 -31 -77 l-24 -28 -1 52 c0 32 5 53 13 56
6 3 -19 5 -58 4 -52 0 -58 -2 -22 -4 l47 -4 0 -50 c0 -37 -4 -49 -15 -49 -8 0
-15 -4 -15 -10 0 -12 23 -13 34 -3 4 4 17 8 28 8 14 0 27 11 37 32 18 37 27
41 36 14 6 -19 45 -60 45 -47 0 3 -12 25 -27 47 -15 23 -27 55 -27 75 -1 50
-12 41 -20 -16z"/>
<path d="M4910 2060 c0 -5 7 -10 16 -10 23 0 11 -56 -18 -87 -12 -13 -18 -26
-14 -30 12 -12 54 46 61 84 5 27 11 33 30 33 23 0 25 -4 25 -49 0 -45 -3 -50
-27 -59 l-28 -10 31 -1 c38 -1 44 11 44 85 l0 54 -60 0 c-33 0 -60 -4 -60 -10z"/>
<path d="M4650 2051 c0 -5 3 -11 8 -13 4 -1 15 -18 25 -35 l18 -33 -33 -20
c-22 -14 -27 -20 -15 -20 10 0 28 7 42 16 22 14 26 14 49 -1 14 -9 31 -15 38
-13 7 3 -1 12 -20 22 -30 15 -31 18 -18 39 8 12 17 32 21 45 6 21 4 22 -54 22
-34 0 -61 -4 -61 -9z m89 -32 c-8 -11 -18 -20 -24 -20 -5 0 -16 9 -24 20 -13
20 -12 21 24 21 36 0 37 -1 24 -21z"/>
<path d="M4310 2041 c0 -4 -11 -24 -25 -44 -13 -20 -20 -39 -15 -42 5 -3 20
14 34 38 28 48 31 57 16 57 -5 0 -10 -4 -10 -9z"/>
<path d="M4455 2000 c14 -27 30 -50 35 -50 6 0 -1 23 -15 50 -14 28 -30 50
-35 50 -6 0 1 -22 15 -50z"/>
<path d="M3990 1990 c0 -27 3 -30 30 -30 27 0 30 3 30 30 0 27 -3 30 -30 30
-27 0 -30 -3 -30 -30z m48 2 c2 -7 -6 -12 -17 -12 -21 0 -27 11 -14 24 9 9 26
2 31 -12z"/>
<path d="M3035 508 c-2 -7 -9 -30 -15 -50 -10 -33 -15 -38 -43 -38 -54 0 -58
-9 -55 -96 l3 -79 111 -3 c132 -3 135 -1 154 87 17 81 12 91 -48 91 l-48 0 4
35 c2 19 -1 42 -8 50 -15 18 -49 20 -55 3z m45 -17 c5 -11 7 -33 4 -50 -6 -31
-6 -31 37 -31 69 0 73 -6 54 -81 -9 -35 -22 -67 -28 -71 -7 -4 -45 -8 -84 -8
l-73 0 0 75 c0 66 3 77 25 99 14 14 25 36 25 49 0 40 22 50 40 18z m-110 -167
c0 -66 -2 -75 -17 -72 -14 3 -19 15 -21 62 -4 68 1 86 23 86 12 0 15 -14 15
-76z"/>
<path d="M6703 480 c-83 -50 -82 -171 2 -226 40 -26 119 -15 157 23 80 80 21
223 -92 223 -19 0 -49 -9 -67 -20z m154 -34 c37 -40 43 -87 18 -136 -41 -79
-169 -79 -210 0 -66 127 96 241 192 136z"/>
<path d="M6743 414 c9 -12 17 -23 17 -27 0 -3 -8 -8 -17 -10 -17 -4 -17 -5 0
-6 9 0 17 -5 17 -10 0 -5 -8 -12 -17 -14 -17 -4 -17 -5 0 -6 10 -1 17 -9 17
-21 0 -11 5 -20 10 -20 6 0 10 9 10 19 0 12 8 21 23 24 l22 4 -22 2 c-27 1
-30 18 -5 24 16 4 16 5 0 6 -10 0 -18 4 -18 8 0 3 8 16 18 27 17 21 17 21 -4
4 -19 -16 -22 -17 -45 -1 -24 16 -24 16 -6 -3z"/>
<path d="M1444 467 c-3 -8 -3 -56 -2 -108 l3 -94 105 0 105 0 1 50 1 50 -4
-47 -4 -48 -100 0 -99 0 0 99 0 100 53 4 52 3 -53 2 c-36 1 -54 -2 -58 -11z"/>
<path d="M1620 471 c14 -4 27 -17 31 -31 6 -23 7 -22 8 8 1 30 -1 32 -31 31
-30 -1 -31 -2 -8 -8z"/>
<path d="M1903 456 c-4 -7 -15 -16 -23 -19 -12 -4 -12 -6 2 -6 15 -1 16 -5 8
-27 -14 -36 -13 -44 10 -44 30 0 25 -34 -7 -48 l-28 -12 28 5 c24 5 27 2 28
-22 2 -27 2 -27 6 -3 3 13 12 30 21 37 16 12 16 13 0 7 -13 -5 -18 -1 -18 14
0 11 8 23 18 25 15 4 15 5 0 6 -9 0 -19 11 -21 24 l-4 22 -2 -22 c0 -13 -8
-23 -16 -23 -18 0 -18 1 -6 34 7 16 20 26 38 29 l28 4 -29 2 c-21 1 -27 5 -22
16 7 19 0 20 -11 1z"/>
<path d="M2013 456 c-4 -8 -17 -16 -28 -19 -18 -4 -18 -5 3 -6 12 0 22 -6 22
-11 0 -6 -10 -15 -22 -20 -18 -7 -19 -9 -5 -9 13 -1 16 -7 11 -26 -6 -23 -4
-25 30 -25 20 0 36 -4 36 -9 0 -17 -29 -33 -50 -26 -30 10 -24 -1 15 -24 19
-11 35 -16 35 -11 0 4 -5 10 -12 12 -8 3 -5 14 11 34 l23 29 -41 3 c-23 2 -41
6 -41 10 1 19 19 31 55 35 l40 4 -42 1 c-32 2 -41 5 -37 16 3 8 20 17 37 19
l32 4 -34 1 c-25 2 -32 6 -27 17 7 19 0 20 -11 1z"/>
<path d="M2200 445 c0 -20 -5 -25 -26 -25 -21 0 -25 4 -21 20 3 11 2 18 -3 15
-4 -3 -10 -14 -13 -25 -4 -16 0 -20 17 -20 13 0 25 -3 29 -6 10 -10 -21 -76
-51 -108 -15 -16 -20 -27 -12 -24 8 2 26 21 39 41 l24 37 24 -22 c26 -24 27
-21 -24 -55 -10 -7 -1 -5 20 4 35 16 39 16 73 -1 20 -9 39 -15 41 -12 3 3 -11
13 -30 22 l-36 17 20 25 c28 36 24 42 -27 42 -38 0 -45 3 -42 18 2 13 17 18
63 23 l60 6 -59 1 c-57 2 -58 3 -54 27 3 14 1 25 -3 25 -5 0 -9 -11 -9 -25z
m68 -107 c-9 -13 -21 -23 -28 -23 -7 0 -19 10 -27 23 -15 22 -15 22 27 22 42
0 42 0 28 -22z"/>
<path d="M2275 450 c10 -11 20 -20 23 -20 3 0 -3 9 -13 20 -10 11 -20 20 -23
20 -3 0 3 -9 13 -20z"/>
<path d="M3510 438 c0 -35 -2 -38 -30 -38 -28 0 -30 -3 -30 -35 l0 -35 75 0
75 0 0 35 c0 34 -1 35 -40 35 -33 0 -40 3 -40 20 0 17 7 20 48 22 l47 1 -45 4
c-24 3 -48 10 -52 16 -4 7 -8 -5 -8 -25z m80 -73 c0 -24 -2 -25 -65 -25 -63 0
-65 1 -65 25 0 24 2 25 65 25 63 0 65 -1 65 -25z"/>
<path d="M3670 455 c-8 -9 -8 -15 -2 -15 12 0 26 19 19 26 -2 2 -10 -2 -17
-11z"/>
<path d="M3709 463 c-1 -5 -2 -14 -3 -21 0 -7 -5 -16 -11 -20 -17 -12 -36 -52
-25 -52 6 0 15 11 20 25 6 15 15 23 23 19 10 -4 13 3 9 26 -4 28 -11 39 -13
23z"/>
<path d="M3809 464 c-1 -5 -1 -13 0 -17 1 -5 -8 -22 -19 -38 -12 -16 -17 -29
-12 -29 5 0 14 10 19 23 l11 22 10 -25 c10 -22 11 -20 8 18 -3 38 -14 69 -17
46z"/>
<path d="M7131 453 c-1 -14 -9 -23 -23 -26 l-23 -4 23 -2 c18 -1 22 -7 22 -31
0 -22 -6 -33 -22 -41 l-23 -10 23 5 c20 4 22 0 22 -34 0 -28 -5 -40 -17 -43
-14 -4 -12 -5 5 -6 20 -1 22 4 22 43 0 34 5 47 23 59 l22 16 -22 -6 c-19 -4
-23 -1 -23 20 0 16 7 27 18 30 15 4 15 5 0 6 -9 0 -19 11 -21 24 -4 22 -4 22
-6 0z"/>
<path d="M7376 455 c4 -8 10 -15 15 -15 4 0 6 7 3 15 -4 8 -10 15 -15 15 -4 0
-6 -7 -3 -15z"/>
<path d="M7430 455 c0 -8 4 -15 10 -15 5 0 7 7 4 15 -4 8 -8 15 -10 15 -2 0
-4 -7 -4 -15z"/>
<path d="M7480 455 c-10 -12 -10 -15 2 -15 8 0 15 7 15 15 0 8 -1 15 -2 15 -2
0 -8 -7 -15 -15z"/>
<path d="M8861 463 c-1 -7 -17 -28 -36 -48 -20 -19 -32 -35 -27 -35 16 0 74
68 69 82 -4 9 -6 9 -6 1z"/>
<path d="M8933 445 c15 -31 54 -71 61 -64 2 2 -14 24 -36 49 -34 37 -38 40
-25 15z"/>
<path d="M9125 461 c3 -6 -16 -12 -42 -14 -27 -2 -1 -3 57 -3 58 0 81 1 53 3
-29 2 -53 8 -53 14 0 5 -5 9 -11 9 -5 0 -8 -4 -4 -9z"/>
<path d="M1570 400 c-36 -33 -60 -59 -55 -60 6 0 37 27 70 60 33 33 57 60 55
60 -3 -1 -34 -27 -70 -60z"/>
<path d="M3765 450 c-3 -5 -2 -10 4 -10 5 0 13 5 16 10 3 6 2 10 -4 10 -5 0
-13 -4 -16 -10z"/>
<path d="M8478 430 c-3 -16 -1 -30 3 -30 4 0 9 12 11 26 l3 26 43 -38 43 -39
-45 -45 c-46 -44 -46 -44 -46 -17 0 25 -3 27 -38 27 -21 0 -48 -7 -60 -16 -31
-22 -35 -14 -12 24 12 19 32 35 52 41 25 7 28 9 11 10 -32 1 -82 -48 -90 -89
l-6 -35 32 28 c22 18 44 27 67 27 30 0 34 -3 34 -25 0 -14 4 -25 8 -25 4 0 29
22 55 48 l47 48 -43 42 c-23 23 -48 42 -54 42 -6 0 -13 -13 -15 -30z"/>
<path d="M3986 434 c-9 -8 -16 -20 -16 -27 0 -6 9 -1 21 12 12 12 28 20 36 17
8 -3 17 -6 19 -6 2 0 4 -11 4 -24 0 -13 -17 -43 -40 -69 -22 -25 -40 -48 -40
-51 0 -3 23 -6 50 -6 57 0 68 17 14 22 l-37 3 37 43 c20 24 36 50 36 57 0 20
-28 45 -50 45 -10 0 -26 -7 -34 -16z"/>
<path d="M4110 440 c0 -5 21 -10 46 -10 l46 0 -41 -75 c-23 -41 -38 -75 -34
-75 9 0 83 141 83 158 0 8 -18 12 -50 12 -27 0 -50 -4 -50 -10z"/>
<path d="M4268 439 c-12 -6 -18 -22 -18 -45 0 -43 38 -67 72 -45 27 17 33 8
16 -26 -16 -34 -43 -41 -69 -17 -10 9 -19 12 -19 6 0 -13 32 -32 54 -32 31 0
56 38 56 85 0 68 -43 103 -92 74z m53 -9 c11 -6 19 -21 19 -35 0 -20 -24 -45
-44 -45 -10 0 -36 32 -36 45 0 13 26 45 36 45 3 0 14 -5 25 -10z"/>
<path d="M7218 443 l32 -4 0 -84 c0 -79 -1 -84 -22 -88 -20 -5 -20 -5 2 -4 24
2 25 4 28 89 3 80 4 87 25 91 12 2 -5 4 -38 4 -33 0 -45 -2 -27 -4z"/>
<path d="M7666 431 c-25 -28 -24 -108 2 -134 31 -31 69 -16 82 31 23 86 -35
157 -84 103z m58 -7 c30 -30 14 -134 -21 -134 -4 0 -15 7 -25 17 -23 21 -24
89 -1 115 20 22 27 22 47 2z"/>
<path d="M9368 432 c-16 -9 -28 -20 -28 -25 0 -4 11 0 25 9 l24 16 4 -79 3
-78 2 88 c1 48 1 87 0 87 -2 0 -15 -8 -30 -18z"/>
<path d="M7340 420 c0 -11 2 -20 4 -20 2 0 6 9 9 20 3 11 1 20 -4 20 -5 0 -9
-9 -9 -20z"/>
<path d="M7522 420 c0 -14 2 -19 5 -12 2 6 2 18 0 25 -3 6 -5 1 -5 -13z"/>
<path d="M9070 400 c0 -18 7 -20 70 -20 63 0 70 2 70 20 0 18 -7 20 -70 20
-63 0 -70 -2 -70 -20z m130 0 c0 -6 -27 -10 -60 -10 -33 0 -60 4 -60 10 0 6
27 10 60 10 33 0 60 -4 60 -10z"/>
<path d="M7381 394 c0 -11 3 -14 6 -6 3 7 2 16 -1 19 -3 4 -6 -2 -5 -13z"/>
<path d="M7481 394 c0 -11 3 -14 6 -6 3 7 2 16 -1 19 -3 4 -6 -2 -5 -13z"/>
<path d="M3718 383 c7 -3 16 -2 19 1 4 3 -2 6 -13 5 -11 0 -14 -3 -6 -6z"/>
<path d="M8848 373 c31 -6 28 -38 -8 -75 -36 -36 -38 -44 -6 -23 13 9 31 34
40 56 14 33 20 39 46 39 28 0 30 -2 30 -39 0 -42 -11 -57 -50 -64 -21 -4 -20
-4 7 -6 39 -1 53 20 53 78 l0 41 -67 -1 c-38 -1 -58 -4 -45 -6z"/>
<path d="M3691 328 c2 -31 2 -31 6 -5 4 26 7 27 63 27 56 0 59 -1 63 -27 4
-26 4 -26 6 5 l1 32 -70 0 -70 0 1 -32z"/>
<path d="M9113 353 c44 -3 65 -8 61 -14 -5 -9 31 5 45 17 2 2 -36 3 -85 2 -83
-2 -84 -2 -21 -5z"/>
<path d="M7372 320 c0 -19 2 -27 5 -17 2 9 2 25 0 35 -3 9 -5 1 -5 -18z"/>
<path d="M7498 325 c2 -14 6 -25 8 -25 2 0 4 11 4 25 0 14 -4 25 -9 25 -4 0
-6 -11 -3 -25z"/>
<path d="M3740 306 c-12 -14 -37 -28 -54 -32 -17 -4 -26 -9 -19 -11 19 -7 81
24 93 46 14 28 9 26 -20 -3z"/>
<path d="M7431 318 c-1 -22 -39 -48 -70 -48 -13 0 -22 -3 -18 -6 3 -4 22 -3
41 0 36 7 62 36 52 59 -2 7 -5 5 -5 -5z"/>
<path d="M9134 321 c-5 -6 -31 -12 -59 -14 l-50 -3 58 -2 c59 -2 74 -16 35
-32 l-23 -9 23 0 c16 -1 26 6 29 19 4 16 15 20 52 22 l46 1 -45 4 c-24 3 -47
9 -50 14 -4 5 -10 5 -16 0z"/>
<path d="M3430 289 c-7 -11 -10 -23 -7 -25 2 -2 9 7 15 21 14 30 7 33 -8 4z"/>
<path d="M3481 305 c1 -19 18 -51 18 -35 0 8 -4 22 -9 30 -5 8 -9 11 -9 5z"/>
<path d="M3537 290 c3 -11 9 -22 13 -25 5 -3 6 4 3 15 -3 11 -9 22 -13 25 -5
3 -6 -4 -3 -15z"/>
<path d="M3591 305 c0 -5 6 -19 14 -29 8 -11 15 -15 15 -10 0 6 -7 19 -15 30
-8 10 -14 15 -14 9z"/>
<path d="M3810 275 c46 -18 64 -17 25 0 -16 8 -37 14 -45 14 -8 0 1 -7 20 -14z"/>
<path d="M7480 275 c46 -18 64 -17 25 0 -16 8 -37 14 -45 14 -8 0 1 -7 20 -14z"/>
</g>
</svg>
