<svg id="mermaid-1786077405950" width="100%" xmlns="http://www.w3.org/2000/svg" style="max-width: 1336.25px;" viewBox="-8 -8 1336.25 202" role="graphics-document document" aria-roledescription="flowchart-v2"> style="max-width:100%;height:auto;"<style>#mermaid-1786077405950{font-family:"trebuchet ms",verdana,arial,sans-serif;font-size:16px;fill:#333;}#mermaid-1786077405950 .error-icon{fill:#552222;}#mermaid-1786077405950 .error-text{fill:#552222;stroke:#552222;}#mermaid-1786077405950 .edge-thickness-normal{stroke-width:2px;}#mermaid-1786077405950 .edge-thickness-thick{stroke-width:3.5px;}#mermaid-1786077405950 .edge-pattern-solid{stroke-dasharray:0;}#mermaid-1786077405950 .edge-pattern-dashed{stroke-dasharray:3;}#mermaid-1786077405950 .edge-pattern-dotted{stroke-dasharray:2;}#mermaid-1786077405950 .marker{fill:#333333;stroke:#333333;}#mermaid-1786077405950 .marker.cross{stroke:#333333;}#mermaid-1786077405950 svg{font-family:"trebuchet ms",verdana,arial,sans-serif;font-size:16px;}#mermaid-1786077405950 .label{font-family:"trebuchet ms",verdana,arial,sans-serif;color:#333;}#mermaid-1786077405950 .cluster-label text{fill:#333;}#mermaid-1786077405950 .cluster-label span,#mermaid-1786077405950 p{color:#333;}#mermaid-1786077405950 .label text,#mermaid-1786077405950 span,#mermaid-1786077405950 p{fill:#333;color:#333;}#mermaid-1786077405950 .node rect,#mermaid-1786077405950 .node circle,#mermaid-1786077405950 .node ellipse,#mermaid-1786077405950 .node polygon,#mermaid-1786077405950 .node path{fill:#ECECFF;stroke:#9370DB;stroke-width:1px;}#mermaid-1786077405950 .flowchart-label text{text-anchor:middle;}#mermaid-1786077405950 .node .katex path{fill:#000;stroke:#000;stroke-width:1px;}#mermaid-1786077405950 .node .label{text-align:center;}#mermaid-1786077405950 .node.clickable{cursor:pointer;}#mermaid-1786077405950 .arrowheadPath{fill:#333333;}#mermaid-1786077405950 .edgePath .path{stroke:#333333;stroke-width:2.0px;}#mermaid-1786077405950 .flowchart-link{stroke:#333333;fill:none;}#mermaid-1786077405950 .edgeLabel{background-color:#e8e8e8;text-align:center;}#mermaid-1786077405950 .edgeLabel rect{opacity:0.5;background-color:#e8e8e8;fill:#e8e8e8;}#mermaid-1786077405950 .labelBkg{background-color:rgba(232, 232, 232, 0.5);}#mermaid-1786077405950 .cluster rect{fill:#ffffde;stroke:#aaaa33;stroke-width:1px;}#mermaid-1786077405950 .cluster text{fill:#333;}#mermaid-1786077405950 .cluster span,#mermaid-1786077405950 p{color:#333;}#mermaid-1786077405950 div.mermaidTooltip{position:absolute;text-align:center;max-width:200px;padding:2px;font-family:"trebuchet ms",verdana,arial,sans-serif;font-size:12px;background:hsl(80, 100%, 96.2745098039%);border:1px solid #aaaa33;border-radius:2px;pointer-events:none;z-index:100;}#mermaid-1786077405950 .flowchartTitleText{text-anchor:middle;font-size:18px;fill:#333;}#mermaid-1786077405950 :root{--mermaid-font-family:"trebuchet ms",verdana,arial,sans-serif;}</style><g><marker id="mermaid-1786077405950_flowchart-pointEnd" class="marker flowchart" viewBox="0 0 10 10" refX="6" refY="5" markerUnits="userSpaceOnUse" markerWidth="12" markerHeight="12" orient="auto"><path d="M 0 0 L 10 5 L 0 10 z" class="arrowMarkerPath" style="stroke-width: 1; stroke-dasharray: 1, 0;"></path></marker><marker id="mermaid-1786077405950_flowchart-pointStart" class="marker flowchart" viewBox="0 0 10 10" refX="4.5" refY="5" markerUnits="userSpaceOnUse" markerWidth="12" markerHeight="12" orient="auto"><path d="M 0 5 L 10 10 L 10 0 z" class="arrowMarkerPath" style="stroke-width: 1; stroke-dasharray: 1, 0;"></path></marker><marker id="mermaid-1786077405950_flowchart-circleEnd" class="marker flowchart" viewBox="0 0 10 10" refX="11" refY="5" markerUnits="userSpaceOnUse" markerWidth="11" markerHeight="11" orient="auto"><circle cx="5" cy="5" r="5" class="arrowMarkerPath" style="stroke-width: 1; stroke-dasharray: 1, 0;"></circle></marker><marker id="mermaid-1786077405950_flowchart-circleStart" class="marker flowchart" viewBox="0 0 10 10" refX="-1" refY="5" markerUnits="userSpaceOnUse" markerWidth="11" markerHeight="11" orient="auto"><circle cx="5" cy="5" r="5" class="arrowMarkerPath" style="stroke-width: 1; stroke-dasharray: 1, 0;"></circle></marker><marker id="mermaid-1786077405950_flowchart-crossEnd" class="marker cross flowchart" viewBox="0 0 11 11" refX="12" refY="5.2" markerUnits="userSpaceOnUse" markerWidth="11" markerHeight="11" orient="auto"><path d="M 1,1 l 9,9 M 10,1 l -9,9" class="arrowMarkerPath" style="stroke-width: 2; stroke-dasharray: 1, 0;"></path></marker><marker id="mermaid-1786077405950_flowchart-crossStart" class="marker cross flowchart" viewBox="0 0 11 11" refX="-1" refY="5.2" markerUnits="userSpaceOnUse" markerWidth="11" markerHeight="11" orient="auto"><path d="M 1,1 l 9,9 M 10,1 l -9,9" class="arrowMarkerPath" style="stroke-width: 2; stroke-dasharray: 1, 0;"></path></marker><g class="root"><g class="clusters"></g><g class="edgePaths"><path d="M59.859,169L64.026,169C68.193,169,76.526,169,83.976,169C91.426,169,97.993,169,101.276,169L104.559,169" id="L-I-C-0" class=" edge-thickness-normal edge-pattern-solid flowchart-link LS-I LE-C" style="fill:none;" marker-end="url(#mermaid-1786077405950_flowchart-pointEnd)"></path><path d="M218.563,169L222.729,169C226.896,169,235.229,169,242.679,169C250.129,169,256.696,169,259.979,169L263.263,169" id="L-C-P-0" class=" edge-thickness-normal edge-pattern-solid flowchart-link LS-C LE-P" style="fill:none;" marker-end="url(#mermaid-1786077405950_flowchart-pointEnd)"></path><path d="M314.344,169L318.51,169C322.677,169,331.01,169,338.46,169C345.91,169,352.477,169,355.76,169L359.044,169" id="L-P-V-0" class=" edge-thickness-normal edge-pattern-solid flowchart-link LS-P LE-V" style="fill:none;" marker-end="url(#mermaid-1786077405950_flowchart-pointEnd)"></path><path d="M415.601,152L426.045,140C436.489,128,457.377,104,475.416,92C493.455,80,508.644,80,516.238,80L523.833,80" id="L-V-S-0" class=" edge-thickness-normal edge-pattern-solid flowchart-link LS-V LE-S" style="fill:none;" marker-end="url(#mermaid-1786077405950_flowchart-pointEnd)"></path><path d="M437.266,161.704L444.099,160.337C450.932,158.969,464.599,156.235,486.266,154.867C507.932,153.5,537.599,153.5,572.599,153.5C607.599,153.5,647.932,153.5,688.886,153.5C729.84,153.5,771.415,153.5,792.202,153.5L812.989,153.5" id="L-V-R-0" class=" edge-thickness-normal edge-pattern-solid flowchart-link LS-V LE-R" style="fill:none;" marker-end="url(#mermaid-1786077405950_flowchart-pointEnd)"></path><path d="M818.289,159.117L796.618,163.348C774.948,167.578,731.607,176.039,689.77,180.27C647.932,184.5,607.599,184.5,572.599,184.5C537.599,184.5,507.932,184.5,487.132,183.306C466.331,182.112,454.397,179.724,448.43,178.53L442.463,177.336" id="L-R-V-0" class=" edge-thickness-normal edge-pattern-solid flowchart-link LS-R LE-V" style="fill:none;" marker-end="url(#mermaid-1786077405950_flowchart-pointEnd)"></path><path d="M605.398,73.382L619.21,70.985C633.021,68.588,660.643,63.794,685.738,61.397C710.832,59,733.399,59,744.682,59L755.966,59" id="L-S-A-0" class=" edge-thickness-normal edge-pattern-solid flowchart-link LS-S LE-A" style="fill:none;" marker-end="url(#mermaid-1786077405950_flowchart-pointEnd)"></path><path d="M605.398,88.351L619.21,91.376C633.021,94.401,660.643,100.45,695.278,109.638C729.913,118.827,771.56,131.153,792.383,137.316L813.207,143.48" id="L-S-R-0" class=" edge-thickness-normal edge-pattern-solid flowchart-link LS-S LE-R" style="fill:none;" marker-end="url(#mermaid-1786077405950_flowchart-pointEnd)"></path><path d="M904.861,42L919.028,37.833C933.194,33.667,961.527,25.333,984.31,21.167C1007.093,17,1024.326,17,1032.943,17L1041.559,17" id="L-A-SU-0" class=" edge-thickness-normal edge-pattern-solid flowchart-link LS-A LE-SU" style="fill:none;" marker-end="url(#mermaid-1786077405950_flowchart-pointEnd)"></path><path d="M904.861,76L919.028,80.167C933.194,84.333,961.527,92.667,984.467,96.833C1007.408,101,1024.956,101,1033.73,101L1042.505,101" id="L-A-CA-0" class=" edge-thickness-normal edge-pattern-solid flowchart-link LS-A LE-CA" style="fill:none;" marker-end="url(#mermaid-1786077405950_flowchart-pointEnd)"></path><path d="M1110.188,17L1114.354,17C1118.521,17,1126.854,17,1135.904,20.639C1144.953,24.278,1154.719,31.555,1159.602,35.194L1164.485,38.833" id="L-SU-PE-0" class=" edge-thickness-normal edge-pattern-solid flowchart-link LS-SU LE-PE" style="fill:none;" marker-end="url(#mermaid-1786077405950_flowchart-pointEnd)"></path><path d="M1109.242,101L1113.566,101C1117.891,101,1126.539,101,1135.746,97.361C1144.953,93.722,1154.719,86.445,1159.602,82.806L1164.485,79.167" id="L-CA-PE-0" class=" edge-thickness-normal edge-pattern-solid flowchart-link LS-CA LE-PE" style="fill:none;" marker-end="url(#mermaid-1786077405950_flowchart-pointEnd)"></path><path d="M1222.906,59L1227.073,59C1231.24,59,1239.573,59,1247.023,59C1254.473,59,1261.04,59,1264.323,59L1267.606,59" id="L-PE-F-0" class=" edge-thickness-normal edge-pattern-solid flowchart-link LS-PE LE-F" style="fill:none;" marker-end="url(#mermaid-1786077405950_flowchart-pointEnd)"></path></g><g class="edgeLabels"><g class="edgeLabel"><g class="label" transform="translate(0, 0)"><foreignObject width="0" height="0"><div xmlns="http://www.w3.org/1999/xhtml" style="display: inline-block; white-space: nowrap;"><span class="edgeLabel"></span></div></foreignObject></g></g><g class="edgeLabel"><g class="label" transform="translate(0, 0)"><foreignObject width="0" height="0"><div xmlns="http://www.w3.org/1999/xhtml" style="display: inline-block; white-space: nowrap;"><span class="edgeLabel"></span></div></foreignObject></g></g><g class="edgeLabel"><g class="label" transform="translate(0, 0)"><foreignObject width="0" height="0"><div xmlns="http://www.w3.org/1999/xhtml" style="display: inline-block; white-space: nowrap;"><span class="edgeLabel"></span></div></foreignObject></g></g><g class="edgeLabel" transform="translate(478.265625, 80)"><g class="label" transform="translate(-16, -11)"><foreignObject width="32" height="22"><div xmlns="http://www.w3.org/1999/xhtml" style="display: inline-block; white-space: nowrap;"><span class="edgeLabel">通过</span></div></foreignObject></g></g><g class="edgeLabel" transform="translate(567.265625, 153.5)"><g class="label" transform="translate(-48, -11)"><foreignObject width="96" height="22"><div xmlns="http://www.w3.org/1999/xhtml" style="display: inline-block; white-space: nowrap;"><span class="edgeLabel">失败且未超限</span></div></foreignObject></g></g><g class="edgeLabel"><g class="label" transform="translate(0, 0)"><foreignObject width="0" height="0"><div xmlns="http://www.w3.org/1999/xhtml" style="display: inline-block; white-space: nowrap;"><span class="edgeLabel"></span></div></foreignObject></g></g><g class="edgeLabel" transform="translate(688.265625, 59)"><g class="label" transform="translate(-16, -11)"><foreignObject width="32" height="22"><div xmlns="http://www.w3.org/1999/xhtml" style="display: inline-block; white-space: nowrap;"><span class="edgeLabel">通过</span></div></foreignObject></g></g><g class="edgeLabel" transform="translate(688.265625, 106.5)"><g class="label" transform="translate(-48, -11)"><foreignObject width="96" height="22"><div xmlns="http://www.w3.org/1999/xhtml" style="display: inline-block; white-space: nowrap;"><span class="edgeLabel">失败且未超限</span></div></foreignObject></g></g><g class="edgeLabel" transform="translate(989.859375, 17)"><g class="label" transform="translate(-32, -11)"><foreignObject width="64" height="22"><div xmlns="http://www.w3.org/1999/xhtml" style="display: inline-block; white-space: nowrap;"><span class="edgeLabel">提交审批</span></div></foreignObject></g></g><g class="edgeLabel" transform="translate(989.859375, 101)"><g class="label" transform="translate(-16, -11)"><foreignObject width="32" height="22"><div xmlns="http://www.w3.org/1999/xhtml" style="display: inline-block; white-space: nowrap;"><span class="edgeLabel">取消</span></div></foreignObject></g></g><g class="edgeLabel"><g class="label" transform="translate(0, 0)"><foreignObject width="0" height="0"><div xmlns="http://www.w3.org/1999/xhtml" style="display: inline-block; white-space: nowrap;"><span class="edgeLabel"></span></div></foreignObject></g></g><g class="edgeLabel"><g class="label" transform="translate(0, 0)"><foreignObject width="0" height="0"><div xmlns="http://www.w3.org/1999/xhtml" style="display: inline-block; white-space: nowrap;"><span class="edgeLabel"></span></div></foreignObject></g></g><g class="edgeLabel"><g class="label" transform="translate(0, 0)"><foreignObject width="0" height="0"><div xmlns="http://www.w3.org/1999/xhtml" style="display: inline-block; white-space: nowrap;"><span class="edgeLabel"></span></div></foreignObject></g></g></g><g class="nodes"><g class="node default default flowchart-label" id="flowchart-I-0" data-node="true" data-id="I" transform="translate(29.9296875, 169)"><rect class="basic label-container" style="" rx="0" ry="0" x="-29.9296875" y="-17" width="59.859375" height="34"></rect><g class="label" style="" transform="translate(-22.4296875, -9.5)"><rect></rect><foreignObject width="44.859375" height="19"><div xmlns="http://www.w3.org/1999/xhtml" style="display: inline-block; white-space: nowrap;"><span class="nodeLabel">intake</span></div></foreignObject></g></g><g class="node default default flowchart-label" id="flowchart-C-1" data-node="true" data-id="C" transform="translate(164.2109375, 169)"><rect class="basic label-container" style="" rx="0" ry="0" x="-54.3515625" y="-17" width="108.703125" height="34"></rect><g class="label" style="" transform="translate(-46.8515625, -9.5)"><rect></rect><foreignObject width="93.703125" height="19"><div xmlns="http://www.w3.org/1999/xhtml" style="display: inline-block; white-space: nowrap;"><span class="nodeLabel">load_context</span></div></foreignObject></g></g><g class="node default default flowchart-label" id="flowchart-P-3" data-node="true" data-id="P" transform="translate(291.453125, 169)"><rect class="basic label-container" style="" rx="0" ry="0" x="-22.890625" y="-17" width="45.78125" height="34"></rect><g class="label" style="" transform="translate(-15.390625, -9.5)"><rect></rect><foreignObject width="30.78125" height="19"><div xmlns="http://www.w3.org/1999/xhtml" style="display: inline-block; white-space: nowrap;"><span class="nodeLabel">plan</span></div></foreignObject></g></g><g class="node default default flowchart-label" id="flowchart-V-5" data-node="true" data-id="V" transform="translate(400.8046875, 169)"><rect class="basic label-container" style="" rx="0" ry="0" x="-36.4609375" y="-17" width="72.921875" height="34"></rect><g class="label" style="" transform="translate(-28.9609375, -9.5)"><rect></rect><foreignObject width="57.921875" height="19"><div xmlns="http://www.w3.org/1999/xhtml" style="display: inline-block; white-space: nowrap;"><span class="nodeLabel">validate</span></div></foreignObject></g></g><g class="node default default flowchart-label" id="flowchart-S-7" data-node="true" data-id="S" transform="translate(567.265625, 80)"><rect class="basic label-container" style="" rx="0" ry="0" x="-38.1328125" y="-17" width="76.265625" height="34"></rect><g class="label" style="" transform="translate(-30.6328125, -9.5)"><rect></rect><foreignObject width="61.265625" height="19"><div xmlns="http://www.w3.org/1999/xhtml" style="display: inline-block; white-space: nowrap;"><span class="nodeLabel">simulate</span></div></foreignObject></g></g><g class="node default default flowchart-label" id="flowchart-R-9" data-node="true" data-id="R" transform="translate(847.0625, 153.5)"><rect class="basic label-container" style="" rx="0" ry="0" x="-28.7734375" y="-17" width="57.546875" height="34"></rect><g class="label" style="" transform="translate(-21.2734375, -9.5)"><rect></rect><foreignObject width="42.546875" height="19"><div xmlns="http://www.w3.org/1999/xhtml" style="display: inline-block; white-space: nowrap;"><span class="nodeLabel">revise</span></div></foreignObject></g></g><g class="node default default flowchart-label" id="flowchart-A-13" data-node="true" data-id="A" transform="translate(847.0625, 59)"><rect class="basic label-container" style="" rx="0" ry="0" x="-85.796875" y="-17" width="171.59375" height="34"></rect><g class="label" style="" transform="translate(-78.296875, -9.5)"><rect></rect><foreignObject width="156.59375" height="19"><div xmlns="http://www.w3.org/1999/xhtml" style="display: inline-block; white-space: nowrap;"><span class="nodeLabel">approval / interrupt()</span></div></foreignObject></g></g><g class="node default default flowchart-label" id="flowchart-SU-17" data-node="true" data-id="SU" transform="translate(1078.5234375, 17)"><rect class="basic label-container" style="" rx="0" ry="0" x="-31.6640625" y="-17" width="63.328125" height="34"></rect><g class="label" style="" transform="translate(-24.1640625, -9.5)"><rect></rect><foreignObject width="48.328125" height="19"><div xmlns="http://www.w3.org/1999/xhtml" style="display: inline-block; white-space: nowrap;"><span class="nodeLabel">submit</span></div></foreignObject></g></g><g class="node default default flowchart-label" id="flowchart-CA-19" data-node="true" data-id="CA" transform="translate(1078.5234375, 101)"><rect class="basic label-container" style="" rx="0" ry="0" x="-30.71875" y="-17" width="61.4375" height="34"></rect><g class="label" style="" transform="translate(-23.21875, -9.5)"><rect></rect><foreignObject width="46.4375" height="19"><div xmlns="http://www.w3.org/1999/xhtml" style="display: inline-block; white-space: nowrap;"><span class="nodeLabel">cancel</span></div></foreignObject></g></g><g class="node default default flowchart-label" id="flowchart-PE-21" data-node="true" data-id="PE" transform="translate(1191.546875, 59)"><rect class="basic label-container" style="" rx="0" ry="0" x="-31.359375" y="-17" width="62.71875" height="34"></rect><g class="label" style="" transform="translate(-23.859375, -9.5)"><rect></rect><foreignObject width="47.71875" height="19"><div xmlns="http://www.w3.org/1999/xhtml" style="display: inline-block; white-space: nowrap;"><span class="nodeLabel">persist</span></div></foreignObject></g></g><g class="node default default flowchart-label" id="flowchart-F-25" data-node="true" data-id="F" transform="translate(1296.578125, 59)"><rect class="basic label-container" style="" rx="0" ry="0" x="-23.671875" y="-17" width="47.34375" height="34"></rect><g class="label" style="" transform="translate(-16.171875, -9.5)"><rect></rect><foreignObject width="32.34375" height="19"><div xmlns="http://www.w3.org/1999/xhtml" style="display: inline-block; white-space: nowrap;"><span class="nodeLabel">final</span></div></foreignObject></g></g></g></g></g></svg>