<svg id="mermaid-1786077448625" width="100%" xmlns="http://www.w3.org/2000/svg" style="max-width: 733.40625px;" viewBox="-8 -8 733.40625 760" role="graphics-document document" aria-roledescription="flowchart-v2"> style="max-width:100%;height:auto;"<style>#mermaid-1786077448625{font-family:"trebuchet ms",verdana,arial,sans-serif;font-size:16px;fill:#333;}#mermaid-1786077448625 .error-icon{fill:#552222;}#mermaid-1786077448625 .error-text{fill:#552222;stroke:#552222;}#mermaid-1786077448625 .edge-thickness-normal{stroke-width:2px;}#mermaid-1786077448625 .edge-thickness-thick{stroke-width:3.5px;}#mermaid-1786077448625 .edge-pattern-solid{stroke-dasharray:0;}#mermaid-1786077448625 .edge-pattern-dashed{stroke-dasharray:3;}#mermaid-1786077448625 .edge-pattern-dotted{stroke-dasharray:2;}#mermaid-1786077448625 .marker{fill:#333333;stroke:#333333;}#mermaid-1786077448625 .marker.cross{stroke:#333333;}#mermaid-1786077448625 svg{font-family:"trebuchet ms",verdana,arial,sans-serif;font-size:16px;}#mermaid-1786077448625 .label{font-family:"trebuchet ms",verdana,arial,sans-serif;color:#333;}#mermaid-1786077448625 .cluster-label text{fill:#333;}#mermaid-1786077448625 .cluster-label span,#mermaid-1786077448625 p{color:#333;}#mermaid-1786077448625 .label text,#mermaid-1786077448625 span,#mermaid-1786077448625 p{fill:#333;color:#333;}#mermaid-1786077448625 .node rect,#mermaid-1786077448625 .node circle,#mermaid-1786077448625 .node ellipse,#mermaid-1786077448625 .node polygon,#mermaid-1786077448625 .node path{fill:#ECECFF;stroke:#9370DB;stroke-width:1px;}#mermaid-1786077448625 .flowchart-label text{text-anchor:middle;}#mermaid-1786077448625 .node .katex path{fill:#000;stroke:#000;stroke-width:1px;}#mermaid-1786077448625 .node .label{text-align:center;}#mermaid-1786077448625 .node.clickable{cursor:pointer;}#mermaid-1786077448625 .arrowheadPath{fill:#333333;}#mermaid-1786077448625 .edgePath .path{stroke:#333333;stroke-width:2.0px;}#mermaid-1786077448625 .flowchart-link{stroke:#333333;fill:none;}#mermaid-1786077448625 .edgeLabel{background-color:#e8e8e8;text-align:center;}#mermaid-1786077448625 .edgeLabel rect{opacity:0.5;background-color:#e8e8e8;fill:#e8e8e8;}#mermaid-1786077448625 .labelBkg{background-color:rgba(232, 232, 232, 0.5);}#mermaid-1786077448625 .cluster rect{fill:#ffffde;stroke:#aaaa33;stroke-width:1px;}#mermaid-1786077448625 .cluster text{fill:#333;}#mermaid-1786077448625 .cluster span,#mermaid-1786077448625 p{color:#333;}#mermaid-1786077448625 div.mermaidTooltip{position:absolute;text-align:center;max-width:200px;padding:2px;font-family:"trebuchet ms",verdana,arial,sans-serif;font-size:12px;background:hsl(80, 100%, 96.2745098039%);border:1px solid #aaaa33;border-radius:2px;pointer-events:none;z-index:100;}#mermaid-1786077448625 .flowchartTitleText{text-anchor:middle;font-size:18px;fill:#333;}#mermaid-1786077448625 :root{--mermaid-font-family:"trebuchet ms",verdana,arial,sans-serif;}</style><g><marker id="mermaid-1786077448625_flowchart-pointEnd" class="marker flowchart" viewBox="0 0 10 10" refX="6" refY="5" markerUnits="userSpaceOnUse" markerWidth="12" markerHeight="12" orient="auto"><path d="M 0 0 L 10 5 L 0 10 z" class="arrowMarkerPath" style="stroke-width: 1; stroke-dasharray: 1, 0;"></path></marker><marker id="mermaid-1786077448625_flowchart-pointStart" class="marker flowchart" viewBox="0 0 10 10" refX="4.5" refY="5" markerUnits="userSpaceOnUse" markerWidth="12" markerHeight="12" orient="auto"><path d="M 0 5 L 10 10 L 10 0 z" class="arrowMarkerPath" style="stroke-width: 1; stroke-dasharray: 1, 0;"></path></marker><marker id="mermaid-1786077448625_flowchart-circleEnd" class="marker flowchart" viewBox="0 0 10 10" refX="11" refY="5" markerUnits="userSpaceOnUse" markerWidth="11" markerHeight="11" orient="auto"><circle cx="5" cy="5" r="5" class="arrowMarkerPath" style="stroke-width: 1; stroke-dasharray: 1, 0;"></circle></marker><marker id="mermaid-1786077448625_flowchart-circleStart" class="marker flowchart" viewBox="0 0 10 10" refX="-1" refY="5" markerUnits="userSpaceOnUse" markerWidth="11" markerHeight="11" orient="auto"><circle cx="5" cy="5" r="5" class="arrowMarkerPath" style="stroke-width: 1; stroke-dasharray: 1, 0;"></circle></marker><marker id="mermaid-1786077448625_flowchart-crossEnd" class="marker cross flowchart" viewBox="0 0 11 11" refX="12" refY="5.2" markerUnits="userSpaceOnUse" markerWidth="11" markerHeight="11" orient="auto"><path d="M 1,1 l 9,9 M 10,1 l -9,9" class="arrowMarkerPath" style="stroke-width: 2; stroke-dasharray: 1, 0;"></path></marker><marker id="mermaid-1786077448625_flowchart-crossStart" class="marker cross flowchart" viewBox="0 0 11 11" refX="-1" refY="5.2" markerUnits="userSpaceOnUse" markerWidth="11" markerHeight="11" orient="auto"><path d="M 1,1 l 9,9 M 10,1 l -9,9" class="arrowMarkerPath" style="stroke-width: 2; stroke-dasharray: 1, 0;"></path></marker><g class="root"><g class="clusters"><g class="cluster default flowchart-label" id="说明"><rect style="" rx="0" ry="0" x="0" y="657" width="717.40625" height="87"></rect><g class="cluster-label" transform="translate(342.703125, 657)"><foreignObject width="32" height="22"><div xmlns="http://www.w3.org/1999/xhtml" style="display: inline-block; white-space: nowrap;"><span class="nodeLabel">说明</span></div></foreignObject></g></g></g><g class="edgePaths"><path d="M354.18,37L354.18,41.167C354.18,45.333,354.18,53.667,354.18,61.117C354.18,68.567,354.18,75.133,354.18,78.417L354.18,81.7" id="L-A-B-0" class=" edge-thickness-normal edge-pattern-solid flowchart-link LS-A LE-B" style="fill:none;" marker-end="url(#mermaid-1786077448625_flowchart-pointEnd)"></path><path d="M354.18,121L354.18,127C354.18,133,354.18,145,354.18,156.117C354.18,167.233,354.18,177.467,354.18,182.583L354.18,187.7" id="L-B-C-0" class=" edge-thickness-normal edge-pattern-solid flowchart-link LS-B LE-C" style="fill:none;" marker-end="url(#mermaid-1786077448625_flowchart-pointEnd)"></path><path d="M383.617,220.874L397.661,226.062C411.704,231.249,439.792,241.625,453.835,250.096C467.879,258.567,467.879,265.133,467.879,268.417L467.879,271.7" id="L-C-D-0" class=" edge-thickness-normal edge-pattern-solid flowchart-link LS-C LE-D" style="fill:none;" marker-end="url(#mermaid-1786077448625_flowchart-pointEnd)"></path><path d="M467.879,311L467.879,317C467.879,323,467.879,335,467.879,346.117C467.879,357.233,467.879,367.467,467.879,372.583L467.879,377.7" id="L-D-E-0" class=" edge-thickness-normal edge-pattern-solid flowchart-link LS-D LE-E" style="fill:none;" marker-end="url(#mermaid-1786077448625_flowchart-pointEnd)"></path><path d="M492.191,408.637L507.843,414.198C523.495,419.758,554.798,430.879,570.45,439.723C586.102,448.567,586.102,455.133,586.102,458.417L586.102,461.7" id="L-E-F-0" class=" edge-thickness-normal edge-pattern-solid flowchart-link LS-E LE-F" style="fill:none;" marker-end="url(#mermaid-1786077448625_flowchart-pointEnd)"></path><path d="M586.102,501L586.102,507C586.102,513,586.102,525,586.102,536.117C586.102,547.233,586.102,557.467,586.102,562.583L586.102,567.7" id="L-F-G-0" class=" edge-thickness-normal edge-pattern-solid flowchart-link LS-F LE-G" style="fill:none;" marker-end="url(#mermaid-1786077448625_flowchart-pointEnd)"></path><path d="M324.742,215.331L290.995,221.442C257.247,227.554,189.753,239.777,156.005,252.888C122.258,266,122.258,280,122.258,295.833C122.258,311.667,122.258,329.333,122.258,347C122.258,364.667,122.258,382.333,122.258,398.167C122.258,414,122.258,428,122.258,442C122.258,456,122.258,470,122.258,485.833C122.258,501.667,122.258,519.333,122.258,537C122.258,554.667,122.258,572.333,122.258,588.167C122.258,604,122.258,618,122.258,629.167C122.258,640.333,122.258,648.667,122.258,656.117C122.258,663.567,122.258,670.133,122.258,673.417L122.258,676.7" id="L-C-H-0" class=" edge-thickness-normal edge-pattern-solid flowchart-link LS-C LE-H" style="fill:none;" marker-end="url(#mermaid-1786077448625_flowchart-pointEnd)"></path><path d="M443.566,408.637L427.915,414.198C412.263,419.758,380.96,430.879,365.308,443.44C349.656,456,349.656,470,349.656,485.833C349.656,501.667,349.656,519.333,349.656,537C349.656,554.667,349.656,572.333,349.656,588.167C349.656,604,349.656,618,349.656,629.167C349.656,640.333,349.656,648.667,349.656,656.117C349.656,663.567,349.656,670.133,349.656,673.417L349.656,676.7" id="L-E-I-0" class=" edge-thickness-normal edge-pattern-solid flowchart-link LS-E LE-I" style="fill:none;" marker-end="url(#mermaid-1786077448625_flowchart-pointEnd)"></path><path d="M586.102,607L586.102,611.167C586.102,615.333,586.102,623.667,586.102,632C586.102,640.333,586.102,648.667,586.102,656.117C586.102,663.567,586.102,670.133,586.102,673.417L586.102,676.7" id="L-G-J-0" class=" edge-thickness-normal edge-pattern-solid flowchart-link LS-G LE-J" style="fill:none;" marker-end="url(#mermaid-1786077448625_flowchart-pointEnd)"></path></g><g class="edgeLabels"><g class="edgeLabel"><g class="label" transform="translate(0, 0)"><foreignObject width="0" height="0"><div xmlns="http://www.w3.org/1999/xhtml" style="display: inline-block; white-space: nowrap;"><span class="edgeLabel"></span></div></foreignObject></g></g><g class="edgeLabel" transform="translate(354.1796875, 157)"><g class="label" transform="translate(-96, -11)"><foreignObject width="192" height="22"><div xmlns="http://www.w3.org/1999/xhtml" style="display: inline-block; white-space: nowrap;"><span class="edgeLabel">一个文件由一个或多个组成</span></div></foreignObject></g></g><g class="edgeLabel"><g class="label" transform="translate(0, 0)"><foreignObject width="0" height="0"><div xmlns="http://www.w3.org/1999/xhtml" style="display: inline-block; white-space: nowrap;"><span class="edgeLabel"></span></div></foreignObject></g></g><g class="edgeLabel" transform="translate(467.87890625, 347)"><g class="label" transform="translate(-117.9765625, -11)"><foreignObject width="235.953125" height="22"><div xmlns="http://www.w3.org/1999/xhtml" style="display: inline-block; white-space: nowrap;"><span class="edgeLabel">一个或多个 Slice 组成一个 Chunk</span></div></foreignObject></g></g><g class="edgeLabel"><g class="label" transform="translate(0, 0)"><foreignObject width="0" height="0"><div xmlns="http://www.w3.org/1999/xhtml" style="display: inline-block; white-space: nowrap;"><span class="edgeLabel"></span></div></foreignObject></g></g><g class="edgeLabel" transform="translate(586.1015625, 537)"><g class="label" transform="translate(-115.21875, -11)"><foreignObject width="230.4375" height="22"><div xmlns="http://www.w3.org/1999/xhtml" style="display: inline-block; white-space: nowrap;"><span class="edgeLabel">一个 Slice 可以拆分成多个 Block</span></div></foreignObject></g></g><g class="edgeLabel"><g class="label" transform="translate(0, 0)"><foreignObject width="0" height="0"><div xmlns="http://www.w3.org/1999/xhtml" style="display: inline-block; white-space: nowrap;"><span class="edgeLabel"></span></div></foreignObject></g></g><g class="edgeLabel"><g class="label" transform="translate(0, 0)"><foreignObject width="0" height="0"><div xmlns="http://www.w3.org/1999/xhtml" style="display: inline-block; white-space: nowrap;"><span class="edgeLabel"></span></div></foreignObject></g></g><g class="edgeLabel"><g class="label" transform="translate(0, 0)"><foreignObject width="0" height="0"><div xmlns="http://www.w3.org/1999/xhtml" style="display: inline-block; white-space: nowrap;"><span class="edgeLabel"></span></div></foreignObject></g></g></g><g class="nodes"><g class="node default default flowchart-label" id="flowchart-H-12" data-node="true" data-id="H" transform="translate(122.2578125, 700.5)"><rect class="basic label-container" style="" rx="0" ry="0" x="-87.2578125" y="-18.5" width="174.515625" height="37"></rect><g class="label" style="" transform="translate(-79.7578125, -11)"><rect></rect><foreignObject width="159.515625" height="22"><div xmlns="http://www.w3.org/1999/xhtml" style="display: inline-block; white-space: nowrap;"><span class="nodeLabel">每个 Chunk 最大 64MB</span></div></foreignObject></g></g><g class="node default default flowchart-label" id="flowchart-I-13" data-node="true" data-id="I" transform="translate(349.65625, 700.5)"><rect class="basic label-container" style="" rx="0" ry="0" x="-90.140625" y="-18.5" width="180.28125" height="37"></rect><g class="label" style="" transform="translate(-82.640625, -11)"><rect></rect><foreignObject width="165.28125" height="22"><div xmlns="http://www.w3.org/1999/xhtml" style="display: inline-block; white-space: nowrap;"><span class="nodeLabel">每个 Slice 不超过 64MB</span></div></foreignObject></g></g><g class="node default default flowchart-label" id="flowchart-J-14" data-node="true" data-id="J" transform="translate(586.1015625, 700.5)"><rect class="basic label-container" style="" rx="0" ry="0" x="-96.3046875" y="-18.5" width="192.609375" height="37"></rect><g class="label" style="" transform="translate(-88.8046875, -11)"><rect></rect><foreignObject width="177.609375" height="22"><div xmlns="http://www.w3.org/1999/xhtml" style="display: inline-block; white-space: nowrap;"><span class="nodeLabel">每个 Block 默认最大 4MB</span></div></foreignObject></g></g><g class="node default default flowchart-label" id="flowchart-A-0" data-node="true" data-id="A" transform="translate(354.1796875, 18.5)"><rect class="basic label-container" style="" rx="0" ry="0" x="-23.5" y="-18.5" width="47" height="37"></rect><g class="label" style="" transform="translate(-16, -11)"><rect></rect><foreignObject width="32" height="22"><div xmlns="http://www.w3.org/1999/xhtml" style="display: inline-block; white-space: nowrap;"><span class="nodeLabel">文件</span></div></foreignObject></g></g><g class="node default default flowchart-label" id="flowchart-B-1" data-node="true" data-id="B" transform="translate(354.1796875, 104)"><rect class="basic label-container" style="" rx="0" ry="0" x="-29.4375" y="-17" width="58.875" height="34"></rect><g class="label" style="" transform="translate(-21.9375, -9.5)"><rect></rect><foreignObject width="43.875" height="19"><div xmlns="http://www.w3.org/1999/xhtml" style="display: inline-block; white-space: nowrap;"><span class="nodeLabel">Chunk</span></div></foreignObject></g></g><g class="node default default flowchart-label" id="flowchart-C-3" data-node="true" data-id="C" transform="translate(354.1796875, 210)"><rect class="basic label-container" style="" rx="0" ry="0" x="-29.4375" y="-17" width="58.875" height="34"></rect><g class="label" style="" transform="translate(-21.9375, -9.5)"><rect></rect><foreignObject width="43.875" height="19"><div xmlns="http://www.w3.org/1999/xhtml" style="display: inline-block; white-space: nowrap;"><span class="nodeLabel">Chunk</span></div></foreignObject></g></g><g class="node default default flowchart-label" id="flowchart-D-5" data-node="true" data-id="D" transform="translate(467.87890625, 294)"><rect class="basic label-container" style="" rx="0" ry="0" x="-24.3125" y="-17" width="48.625" height="34"></rect><g class="label" style="" transform="translate(-16.8125, -9.5)"><rect></rect><foreignObject width="33.625" height="19"><div xmlns="http://www.w3.org/1999/xhtml" style="display: inline-block; white-space: nowrap;"><span class="nodeLabel">Slice</span></div></foreignObject></g></g><g class="node default default flowchart-label" id="flowchart-E-7" data-node="true" data-id="E" transform="translate(467.87890625, 400)"><rect class="basic label-container" style="" rx="0" ry="0" x="-24.3125" y="-17" width="48.625" height="34"></rect><g class="label" style="" transform="translate(-16.8125, -9.5)"><rect></rect><foreignObject width="33.625" height="19"><div xmlns="http://www.w3.org/1999/xhtml" style="display: inline-block; white-space: nowrap;"><span class="nodeLabel">Slice</span></div></foreignObject></g></g><g class="node default default flowchart-label" id="flowchart-F-9" data-node="true" data-id="F" transform="translate(586.1015625, 484)"><rect class="basic label-container" style="" rx="0" ry="0" x="-26.6796875" y="-17" width="53.359375" height="34"></rect><g class="label" style="" transform="translate(-19.1796875, -9.5)"><rect></rect><foreignObject width="38.359375" height="19"><div xmlns="http://www.w3.org/1999/xhtml" style="display: inline-block; white-space: nowrap;"><span class="nodeLabel">Block</span></div></foreignObject></g></g><g class="node default default flowchart-label" id="flowchart-G-11" data-node="true" data-id="G" transform="translate(586.1015625, 590)"><rect class="basic label-container" style="" rx="0" ry="0" x="-26.6796875" y="-17" width="53.359375" height="34"></rect><g class="label" style="" transform="translate(-19.1796875, -9.5)"><rect></rect><foreignObject width="38.359375" height="19"><div xmlns="http://www.w3.org/1999/xhtml" style="display: inline-block; white-space: nowrap;"><span class="nodeLabel">Block</span></div></foreignObject></g></g></g></g></g></svg>