<svg id="mermaid-1786077450805" width="100%" xmlns="http://www.w3.org/2000/svg" style="max-width: 1510.21875px;" viewBox="-8 -8 1510.21875 303" role="graphics-document document" aria-roledescription="flowchart-v2"> style="max-width:100%;height:auto;"<style>#mermaid-1786077450805{font-family:"trebuchet ms",verdana,arial,sans-serif;font-size:16px;fill:#333;}#mermaid-1786077450805 .error-icon{fill:#552222;}#mermaid-1786077450805 .error-text{fill:#552222;stroke:#552222;}#mermaid-1786077450805 .edge-thickness-normal{stroke-width:2px;}#mermaid-1786077450805 .edge-thickness-thick{stroke-width:3.5px;}#mermaid-1786077450805 .edge-pattern-solid{stroke-dasharray:0;}#mermaid-1786077450805 .edge-pattern-dashed{stroke-dasharray:3;}#mermaid-1786077450805 .edge-pattern-dotted{stroke-dasharray:2;}#mermaid-1786077450805 .marker{fill:#333333;stroke:#333333;}#mermaid-1786077450805 .marker.cross{stroke:#333333;}#mermaid-1786077450805 svg{font-family:"trebuchet ms",verdana,arial,sans-serif;font-size:16px;}#mermaid-1786077450805 .label{font-family:"trebuchet ms",verdana,arial,sans-serif;color:#333;}#mermaid-1786077450805 .cluster-label text{fill:#333;}#mermaid-1786077450805 .cluster-label span,#mermaid-1786077450805 p{color:#333;}#mermaid-1786077450805 .label text,#mermaid-1786077450805 span,#mermaid-1786077450805 p{fill:#333;color:#333;}#mermaid-1786077450805 .node rect,#mermaid-1786077450805 .node circle,#mermaid-1786077450805 .node ellipse,#mermaid-1786077450805 .node polygon,#mermaid-1786077450805 .node path{fill:#ECECFF;stroke:#9370DB;stroke-width:1px;}#mermaid-1786077450805 .flowchart-label text{text-anchor:middle;}#mermaid-1786077450805 .node .katex path{fill:#000;stroke:#000;stroke-width:1px;}#mermaid-1786077450805 .node .label{text-align:center;}#mermaid-1786077450805 .node.clickable{cursor:pointer;}#mermaid-1786077450805 .arrowheadPath{fill:#333333;}#mermaid-1786077450805 .edgePath .path{stroke:#333333;stroke-width:2.0px;}#mermaid-1786077450805 .flowchart-link{stroke:#333333;fill:none;}#mermaid-1786077450805 .edgeLabel{background-color:#e8e8e8;text-align:center;}#mermaid-1786077450805 .edgeLabel rect{opacity:0.5;background-color:#e8e8e8;fill:#e8e8e8;}#mermaid-1786077450805 .labelBkg{background-color:rgba(232, 232, 232, 0.5);}#mermaid-1786077450805 .cluster rect{fill:#ffffde;stroke:#aaaa33;stroke-width:1px;}#mermaid-1786077450805 .cluster text{fill:#333;}#mermaid-1786077450805 .cluster span,#mermaid-1786077450805 p{color:#333;}#mermaid-1786077450805 div.mermaidTooltip{position:absolute;text-align:center;max-width:200px;padding:2px;font-family:"trebuchet ms",verdana,arial,sans-serif;font-size:12px;background:hsl(80, 100%, 96.2745098039%);border:1px solid #aaaa33;border-radius:2px;pointer-events:none;z-index:100;}#mermaid-1786077450805 .flowchartTitleText{text-anchor:middle;font-size:18px;fill:#333;}#mermaid-1786077450805 :root{--mermaid-font-family:"trebuchet ms",verdana,arial,sans-serif;}</style><g><marker id="mermaid-1786077450805_flowchart-pointEnd" class="marker flowchart" viewBox="0 0 10 10" refX="6" refY="5" markerUnits="userSpaceOnUse" markerWidth="12" markerHeight="12" orient="auto"><path d="M 0 0 L 10 5 L 0 10 z" class="arrowMarkerPath" style="stroke-width: 1; stroke-dasharray: 1, 0;"></path></marker><marker id="mermaid-1786077450805_flowchart-pointStart" class="marker flowchart" viewBox="0 0 10 10" refX="4.5" refY="5" markerUnits="userSpaceOnUse" markerWidth="12" markerHeight="12" orient="auto"><path d="M 0 5 L 10 10 L 10 0 z" class="arrowMarkerPath" style="stroke-width: 1; stroke-dasharray: 1, 0;"></path></marker><marker id="mermaid-1786077450805_flowchart-circleEnd" class="marker flowchart" viewBox="0 0 10 10" refX="11" refY="5" markerUnits="userSpaceOnUse" markerWidth="11" markerHeight="11" orient="auto"><circle cx="5" cy="5" r="5" class="arrowMarkerPath" style="stroke-width: 1; stroke-dasharray: 1, 0;"></circle></marker><marker id="mermaid-1786077450805_flowchart-circleStart" class="marker flowchart" viewBox="0 0 10 10" refX="-1" refY="5" markerUnits="userSpaceOnUse" markerWidth="11" markerHeight="11" orient="auto"><circle cx="5" cy="5" r="5" class="arrowMarkerPath" style="stroke-width: 1; stroke-dasharray: 1, 0;"></circle></marker><marker id="mermaid-1786077450805_flowchart-crossEnd" class="marker cross flowchart" viewBox="0 0 11 11" refX="12" refY="5.2" markerUnits="userSpaceOnUse" markerWidth="11" markerHeight="11" orient="auto"><path d="M 1,1 l 9,9 M 10,1 l -9,9" class="arrowMarkerPath" style="stroke-width: 2; stroke-dasharray: 1, 0;"></path></marker><marker id="mermaid-1786077450805_flowchart-crossStart" class="marker cross flowchart" viewBox="0 0 11 11" refX="-1" refY="5.2" markerUnits="userSpaceOnUse" markerWidth="11" markerHeight="11" orient="auto"><path d="M 1,1 l 9,9 M 10,1 l -9,9" class="arrowMarkerPath" style="stroke-width: 2; stroke-dasharray: 1, 0;"></path></marker><g class="root"><g class="clusters"><g class="cluster default flowchart-label" id="Block"><rect style="" rx="0" ry="0" x="0" y="203" width="1494.21875" height="84"></rect><g class="cluster-label" transform="translate(727.9296875, 203)"><foreignObject width="38.359375" height="19"><div xmlns="http://www.w3.org/1999/xhtml" style="display: inline-block; white-space: nowrap;"><span class="nodeLabel">Block</span></div></foreignObject></g></g><g class="cluster default flowchart-label" id="File"><rect style="" rx="0" ry="0" x="30.96875" y="0" width="1412.28125" height="134"></rect><g class="cluster-label" transform="translate(698.703125, 0)"><foreignObject width="76.8125" height="19"><div xmlns="http://www.w3.org/1999/xhtml" style="display: inline-block; white-space: nowrap;"><span class="nodeLabel">File 160MB</span></div></foreignObject></g></g><g class="cluster default flowchart-label" id="Chunk1"><rect style="" rx="0" ry="0" x="50.96875" y="25" width="388.0703125" height="84"></rect><g class="cluster-label" transform="translate(195.45703125, 25)"><foreignObject width="99.09375" height="19"><div xmlns="http://www.w3.org/1999/xhtml" style="display: inline-block; white-space: nowrap;"><span class="nodeLabel">Chunk 1 64MB</span></div></foreignObject></g></g><g class="cluster default flowchart-label" id="Chunk2"><rect style="" rx="0" ry="0" x="545.171875" y="25" width="388.0703125" height="84"></rect><g class="cluster-label" transform="translate(689.66015625, 25)"><foreignObject width="99.09375" height="19"><div xmlns="http://www.w3.org/1999/xhtml" style="display: inline-block; white-space: nowrap;"><span class="nodeLabel">Chunk 2 64MB</span></div></foreignObject></g></g><g class="cluster default flowchart-label" id="Chunk3"><rect style="" rx="0" ry="0" x="1039.375" y="25" width="383.875" height="84"></rect><g class="cluster-label" transform="translate(1177.5703125, 25)"><foreignObject width="107.484375" height="19"><div xmlns="http://www.w3.org/1999/xhtml" style="display: inline-block; white-space: nowrap;"><span class="nodeLabel">Chunk 3 &lt;64MB</span></div></foreignObject></g></g></g><g class="edgePaths"><path d="M221.984,75.02L200.148,80.683C178.313,86.347,134.641,97.673,112.805,107.503C90.969,117.333,90.969,125.667,90.969,135.583C90.969,145.5,90.969,157,90.969,168.5C90.969,180,90.969,191.5,90.969,200.533C90.969,209.567,90.969,216.133,90.969,219.417L90.969,222.7" id="L-slice1_1-block1_1-0" class=" edge-thickness-normal edge-pattern-solid flowchart-link LS-slice1_1 LE-block1_1" style="fill:none;" marker-end="url(#mermaid-1786077450805_flowchart-pointEnd)"></path><path d="M252.906,84L252.906,88.167C252.906,92.333,252.906,100.667,252.906,109C252.906,117.333,252.906,125.667,252.906,135.583C252.906,145.5,252.906,157,252.906,168.5C252.906,180,252.906,191.5,252.906,200.533C252.906,209.567,252.906,216.133,252.906,219.417L252.906,222.7" id="L-slice1_1-block1_2-0" class=" edge-thickness-normal edge-pattern-solid flowchart-link LS-slice1_1 LE-block1_2" style="fill:none;" marker-end="url(#mermaid-1786077450805_flowchart-pointEnd)"></path><path d="M283.828,74.817L306.363,80.514C328.898,86.212,373.969,97.606,396.504,107.47C419.039,117.333,419.039,125.667,419.039,135.583C419.039,145.5,419.039,157,419.039,168.5C419.039,180,419.039,191.5,419.039,200.533C419.039,209.567,419.039,216.133,419.039,219.417L419.039,222.7" id="L-slice1_1-block1_16-0" class=" edge-thickness-normal edge-pattern-solid flowchart-link LS-slice1_1 LE-block1_16" style="fill:none;" marker-end="url(#mermaid-1786077450805_flowchart-pointEnd)"></path><path d="M716.188,75.02L694.352,80.683C672.516,86.347,628.844,97.673,607.008,107.503C585.172,117.333,585.172,125.667,585.172,135.583C585.172,145.5,585.172,157,585.172,168.5C585.172,180,585.172,191.5,585.172,200.533C585.172,209.567,585.172,216.133,585.172,219.417L585.172,222.7" id="L-slice2_1-block2_1-0" class=" edge-thickness-normal edge-pattern-solid flowchart-link LS-slice2_1 LE-block2_1" style="fill:none;" marker-end="url(#mermaid-1786077450805_flowchart-pointEnd)"></path><path d="M747.109,84L747.109,88.167C747.109,92.333,747.109,100.667,747.109,109C747.109,117.333,747.109,125.667,747.109,135.583C747.109,145.5,747.109,157,747.109,168.5C747.109,180,747.109,191.5,747.109,200.533C747.109,209.567,747.109,216.133,747.109,219.417L747.109,222.7" id="L-slice2_1-block2_2-0" class=" edge-thickness-normal edge-pattern-solid flowchart-link LS-slice2_1 LE-block2_2" style="fill:none;" marker-end="url(#mermaid-1786077450805_flowchart-pointEnd)"></path><path d="M778.031,74.817L800.566,80.514C823.102,86.212,868.172,97.606,890.707,107.47C913.242,117.333,913.242,125.667,913.242,135.583C913.242,145.5,913.242,157,913.242,168.5C913.242,180,913.242,191.5,913.242,200.533C913.242,209.567,913.242,216.133,913.242,219.417L913.242,222.7" id="L-slice2_1-block2_16-0" class=" edge-thickness-normal edge-pattern-solid flowchart-link LS-slice2_1 LE-block2_16" style="fill:none;" marker-end="url(#mermaid-1786077450805_flowchart-pointEnd)"></path><path d="M1210.391,75.02L1188.555,80.683C1166.719,86.347,1123.047,97.673,1101.211,107.503C1079.375,117.333,1079.375,125.667,1079.375,135.583C1079.375,145.5,1079.375,157,1079.375,168.5C1079.375,180,1079.375,191.5,1079.375,200.533C1079.375,209.567,1079.375,216.133,1079.375,219.417L1079.375,222.7" id="L-slice3_1-block3_1-0" class=" edge-thickness-normal edge-pattern-solid flowchart-link LS-slice3_1 LE-block3_1" style="fill:none;" marker-end="url(#mermaid-1786077450805_flowchart-pointEnd)"></path><path d="M1241.313,84L1241.313,88.167C1241.313,92.333,1241.313,100.667,1241.313,109C1241.313,117.333,1241.313,125.667,1241.313,135.583C1241.313,145.5,1241.313,157,1241.313,168.5C1241.313,180,1241.313,191.5,1241.313,200.533C1241.313,209.567,1241.313,216.133,1241.313,219.417L1241.313,222.7" id="L-slice3_1-block3_2-0" class=" edge-thickness-normal edge-pattern-solid flowchart-link LS-slice3_1 LE-block3_2" style="fill:none;" marker-end="url(#mermaid-1786077450805_flowchart-pointEnd)"></path><path d="M1272.234,75.02L1294.07,80.683C1315.906,86.347,1359.578,97.673,1381.414,107.503C1403.25,117.333,1403.25,125.667,1403.25,135.583C1403.25,145.5,1403.25,157,1403.25,168.5C1403.25,180,1403.25,191.5,1403.25,200.533C1403.25,209.567,1403.25,216.133,1403.25,219.417L1403.25,222.7" id="L-slice3_1-block3_8-0" class=" edge-thickness-normal edge-pattern-solid flowchart-link LS-slice3_1 LE-block3_8" style="fill:none;" marker-end="url(#mermaid-1786077450805_flowchart-pointEnd)"></path></g><g class="edgeLabels"><g class="edgeLabel" transform="translate(90.96875, 168.5)"><g class="label" transform="translate(-32.6484375, -9.5)"><foreignObject width="65.296875" height="19"><div xmlns="http://www.w3.org/1999/xhtml" style="display: inline-block; white-space: nowrap;"><span class="edgeLabel">Split into</span></div></foreignObject></g></g><g class="edgeLabel"><g class="label" transform="translate(0, 0)"><foreignObject width="0" height="0"><div xmlns="http://www.w3.org/1999/xhtml" style="display: inline-block; white-space: nowrap;"><span class="edgeLabel"></span></div></foreignObject></g></g><g class="edgeLabel"><g class="label" transform="translate(0, 0)"><foreignObject width="0" height="0"><div xmlns="http://www.w3.org/1999/xhtml" style="display: inline-block; white-space: nowrap;"><span class="edgeLabel"></span></div></foreignObject></g></g><g class="edgeLabel" transform="translate(585.171875, 168.5)"><g class="label" transform="translate(-32.6484375, -9.5)"><foreignObject width="65.296875" height="19"><div xmlns="http://www.w3.org/1999/xhtml" style="display: inline-block; white-space: nowrap;"><span class="edgeLabel">Split into</span></div></foreignObject></g></g><g class="edgeLabel"><g class="label" transform="translate(0, 0)"><foreignObject width="0" height="0"><div xmlns="http://www.w3.org/1999/xhtml" style="display: inline-block; white-space: nowrap;"><span class="edgeLabel"></span></div></foreignObject></g></g><g class="edgeLabel"><g class="label" transform="translate(0, 0)"><foreignObject width="0" height="0"><div xmlns="http://www.w3.org/1999/xhtml" style="display: inline-block; white-space: nowrap;"><span class="edgeLabel"></span></div></foreignObject></g></g><g class="edgeLabel" transform="translate(1079.375, 168.5)"><g class="label" transform="translate(-32.6484375, -9.5)"><foreignObject width="65.296875" height="19"><div xmlns="http://www.w3.org/1999/xhtml" style="display: inline-block; white-space: nowrap;"><span class="edgeLabel">Split into</span></div></foreignObject></g></g><g class="edgeLabel"><g class="label" transform="translate(0, 0)"><foreignObject width="0" height="0"><div xmlns="http://www.w3.org/1999/xhtml" style="display: inline-block; white-space: nowrap;"><span class="edgeLabel"></span></div></foreignObject></g></g><g class="edgeLabel"><g class="label" transform="translate(0, 0)"><foreignObject width="0" height="0"><div xmlns="http://www.w3.org/1999/xhtml" style="display: inline-block; white-space: nowrap;"><span class="edgeLabel"></span></div></foreignObject></g></g></g><g class="nodes"><g class="node default default flowchart-label" id="flowchart-block1_1-3" data-node="true" data-id="block1_1" transform="translate(90.96875, 245)"><rect class="basic label-container" style="" rx="0" ry="0" x="-55.96875" y="-17" width="111.9375" height="34"></rect><g class="label" style="" transform="translate(-48.46875, -9.5)"><rect></rect><foreignObject width="96.9375" height="19"><div xmlns="http://www.w3.org/1999/xhtml" style="display: inline-block; white-space: nowrap;"><span class="nodeLabel">Block 1 (4MB)</span></div></foreignObject></g></g><g class="node default default flowchart-label" id="flowchart-block1_2-4" data-node="true" data-id="block1_2" transform="translate(252.90625, 245)"><rect class="basic label-container" style="" rx="0" ry="0" x="-55.96875" y="-17" width="111.9375" height="34"></rect><g class="label" style="" transform="translate(-48.46875, -9.5)"><rect></rect><foreignObject width="96.9375" height="19"><div xmlns="http://www.w3.org/1999/xhtml" style="display: inline-block; white-space: nowrap;"><span class="nodeLabel">Block 2 (4MB)</span></div></foreignObject></g></g><g class="node default default flowchart-label" id="flowchart-block1_16-5" data-node="true" data-id="block1_16" transform="translate(419.0390625, 245)"><rect class="basic label-container" style="" rx="0" ry="0" x="-60.1640625" y="-17" width="120.328125" height="34"></rect><g class="label" style="" transform="translate(-52.6640625, -9.5)"><rect></rect><foreignObject width="105.328125" height="19"><div xmlns="http://www.w3.org/1999/xhtml" style="display: inline-block; white-space: nowrap;"><span class="nodeLabel">Block 16 (4MB)</span></div></foreignObject></g></g><g class="node default default flowchart-label" id="flowchart-block2_1-6" data-node="true" data-id="block2_1" transform="translate(585.171875, 245)"><rect class="basic label-container" style="" rx="0" ry="0" x="-55.96875" y="-17" width="111.9375" height="34"></rect><g class="label" style="" transform="translate(-48.46875, -9.5)"><rect></rect><foreignObject width="96.9375" height="19"><div xmlns="http://www.w3.org/1999/xhtml" style="display: inline-block; white-space: nowrap;"><span class="nodeLabel">Block 1 (4MB)</span></div></foreignObject></g></g><g class="node default default flowchart-label" id="flowchart-block2_2-7" data-node="true" data-id="block2_2" transform="translate(747.109375, 245)"><rect class="basic label-container" style="" rx="0" ry="0" x="-55.96875" y="-17" width="111.9375" height="34"></rect><g class="label" style="" transform="translate(-48.46875, -9.5)"><rect></rect><foreignObject width="96.9375" height="19"><div xmlns="http://www.w3.org/1999/xhtml" style="display: inline-block; white-space: nowrap;"><span class="nodeLabel">Block 2 (4MB)</span></div></foreignObject></g></g><g class="node default default flowchart-label" id="flowchart-block2_16-8" data-node="true" data-id="block2_16" transform="translate(913.2421875, 245)"><rect class="basic label-container" style="" rx="0" ry="0" x="-60.1640625" y="-17" width="120.328125" height="34"></rect><g class="label" style="" transform="translate(-52.6640625, -9.5)"><rect></rect><foreignObject width="105.328125" height="19"><div xmlns="http://www.w3.org/1999/xhtml" style="display: inline-block; white-space: nowrap;"><span class="nodeLabel">Block 16 (4MB)</span></div></foreignObject></g></g><g class="node default default flowchart-label" id="flowchart-block3_1-9" data-node="true" data-id="block3_1" transform="translate(1079.375, 245)"><rect class="basic label-container" style="" rx="0" ry="0" x="-55.96875" y="-17" width="111.9375" height="34"></rect><g class="label" style="" transform="translate(-48.46875, -9.5)"><rect></rect><foreignObject width="96.9375" height="19"><div xmlns="http://www.w3.org/1999/xhtml" style="display: inline-block; white-space: nowrap;"><span class="nodeLabel">Block 1 (4MB)</span></div></foreignObject></g></g><g class="node default default flowchart-label" id="flowchart-block3_2-10" data-node="true" data-id="block3_2" transform="translate(1241.3125, 245)"><rect class="basic label-container" style="" rx="0" ry="0" x="-55.96875" y="-17" width="111.9375" height="34"></rect><g class="label" style="" transform="translate(-48.46875, -9.5)"><rect></rect><foreignObject width="96.9375" height="19"><div xmlns="http://www.w3.org/1999/xhtml" style="display: inline-block; white-space: nowrap;"><span class="nodeLabel">Block 2 (4MB)</span></div></foreignObject></g></g><g class="node default default flowchart-label" id="flowchart-block3_8-11" data-node="true" data-id="block3_8" transform="translate(1403.25, 245)"><rect class="basic label-container" style="" rx="0" ry="0" x="-55.96875" y="-17" width="111.9375" height="34"></rect><g class="label" style="" transform="translate(-48.46875, -9.5)"><rect></rect><foreignObject width="96.9375" height="19"><div xmlns="http://www.w3.org/1999/xhtml" style="display: inline-block; white-space: nowrap;"><span class="nodeLabel">Block 8 (4MB)</span></div></foreignObject></g></g><g class="node default default flowchart-label" id="flowchart-slice3_1-2" data-node="true" data-id="slice3_1" transform="translate(1241.3125, 67)"><rect class="basic label-container" style="" rx="0" ry="0" x="-30.921875" y="-17" width="61.84375" height="34"></rect><g class="label" style="" transform="translate(-23.421875, -9.5)"><rect></rect><foreignObject width="46.84375" height="19"><div xmlns="http://www.w3.org/1999/xhtml" style="display: inline-block; white-space: nowrap;"><span class="nodeLabel">Slice 3</span></div></foreignObject></g></g><g class="node default default flowchart-label" id="flowchart-slice2_1-1" data-node="true" data-id="slice2_1" transform="translate(747.109375, 67)"><rect class="basic label-container" style="" rx="0" ry="0" x="-30.921875" y="-17" width="61.84375" height="34"></rect><g class="label" style="" transform="translate(-23.421875, -9.5)"><rect></rect><foreignObject width="46.84375" height="19"><div xmlns="http://www.w3.org/1999/xhtml" style="display: inline-block; white-space: nowrap;"><span class="nodeLabel">Slice 2</span></div></foreignObject></g></g><g class="node default default flowchart-label" id="flowchart-slice1_1-0" data-node="true" data-id="slice1_1" transform="translate(252.90625, 67)"><rect class="basic label-container" style="" rx="0" ry="0" x="-30.921875" y="-17" width="61.84375" height="34"></rect><g class="label" style="" transform="translate(-23.421875, -9.5)"><rect></rect><foreignObject width="46.84375" height="19"><div xmlns="http://www.w3.org/1999/xhtml" style="display: inline-block; white-space: nowrap;"><span class="nodeLabel">Slice 1</span></div></foreignObject></g></g></g></g></g></svg>